<svg width="303" height="238" viewBox="0 0 303 238" fill="none" xmlns="http://www.w3.org/2000/svg">
<g clip-path="url(#clip0_3817_1661)">
<g clip-path="url(#clip1_3817_1661)">
<g opacity="0.5">
<path d="M292.799 10.1739L284.988 10.4256L284.718 2.04263L292.529 1.79102L292.799 10.1739Z" fill="#0D0D80"/>
</g>
<path d="M191.204 10.9696L183.789 11.9694L182.624 3.32794L190.039 2.32812L191.204 10.9696Z" fill="#FF9500"/>
<path d="M231.335 9.96691L227.43 10.0927L227.16 1.70979L231.065 1.58398L231.335 9.96691Z" fill="#2AAC7E"/>
<path d="M245.964 158.925C244.131 158.184 243.401 155.705 244.336 153.393C245.27 151.081 247.518 149.806 249.351 150.547C251.184 151.288 251.914 153.767 250.979 156.079C250.045 158.391 247.798 159.666 245.964 158.925Z" fill="#FF9500"/>
<path d="M197.536 7.37593C201.585 15.6976 214.996 18.4906 217.812 27.541C220.802 37.1503 209.952 47.7275 212.942 57.3368C212.99 57.4902 213.04 57.6413 213.094 57.7915" stroke="#FF9500" stroke-width="1.77186" stroke-linecap="round" stroke-linejoin="round"/>
<path d="M245.637 6.01698C245.273 8.73172 245.363 11.366 246.423 13.8298C250.401 23.0739 265.521 24.0537 269.499 33.2979C271.214 37.2828 270.494 41.7099 269.396 46.2051" stroke="#2AAC7E" stroke-width="1.56702" stroke-linecap="round" stroke-linejoin="round"/>
<path d="M155.325 18.4548L159.964 11.0386L166.284 14.992L161.645 22.4082L155.325 18.4548Z" fill="#2AAC7E"/>
<path d="M209.422 17.1761L207.973 21.1116L200.639 18.4121L202.088 14.4766L209.422 17.1761Z" fill="#FF9500"/>
<path d="M192.437 83.7896C190.237 83.2359 188.887 81.0524 189.424 78.9169C189.961 76.7815 192.184 75.4973 194.385 76.051C196.585 76.6048 197.935 78.7882 197.398 80.9237C196.86 83.0591 194.637 84.3434 192.437 83.7896Z" fill="#FF9500"/>
<path d="M212.744 41.1308C215.495 42.6624 217.869 44.5231 219.286 47.2167C223.97 56.1237 215.221 68.4945 219.905 77.4015C221.825 81.0535 225.442 83.2444 229.391 85.1483" stroke="#2AAC7E" stroke-width="1.57804" stroke-linecap="round" stroke-linejoin="round"/>
<path d="M210.378 5.57371C207.706 11.1812 204.32 16.7768 205.555 22.4531C207.696 32.2864 222.352 36.1333 224.493 45.9666C225.01 48.342 224.75 50.7077 224.081 53.0683" stroke="#0D0D80" stroke-width="1.65795" stroke-linecap="round" stroke-linejoin="round"/>
<g opacity="0.5">
<path d="M126.243 21.687L118.631 19.9175L120.53 11.748L128.143 13.5176L126.243 21.687Z" fill="#0D0D80"/>
</g>
<path d="M66.9046 5.64991L63.0986 4.76513L64.9977 -3.40431L68.8037 -2.51953L66.9046 5.64991Z" fill="#2AAC7E"/>
<path d="M34.9216 -5.56399C36.6896 3.52004 48.9285 9.6744 49.3171 19.1448C49.7298 29.2 36.5212 36.6243 36.9339 46.6795C36.9405 46.8401 36.9504 46.9991 36.9636 47.158" stroke="#FF9500" stroke-width="1.77186" stroke-linecap="round" stroke-linejoin="round"/>
<path d="M81.7463 5.52739C80.6956 8.0568 80.1036 10.6253 80.4931 13.279C81.9546 23.236 96.312 28.0789 97.7734 38.0358C98.4034 42.328 96.5668 46.42 94.3482 50.4807" stroke="#2AAC7E" stroke-width="1.56702" stroke-linecap="round" stroke-linejoin="round"/>
<path d="M43.8839 6.9747L41.4701 10.404L35.0794 5.9059L37.4932 2.47656L43.8839 6.9747Z" fill="#FF9500"/>
<path d="M10.3038 66.9583C8.32039 65.8563 7.57842 63.3986 8.64795 61.4738C9.71748 59.5489 12.1962 58.8808 14.1796 59.9828C16.1629 61.0849 16.9049 63.5425 15.8354 65.4674C14.7658 67.3922 12.2871 68.0603 10.3038 66.9583Z" fill="#FF9500"/>
<path d="M40.9125 30.9729C43.1762 33.1618 44.9903 35.5713 45.6649 38.5389C47.8959 48.3521 36.2544 58.0507 38.4853 67.8639C39.4001 71.8875 42.3301 74.9363 45.6555 77.7936" stroke="#2AAC7E" stroke-width="1.57804" stroke-linecap="round" stroke-linejoin="round"/>
<path d="M47.7958 -3.99427C43.7687 0.735254 39.0552 5.26945 38.7866 11.0724C38.3213 21.1253 51.4909 28.6187 51.0256 38.6716C50.9132 41.1 50.0523 43.3188 48.7977 45.4274" stroke="#0D0D80" stroke-width="1.65795" stroke-linecap="round" stroke-linejoin="round"/>
<path d="M248.855 88.4413L253.961 97.7188L248.35 100.807L243.244 91.5293L248.855 88.4413Z" fill="#FF9500"/>
<g opacity="0.5">
<path d="M123.339 68.7519L128.084 71.1007L124.25 78.8469L119.505 76.498L123.339 68.7519Z" fill="#FF9500"/>
</g>
<path d="M169.548 88.8093L171.121 91.5782L161.912 96.8079L160.34 94.0391L169.548 88.8093Z" fill="#2AAC7E"/>
<path d="M80.573 61.1393C81.3884 58.9838 84.2696 58.0731 87.0028 59.107C89.736 60.1409 91.2932 62.7305 90.4778 64.886C89.6624 67.0415 86.7813 67.9522 84.048 66.9183C81.3148 65.8844 79.7577 63.2948 80.573 61.1393Z" fill="#FF9500"/>
<g opacity="0.5">
<path d="M86.9096 23.0729L88.2369 14.8761L98.6905 16.5688L97.3632 24.7656L86.9096 23.0729Z" fill="#0D0D80"/>
</g>
<g opacity="0.5">
<path d="M113.918 25.7657L114.629 21.6988L125.061 23.523L124.35 27.5898L113.918 25.7657Z" fill="#0D0D80"/>
</g>
<path d="M168.784 -1.55823L171.806 -4.76899L179.517 2.48846L176.496 5.69922L168.784 -1.55823Z" fill="#FF9500"/>
<g opacity="0.5">
<path d="M185.405 162.356C182.494 162.106 180.249 160.519 180.395 158.814C180.541 157.109 183.024 155.927 185.936 156.177C188.847 156.427 191.092 158.014 190.946 159.719C190.8 161.424 188.317 162.606 185.405 162.356Z" fill="#0D0D80"/>
</g>
<path d="M171.938 61.1152C169.247 59.9764 167.726 57.4824 168.544 55.5497C169.362 53.6169 172.211 52.9723 174.902 54.1112C177.593 55.25 179.114 57.7439 178.296 59.6767C177.479 61.6095 174.629 62.2541 171.938 61.1152Z" fill="#FF9500"/>
<path d="M70.5047 91.7558L72.1613 102.215L78.4867 101.213L76.8301 90.7539L70.5047 91.7558Z" fill="#FF9500"/>
<g opacity="0.5">
<path d="M157.573 -0.772861L155.265 3.99265L163.044 7.75965L165.352 2.99414L157.573 -0.772861Z" fill="#FF9500"/>
</g>
<path d="M133.377 43.4071L133.833 46.5586L144.313 45.042L143.857 41.8906L133.377 43.4071Z" fill="#2AAC7E"/>
<g opacity="0.5">
<path d="M201.705 59.6653C200.701 57.8778 197.817 57.5887 195.269 59.0203C192.722 60.4519 191.469 63.0656 192.473 64.8531C193.478 66.6407 196.362 66.9298 198.909 65.4982C201.457 64.0666 202.71 61.4529 201.705 59.6653Z" fill="#FF3B30"/>
</g>
<path d="M114.512 23.0046C115.939 20.4546 115.611 17.552 113.78 16.527C111.948 15.502 109.303 16.7401 107.875 19.2901C106.448 21.8401 106.776 24.7427 108.608 25.7678C110.439 26.7928 113.085 25.5546 114.512 23.0046Z" fill="#FF9500"/>
</g>
</g>
<path d="M181.724 88.8279L181.726 88.8242L181.652 88.7868L181.644 88.7826L163.846 78.5366L163.828 78.5278L163.725 78.4745L163.723 78.4792C155.408 74.2844 144.314 75.5428 132.381 83.2586C108.408 98.7602 90.1409 134.441 91.5795 162.953C92.2966 177.165 97.7759 186.91 106.059 191.194L106.057 191.196L106.13 191.234L106.14 191.239L123.942 201.487L123.949 201.491L124.037 201.536L124.039 201.532C132.356 205.739 143.459 204.485 155.402 196.763C179.374 181.26 197.642 145.581 196.204 117.068C195.486 102.857 190.007 93.1114 181.724 88.8279Z" fill="#4ADE80"/>
<path d="M123.336 201.162L106.145 191.236L106.132 191.237L106.052 191.189C97.773 186.895 92.2961 177.149 91.5803 162.957C90.9388 150.241 94.224 136.107 100.169 122.981L100.289 122.693L117.974 133.226C112.016 146.352 108.743 160.486 109.385 173.202C110.087 187.109 115.35 196.735 123.336 201.162Z" fill="#22C55E"/>
<path d="M155.402 196.762C179.374 181.26 197.642 145.58 196.203 117.068C194.764 88.5555 174.165 78.0084 150.192 93.5109C126.219 109.013 107.951 144.693 109.39 173.205C110.829 201.717 131.429 212.264 155.402 196.762Z" fill="#86EFAC"/>
<path d="M157.054 180.533C156.884 180.533 156.713 180.529 156.543 180.52C155.066 180.439 153.658 180.016 152.412 179.293C151.622 178.835 146.793 176.035 145.681 175.402C145.125 175.085 144.601 174.71 144.118 174.278C144.601 174.708 145.126 175.084 145.68 175.4C146.794 176.035 151.624 178.835 152.411 179.292C151.62 178.831 150.898 178.253 150.263 177.565L133.227 159.112C132.449 158.269 131.858 157.312 131.458 156.304L124.683 152.395C125.012 153.209 125.457 153.993 126.027 154.71C124.675 153.024 124.006 150.981 124.005 148.943C124.004 146.455 124.999 143.975 126.964 142.159C128.744 140.522 130.993 139.715 133.234 139.715C134.834 139.715 136.431 140.128 137.847 140.945C138.631 141.398 143.477 144.204 144.618 144.858C145.406 145.309 146.138 145.886 146.785 146.588L148.957 148.943L187.191 70.1921C188.779 66.9115 192.075 65 195.506 65C196.857 65 198.23 65.297 199.526 65.9236C199.724 66.0193 199.917 66.1215 200.104 66.2294C201.312 66.9246 206.702 70.0389 206.891 70.1477C209.813 71.8314 211.499 74.9332 211.5 78.1516C211.5 79.5043 211.203 80.8775 210.575 82.175L165.343 175.339C164.018 178.08 161.415 179.988 158.39 180.438C157.938 180.502 157.495 180.533 157.054 180.533ZM189.336 67.3532C188.466 68.1274 187.727 69.0799 187.192 70.193L148.959 148.942L154.647 155.108L193.971 74.1063C194.51 72.9973 195.24 72.0406 196.11 71.2669L189.336 67.3532Z" fill="#4ADE80"/>
<path d="M152.412 179.293C151.625 178.836 146.794 176.036 145.681 175.401C145.126 175.085 144.602 174.709 144.118 174.279C143.897 174.082 143.685 173.873 143.482 173.654L126.446 155.198C126.3 155.039 126.16 154.877 126.027 154.711C125.457 153.994 125.012 153.21 124.684 152.395L131.458 156.304C131.858 157.313 132.449 158.27 133.228 159.113L150.264 177.566C150.899 178.254 151.62 178.832 152.412 179.293Z" fill="#22C55E"/>
<path d="M154.647 155.107L148.959 148.942L187.192 70.1927C187.727 69.0796 188.466 68.127 189.336 67.3529L196.11 71.2666C195.24 72.0403 194.51 72.997 193.971 74.1059L154.647 155.107Z" fill="#22C55E"/>
<path d="M206.307 69.8384C201.72 67.621 196.185 69.5335 193.971 74.1069L154.646 155.107L146.785 146.588C143.35 142.858 137.5 142.62 133.745 146.074C130.012 149.523 129.779 155.373 133.227 159.112L150.263 177.567C151.899 179.34 154.13 180.389 156.542 180.519C157.151 180.552 157.762 180.527 158.39 180.438C161.415 179.988 164.017 178.08 165.343 175.339L210.574 82.1748C212.795 77.5901 210.882 72.0572 206.307 69.8384Z" fill="#BBF7D0"/>
<defs>
<clipPath id="clip0_3817_1661">
<rect width="301.69" height="291.166" fill="white" transform="translate(0.655273 -54)"/>
</clipPath>
<clipPath id="clip1_3817_1661">
<rect width="403.072" height="537.429" fill="white" transform="translate(-63.5947 -245)"/>
</clipPath>
</defs>
</svg>
