<svg width="76" height="76" viewBox="0 0 76 76" fill="none" xmlns="http://www.w3.org/2000/svg">
<rect width="76" height="76" rx="38" fill="#FCE9E9"/>
<path d="M38 23.375C35.1075 23.375 32.2799 24.2327 29.8748 25.8398C27.4697 27.4468 25.5952 29.7309 24.4883 32.4033C23.3813 35.0756 23.0917 38.0162 23.656 40.8532C24.2203 43.6902 25.6132 46.2961 27.6586 48.3414C29.7039 50.3868 32.3098 51.7797 35.1468 52.344C37.9838 52.9083 40.9244 52.6187 43.5968 51.5117C46.2691 50.4048 48.5532 48.5303 50.1602 46.1252C51.7673 43.7201 52.625 40.8926 52.625 38C52.6209 34.1225 51.0788 30.4049 48.3369 27.6631C45.5951 24.9213 41.8775 23.3791 38 23.375ZM36.875 31.25C36.875 30.9516 36.9935 30.6655 37.2045 30.4545C37.4155 30.2435 37.7016 30.125 38 30.125C38.2984 30.125 38.5845 30.2435 38.7955 30.4545C39.0065 30.6655 39.125 30.9516 39.125 31.25V39.125C39.125 39.4234 39.0065 39.7095 38.7955 39.9205C38.5845 40.1315 38.2984 40.25 38 40.25C37.7016 40.25 37.4155 40.1315 37.2045 39.9205C36.9935 39.7095 36.875 39.4234 36.875 39.125V31.25ZM38 45.875C37.6663 45.875 37.34 45.776 37.0625 45.5906C36.785 45.4052 36.5687 45.1416 36.441 44.8333C36.3132 44.5249 36.2798 44.1856 36.3449 43.8583C36.41 43.5309 36.5708 43.2303 36.8068 42.9943C37.0428 42.7583 37.3434 42.5975 37.6708 42.5324C37.9981 42.4673 38.3374 42.5007 38.6458 42.6285C38.9541 42.7562 39.2177 42.9725 39.4031 43.25C39.5885 43.5275 39.6875 43.8537 39.6875 44.1875C39.6875 44.6351 39.5097 45.0643 39.1932 45.3807C38.8768 45.6972 38.4476 45.875 38 45.875Z" fill="#D42620"/>
</svg>
