<svg width="121" height="120" viewBox="0 0 121 120" fill="none" xmlns="http://www.w3.org/2000/svg">
<g clip-path="url(#clip0_1211_8701)">
<path d="M56.7591 4.66346C58.8195 6.02963 62.191 6.02963 64.2483 4.66346L69.6891 1.04846C71.7483 -0.319586 74.5156 0.270804 75.8398 2.35885L79.3395 7.87815C80.6637 9.96502 83.7418 11.3354 86.1788 10.9231L92.6203 9.83166C95.0581 9.41893 97.3489 11.0814 97.7077 13.5271L98.663 19.9801C99.0254 22.4263 101.278 24.9343 103.673 25.5512L109.994 27.1815C112.39 27.8007 113.804 30.2558 113.139 32.6368L111.388 38.9103C110.723 41.2911 111.763 44.4981 113.7 46.0353L118.831 50.1057C120.768 51.643 121.062 54.4576 119.486 56.3638L115.32 61.3923C113.745 63.2966 113.393 66.6484 114.537 68.8395L117.562 74.623C118.707 76.8153 117.834 79.5083 115.619 80.6073L109.767 83.5119C107.553 84.6116 105.869 87.5312 106.024 89.9985L106.428 96.5127C106.584 98.9788 104.688 101.085 102.216 101.191L95.6932 101.467C93.2236 101.573 90.4978 103.555 89.6344 105.873L87.3652 111.987C86.5018 114.306 83.9159 115.459 81.6171 114.549L75.5398 112.147C73.2425 111.237 69.9455 111.937 68.2151 113.704L63.6509 118.366C61.9198 120.132 59.0897 120.132 57.3575 118.368L52.786 113.703C51.0544 111.938 47.7575 111.238 45.4587 112.148L39.3844 114.55C37.0859 115.46 34.4998 114.307 33.6382 111.987L31.3636 105.874C30.5014 103.556 27.7756 101.573 25.3048 101.467L18.784 101.191C16.3125 101.086 14.4183 98.979 14.5725 96.5131L14.9806 89.9989C15.1341 87.5324 13.4482 84.6121 11.2341 83.5124L5.3841 80.6077C3.17019 79.5085 2.2948 76.8163 3.44019 74.6235L6.4655 68.84C7.61019 66.6488 7.25816 63.2973 5.68011 61.3946L1.5141 56.3596C-0.0627778 54.4564 0.232535 51.6418 2.16871 50.1046L7.30105 46.0342C9.23722 44.4969 10.2783 41.2918 9.6141 38.9099L7.8591 32.6338C7.19441 30.253 8.6091 27.7996 11.0025 27.1841L17.3283 25.5503C19.7218 24.9341 21.9771 22.426 22.3383 19.9799L23.2929 13.5268C23.6548 11.0811 25.9444 9.41869 28.3814 9.83143L34.8237 10.9229C37.2614 11.3352 40.339 9.96479 41.6614 7.87791L45.1594 2.35862C46.4818 0.27057 49.2509 -0.319821 51.3118 1.04823L56.7591 4.66346Z" fill="#A2F6BE"/>
<path d="M99.325 60.0642C99.325 81.5065 81.9412 98.8884 60.5008 98.8884C39.0616 98.8884 21.6777 81.5065 21.6777 60.0642C21.6777 38.6285 39.0609 21.2461 60.5008 21.2461C81.9412 21.2461 99.325 38.6285 99.325 60.0642Z" fill="#12BA4A"/>
<path d="M54.0263 78.2027L38.4863 62.662L43.6637 57.4823L54.0263 67.8431L77.3352 44.5312L82.5125 49.7128L54.0263 78.2027Z" fill="white"/>
</g>
<defs>
<clipPath id="clip0_1211_8701">
<rect width="120" height="120" fill="white" transform="translate(0.5)"/>
</clipPath>
</defs>
</svg>
