<svg width="40" height="40" viewBox="0 0 40 40" fill="none" xmlns="http://www.w3.org/2000/svg">
<rect width="40" height="40" rx="20" fill="#FDF0E7"/>
<g opacity="0.4">
<mask id="path-2-inside-1_11769_21596" fill="white">
<path d="M26 26.6665H14C13.7267 26.6665 13.5 26.4398 13.5 26.1665C13.5 25.8932 13.7267 25.6665 14 25.6665H26C26.2733 25.6665 26.5 25.8932 26.5 26.1665C26.5 26.4398 26.2733 26.6665 26 26.6665Z"/>
</mask>
<path d="M26 26.6665H14C13.7267 26.6665 13.5 26.4398 13.5 26.1665C13.5 25.8932 13.7267 25.6665 14 25.6665H26C26.2733 25.6665 26.5 25.8932 26.5 26.1665C26.5 26.4398 26.2733 26.6665 26 26.6665Z" fill="#ED6810"/>
<path d="M26 25.6665H14V27.6665H26V25.6665ZM14 25.6665C14.279 25.6665 14.5 25.8876 14.5 26.1665H12.5C12.5 26.9921 13.1744 27.6665 14 27.6665V25.6665ZM14.5 26.1665C14.5 26.4455 14.279 26.6665 14 26.6665V24.6665C13.1744 24.6665 12.5 25.3409 12.5 26.1665H14.5ZM14 26.6665H26V24.6665H14V26.6665ZM26 26.6665C25.721 26.6665 25.5 26.4455 25.5 26.1665H27.5C27.5 25.3409 26.8256 24.6665 26 24.6665V26.6665ZM25.5 26.1665C25.5 25.8876 25.721 25.6665 26 25.6665V27.6665C26.8256 27.6665 27.5 26.9921 27.5 26.1665H25.5Z" fill="#ED6810" mask="url(#path-2-inside-1_11769_21596)"/>
</g>
<path opacity="0.4" d="M24.3268 14.6735L24.3268 14.6735L24.3286 14.6753C24.9402 15.2808 25.1652 15.7986 25.1604 16.2749L25.1604 16.2749V16.2799C25.1604 16.7374 24.9355 17.2506 24.3286 17.8513L24.3286 17.8513L24.3254 17.8545L23.6231 18.5626C22.1209 18.0878 20.9154 16.8833 20.4391 15.3816L21.1473 14.6735C21.758 14.0628 22.2853 13.8344 22.7463 13.8374C23.209 13.8404 23.7305 14.0772 24.3268 14.6735Z" fill="#ED6810" stroke="#ED6810"/>
<path d="M21.5929 19.8235C21.7586 19.9217 21.9268 20.0081 22.0915 20.0888L18.434 23.7463L18.4283 23.752C18.4281 23.7521 18.428 23.7522 18.4278 23.7523C18.4212 23.7569 18.4102 23.7637 18.3956 23.771C18.3811 23.7782 18.3666 23.7843 18.3542 23.7886C18.3469 23.7911 18.3419 23.7924 18.3395 23.7931L15.7912 24.1514L15.7912 24.1512L15.7787 24.1533C15.7255 24.1622 15.6729 24.1665 15.6209 24.1665C15.3799 24.1665 15.1779 24.0833 15.0408 23.9525C14.887 23.792 14.7955 23.5304 14.8422 23.2126L14.8426 23.2097L15.2003 20.6726C15.201 20.6701 15.2023 20.6661 15.2042 20.6607C15.2087 20.6481 15.2151 20.6328 15.2231 20.6168C15.2311 20.6008 15.239 20.5874 15.2455 20.5778C15.2481 20.574 15.2499 20.5715 15.2509 20.5703L18.9085 16.9127C18.9911 17.0758 19.0782 17.2407 19.1771 17.4076C19.2614 17.5502 19.3632 17.7128 19.4617 17.8393C19.5684 18.0001 19.6841 18.1384 19.7488 18.2158C19.7519 18.2195 19.7549 18.2231 19.7578 18.2266C19.7617 18.2317 19.7664 18.2377 19.7714 18.2442C19.7864 18.2638 19.8047 18.2876 19.8171 18.303C19.8283 18.3171 19.8446 18.337 19.8634 18.3573C19.8685 18.3627 19.8762 18.3709 19.8864 18.3809C20.1165 18.6558 20.3687 18.9011 20.5957 19.095C20.624 19.1228 20.6516 19.1485 20.6766 19.1703C20.6911 19.183 20.7074 19.1968 20.7243 19.21C20.7246 19.2102 20.725 19.2105 20.7254 19.2108C20.7286 19.2133 20.736 19.2191 20.7464 19.2266C20.8675 19.328 21.0081 19.4405 21.1391 19.5264C21.2847 19.6301 21.4341 19.7297 21.5929 19.8235ZM21.5929 19.8235C21.593 19.8235 21.5931 19.8236 21.5932 19.8237L21.8475 19.3932L21.5926 19.8233C21.5927 19.8234 21.5928 19.8234 21.5929 19.8235Z" fill="#ED6810" stroke="#ED6810"/>
</svg>
