<svg width="39" height="64" viewBox="0 0 39 64" fill="none" xmlns="http://www.w3.org/2000/svg">
<path fill-rule="evenodd" clip-rule="evenodd" d="M19.0149 0C29.5122 0 38.0218 8.50964 38.0218 19.0072C38.0218 29.5044 29.5122 38.0141 19.0149 38.0141C16.7573 38.0141 14.5919 37.6199 12.5829 36.8972V36.9513C12.5829 42.1281 10.987 58.5255 19.0149 64C4.9223 64 -0.228177 49.4322 0.00771083 36.4204V28.106C0.376055 28.4192 0.852581 28.6087 1.37132 28.6087H16.3523C17.3861 28.6087 18.2521 27.8556 18.4302 26.8712C18.6231 26.8854 18.818 26.8928 19.0149 26.8928C23.3698 26.8928 26.9008 23.3619 26.9008 19.0069C26.9008 14.652 23.3698 11.121 19.0149 11.121C18.818 11.121 18.6231 11.1287 18.4302 11.1429C18.2523 10.1585 17.3864 9.40543 16.3523 9.40543H2.60907C5.90913 3.77895 12.02 0 19.0146 0L19.0149 0Z" fill="#86C8E9"/>
<path fill-rule="evenodd" clip-rule="evenodd" d="M18.5356 12.3131C22.2449 12.3131 25.2521 15.3206 25.2521 19.0296C25.2521 22.7389 22.2447 25.7461 18.5356 25.7461C18.1214 25.7461 17.7153 25.7083 17.3216 25.6363C17.209 26.5189 16.4501 27.2076 15.5377 27.2076H2.77865C1.78945 27.2076 0.980469 26.3986 0.980469 25.4091V12.6503C0.980469 11.6609 1.78945 10.8516 2.77865 10.8516H15.5377C16.4501 10.8516 17.2087 11.54 17.3216 12.4229C17.7153 12.3509 18.1214 12.3131 18.5356 12.3131ZM12.5664 19.0296C12.5664 20.1048 11.6949 20.9763 10.6197 20.9763C9.79829 20.9763 9.09591 20.4676 8.80989 19.7481L7.77056 19.9647L7.2059 20.3333L5.75047 20.6325V17.4396L7.2059 17.7391L7.76792 18.1193L8.80355 18.3275C9.08509 17.5995 9.79222 17.0826 10.6197 17.0826C11.6949 17.0826 12.5664 17.9541 12.5664 19.0293V19.0296ZM18.5356 14.2878C21.1542 14.2878 23.2774 16.4111 23.2774 19.0296C23.2774 21.6481 21.1542 23.7714 18.5356 23.7714C18.1214 23.7714 17.7193 23.7181 17.3361 23.6183V14.4411C17.7193 14.3414 18.1214 14.2881 18.5356 14.2881V14.2878Z" fill="#03045B"/>
</svg>
