<svg width="177" height="64" viewBox="0 0 177 64" fill="none" xmlns="http://www.w3.org/2000/svg">
<path fill-rule="evenodd" clip-rule="evenodd" d="M19.0149 0C29.5122 0 38.0218 8.50965 38.0218 19.0072C38.0218 29.5045 29.5122 38.0141 19.0149 38.0141C16.7573 38.0141 14.5919 37.6199 12.5829 36.8972V36.9513C12.5829 42.1282 10.9871 58.5256 19.0149 64.0001C4.92231 64.0001 -0.228177 49.4323 0.00771083 36.4204V28.106C0.376055 28.4192 0.852582 28.6087 1.37132 28.6087H16.3523C17.3861 28.6087 18.2521 27.8556 18.4302 26.8712C18.6231 26.8854 18.8181 26.8928 19.0149 26.8928C23.3699 26.8928 26.9008 23.3619 26.9008 19.0069C26.9008 14.652 23.3699 11.121 19.0149 11.121C18.8181 11.121 18.6231 11.1287 18.4302 11.1429C18.2524 10.1585 17.3864 9.40544 16.3523 9.40544H2.60907C5.90913 3.77896 12.0201 0 19.0146 0L19.0149 0Z" fill="#86C8E9"/>
<path fill-rule="evenodd" clip-rule="evenodd" d="M18.5347 12.3131C22.244 12.3131 25.2512 15.3205 25.2512 19.0295C25.2512 22.7388 22.2437 25.746 18.5347 25.746C18.1204 25.746 17.7143 25.7083 17.3207 25.6362C17.208 26.5188 16.4492 27.2075 15.5367 27.2075H2.77768C1.78848 27.2075 0.979492 26.3985 0.979492 25.4091V12.6503C0.979492 11.6608 1.78848 10.8516 2.77768 10.8516H15.5367C16.4492 10.8516 17.2077 11.54 17.3207 12.4228C17.7143 12.3508 18.1204 12.3131 18.5347 12.3131ZM12.5654 19.0295C12.5654 20.1048 11.6939 20.9763 10.6187 20.9763C9.79732 20.9763 9.09494 20.4676 8.80892 19.748L7.76959 19.9646L7.20493 20.3333L5.7495 20.6325V17.4395L7.20493 17.739L7.76694 18.1192L8.80258 18.3274C9.08412 17.5994 9.79126 17.0825 10.6187 17.0825C11.6939 17.0825 12.5654 17.9541 12.5654 19.0293V19.0295ZM18.5347 14.2878C21.1532 14.2878 23.2764 16.411 23.2764 19.0295C23.2764 21.6481 21.1532 23.7713 18.5347 23.7713C18.1204 23.7713 17.7183 23.718 17.3352 23.6183V14.4411C17.7183 14.3413 18.1204 14.288 18.5347 14.288V14.2878Z" fill="#03045B"/>
<g clip-path="url(#clip0_7098_17318)">
<path d="M76.173 26.2651C75.7085 26.7146 75.341 27.2545 75.0933 27.8516C74.8456 28.4486 74.723 29.0901 74.7329 29.7365C74.7228 30.3806 74.8454 31.0198 75.0932 31.6145C75.341 32.2091 75.7085 32.7463 76.173 33.1927C77.0988 34.1037 78.3456 34.6142 79.6444 34.6142C80.9432 34.6142 82.19 34.1037 83.1158 33.1927C83.581 32.7469 83.949 32.2098 84.1969 31.615C84.4447 31.0202 84.5669 30.3807 84.5559 29.7365C84.5482 28.7687 84.2556 27.8247 83.7147 27.0222C83.1738 26.2197 82.4085 25.5942 81.5143 25.224C80.6202 24.8537 79.6368 24.755 78.6869 24.9401C77.737 25.1253 76.8626 25.5861 76.173 26.2651ZM70.1094 29.7365C70.1094 24.6734 74.2175 19.8338 79.6292 20.2166C87.3414 20.7585 89.3537 25.9012 89.1491 31.9307V38.9494H84.5711V37.2553C81.9675 39.442 76.5823 40.109 72.9365 36.4595C72.0355 35.5896 71.3224 34.5442 70.8414 33.3878C70.3603 32.2315 70.1215 30.9888 70.1397 29.7365H70.1094Z" fill="#03045B"/>
<path d="M61.1616 15.2354C62.1215 15.2193 63.0746 15.4004 63.9617 15.7674C64.8489 16.1344 65.6514 16.6795 66.3194 17.369C67.0087 18.0356 67.5538 18.8368 67.9208 19.7227C68.2878 20.6086 68.469 21.5605 68.4531 22.5193C68.4685 23.4774 68.287 24.4286 67.92 25.3138C67.553 26.199 67.0083 26.9995 66.3194 27.6657C65.653 28.3555 64.852 28.9012 63.9661 29.2688C63.0802 29.6365 62.1282 29.8183 61.1692 29.8032H54.2529V38.9478H49.6445V15.2354H61.1616ZM61.1616 25.1948C61.5152 25.1997 61.866 25.1315 62.1921 24.9946C62.5181 24.8577 62.8124 24.6549 63.0565 24.399C63.3096 24.1557 63.5109 23.8638 63.6485 23.5408C63.786 23.2178 63.8569 22.8703 63.8569 22.5193C63.8569 22.1682 63.786 21.8207 63.6485 21.4977C63.5109 21.1747 63.3096 20.8828 63.0565 20.6395C62.8124 20.3836 62.5181 20.1809 62.1921 20.0439C61.866 19.907 61.5152 19.8388 61.1616 19.8437H54.2529V25.1948H61.1616Z" fill="#03045B"/>
<path d="M109.572 20.4844L103.508 37.254C103.421 37.5042 103.296 37.8414 103.129 38.2735C102.962 38.7055 102.83 39.0958 102.705 39.4559C102.58 39.8159 102.451 40.157 102.326 40.4753C101.905 41.7034 101.149 42.7891 100.143 43.6094C99.1309 44.3261 97.9106 44.6885 96.6715 44.6403H91.4492V39.9637H96.0576C96.4993 40.009 96.9416 39.8828 97.293 39.6113C97.5954 39.2606 97.8201 38.8498 97.9524 38.4061L91.4492 20.4844H96.3759L96.5123 20.8937L98.2063 25.4982L100.545 31.9408L103.557 23.573L104.675 20.4882L109.572 20.4844Z" fill="#03045B"/>
<path d="M135.857 22.9757C135.692 23.2001 135.574 23.4551 135.509 23.7258C135.444 23.9965 135.433 24.2775 135.478 24.5522H141.163V28.5845H135.478V39.7946H130.877V24.1126C130.841 22.7794 131.265 21.4745 132.079 20.4176C132.885 19.3995 133.995 18.6642 135.247 18.3181C136.241 18.0923 137.261 18.0068 138.279 18.0642C139.259 18.112 140.233 18.2387 141.193 18.4432V22.6877C140.507 22.4534 139.798 22.2946 139.078 22.214C138.458 22.1448 137.831 22.1563 137.214 22.2481C136.684 22.3048 136.197 22.5658 135.857 22.9757Z" fill="#03045B"/>
<path d="M148.335 32.1437C148.252 32.7081 148.333 33.2843 148.57 33.8036C148.774 34.2325 149.131 34.5701 149.57 34.751C150.071 34.9415 150.608 35.0217 151.143 34.986C151.824 34.9493 152.497 34.8218 153.144 34.607V38.8174C151.044 39.2924 149.362 39.348 148.096 38.9842C146.84 38.6379 145.729 37.8964 144.928 36.8695C144.119 35.8173 143.695 34.52 143.726 33.1935V18.5195H148.331V20.4902H153.144V24.5187H148.331V32.1437H148.335Z" fill="#03045B"/>
<path d="M160.939 26.2651C160.473 26.714 160.105 27.2539 159.858 27.8511C159.61 28.4482 159.488 29.09 159.498 29.7365C159.487 30.3807 159.61 31.0202 159.858 31.615C160.105 32.2098 160.473 32.7469 160.939 33.1927C161.864 34.1037 163.111 34.6142 164.41 34.6142C165.709 34.6142 166.956 34.1037 167.881 33.1927C168.346 32.7463 168.713 32.2091 168.961 31.6145C169.209 31.0198 169.332 30.3806 169.322 29.7365C169.314 28.7687 169.021 27.8247 168.48 27.0222C167.939 26.2197 167.174 25.5942 166.28 25.224C165.386 24.8537 164.402 24.755 163.452 24.9401C162.503 25.1253 161.628 25.5861 160.939 26.2651ZM154.875 29.7365C154.875 24.6734 158.983 19.8338 164.395 20.2166C172.107 20.7585 174.119 25.9012 173.915 31.9307V38.9494H169.322V37.2553C166.718 39.442 161.333 40.109 157.683 36.4595C156.783 35.5889 156.071 34.5432 155.591 33.387C155.111 32.2307 154.872 30.9884 154.89 29.7365H154.875Z" fill="#03045B"/>
<path d="M114.397 36.2392L113.412 39.3734C113.378 39.4908 113.264 39.794 113.264 39.794H108.387C108.387 39.794 108.561 39.2331 108.633 39.0361C108.633 39.0361 114.018 21.4061 116.023 15.6002C116.106 15.3539 116.178 15.1758 116.178 15.1758H120.866C120.866 15.1758 120.965 15.46 121.018 15.6002L128.4 39.0361C128.438 39.146 128.647 39.794 128.647 39.794H123.777C123.777 39.794 123.648 39.4795 123.614 39.3734L122.629 36.2392H114.397ZM115.875 31.5589H121.151L118.498 23.1835L115.875 31.5589Z" fill="#03045B"/>
<path d="M174.145 44.4785V44.9307H172.564V44.4785H174.145ZM172.988 43.7852H173.552V46.5228C173.552 46.632 173.568 46.7143 173.601 46.7696C173.633 46.8236 173.675 46.8607 173.727 46.8807C173.78 46.8996 173.837 46.909 173.898 46.909C173.944 46.909 173.983 46.9059 174.017 46.8996C174.051 46.8933 174.077 46.8883 174.096 46.8845L174.198 47.3499C174.165 47.3625 174.119 47.375 174.059 47.3876C173.998 47.4014 173.923 47.4089 173.832 47.4102C173.684 47.4127 173.546 47.3863 173.418 47.3311C173.29 47.2758 173.186 47.1904 173.107 47.0748C173.028 46.9593 172.988 46.8142 172.988 46.6396V43.7852Z" fill="#03045B"/>
<path d="M172.172 45.1856L171.661 45.2761C171.64 45.2108 171.606 45.1486 171.559 45.0895C171.514 45.0305 171.453 44.9821 171.375 44.9445C171.297 44.9068 171.2 44.8879 171.083 44.8879C170.923 44.8879 170.79 44.9237 170.683 44.9953C170.577 45.0657 170.523 45.1567 170.523 45.2685C170.523 45.3652 170.559 45.4431 170.631 45.5022C170.702 45.5612 170.818 45.6096 170.977 45.6472L171.437 45.7527C171.703 45.8143 171.902 45.9091 172.032 46.0372C172.163 46.1654 172.228 46.3318 172.228 46.5365C172.228 46.7099 172.178 46.8644 172.078 47C171.978 47.1344 171.839 47.2399 171.661 47.3166C171.484 47.3932 171.279 47.4315 171.045 47.4315C170.721 47.4315 170.457 47.3624 170.252 47.2242C170.047 47.0848 169.921 46.887 169.875 46.6307L170.42 46.5478C170.453 46.6898 170.523 46.7972 170.629 46.87C170.734 46.9416 170.872 46.9774 171.041 46.9774C171.226 46.9774 171.373 46.9391 171.484 46.8625C171.595 46.7846 171.65 46.6898 171.65 46.578C171.65 46.4875 171.616 46.4116 171.548 46.35C171.482 46.2885 171.379 46.242 171.241 46.2106L170.751 46.1032C170.481 46.0416 170.281 45.9437 170.152 45.8093C170.024 45.6749 169.96 45.5047 169.96 45.2987C169.96 45.1279 170.008 44.9784 170.103 44.8503C170.198 44.7221 170.33 44.6223 170.499 44.5507C170.667 44.4778 170.86 44.4414 171.077 44.4414C171.39 44.4414 171.636 44.5092 171.816 44.6449C171.995 44.7793 172.114 44.9595 172.172 45.1856Z" fill="#03045B"/>
<path d="M168.734 46.1743V44.4805H169.299V47.3745H168.745V46.8733H168.715C168.648 47.0278 168.541 47.1565 168.394 47.2595C168.249 47.3613 168.067 47.4121 167.85 47.4121C167.664 47.4121 167.5 47.3713 167.356 47.2897C167.214 47.2068 167.103 47.0843 167.021 46.9223C166.941 46.7602 166.9 46.5599 166.9 46.3212V44.4805H167.464V46.2534C167.464 46.4506 167.518 46.6076 167.628 46.7244C167.737 46.8413 167.879 46.8997 168.053 46.8997C168.159 46.8997 168.264 46.8733 168.368 46.8205C168.474 46.7678 168.561 46.688 168.63 46.5813C168.7 46.4745 168.735 46.3388 168.734 46.1743Z" fill="#03045B"/>
<path d="M164.918 47.3748V44.4808H165.462V44.9406H165.493C165.545 44.7848 165.638 44.6623 165.771 44.5732C165.906 44.4827 166.058 44.4375 166.227 44.4375C166.263 44.4375 166.304 44.4388 166.352 44.4413C166.401 44.4438 166.439 44.4469 166.467 44.4507V44.9895C166.444 44.9833 166.404 44.9764 166.346 44.9688C166.288 44.96 166.231 44.9556 166.173 44.9556C166.04 44.9556 165.921 44.9839 165.817 45.0404C165.714 45.0957 165.632 45.1729 165.572 45.2722C165.511 45.3701 165.481 45.4819 165.481 45.6075V47.3748H164.918Z" fill="#03045B"/>
<path d="M161.67 44.0168V43.5156H164.656V44.0168H163.452V47.3743H162.872V44.0168H161.67Z" fill="#03045B"/>
<path d="M157.867 48.4597C157.783 48.4597 157.707 48.4528 157.637 48.439C157.568 48.4264 157.517 48.4126 157.483 48.3975L157.619 47.9359C157.722 47.9636 157.813 47.9755 157.894 47.9717C157.974 47.968 158.045 47.9378 158.107 47.8813C158.169 47.8248 158.225 47.7324 158.272 47.6043L158.342 47.4121L157.283 44.4805H157.886L158.619 46.7263H158.649L159.382 44.4805H159.987L158.794 47.7607C158.739 47.9114 158.669 48.0389 158.583 48.1432C158.498 48.2487 158.396 48.3278 158.278 48.3806C158.16 48.4333 158.023 48.4597 157.867 48.4597Z" fill="#03045B"/>
<path d="M154.387 47.3743V43.5156H154.95V44.9494H154.984C155.017 44.8891 155.064 44.8194 155.125 44.7403C155.187 44.6612 155.272 44.5921 155.382 44.533C155.491 44.4728 155.635 44.4426 155.815 44.4426C156.049 44.4426 156.257 44.5016 156.44 44.6197C156.624 44.7378 156.768 44.908 156.872 45.1303C156.977 45.3526 157.03 45.6202 157.03 45.9329C157.03 46.2457 156.978 46.5139 156.874 46.7375C156.769 46.9598 156.626 47.1312 156.444 47.2518C156.262 47.3711 156.054 47.4308 155.821 47.4308C155.645 47.4308 155.501 47.4013 155.389 47.3423C155.279 47.2832 155.192 47.2141 155.129 47.135C155.066 47.0559 155.018 46.9855 154.984 46.924H154.937V47.3743H154.387ZM154.939 45.9273C154.939 46.1308 154.968 46.3091 155.027 46.4624C155.086 46.6156 155.172 46.7356 155.284 46.8222C155.395 46.9077 155.532 46.9504 155.694 46.9504C155.863 46.9504 156.003 46.9058 156.116 46.8166C156.229 46.7261 156.315 46.6037 156.373 46.4492C156.432 46.2947 156.461 46.1207 156.461 45.9273C156.461 45.7364 156.432 45.5649 156.374 45.4129C156.318 45.2609 156.233 45.141 156.118 45.0531C156.005 44.9651 155.864 44.9212 155.694 44.9212C155.531 44.9212 155.393 44.9632 155.28 45.0474C155.168 45.1316 155.083 45.249 155.025 45.3997C154.968 45.5505 154.939 45.7263 154.939 45.9273Z" fill="#03045B"/>
<path d="M150.807 47.4308C150.574 47.4308 150.365 47.3711 150.182 47.2518C150 47.1312 149.856 46.9598 149.752 46.7375C149.649 46.5139 149.598 46.2457 149.598 45.9329C149.598 45.6202 149.65 45.3526 149.754 45.1303C149.86 44.908 150.004 44.7378 150.187 44.6197C150.371 44.5016 150.579 44.4426 150.811 44.4426C150.991 44.4426 151.135 44.4728 151.244 44.533C151.355 44.5921 151.44 44.6612 151.501 44.7403C151.562 44.8194 151.61 44.8891 151.644 44.9494H151.678V43.5156H152.241V47.3743H151.691V46.924H151.644C151.61 46.9855 151.561 47.0559 151.497 47.135C151.434 47.2141 151.347 47.2832 151.237 47.3423C151.126 47.4013 150.983 47.4308 150.807 47.4308ZM150.932 46.9504C151.094 46.9504 151.231 46.9077 151.342 46.8222C151.455 46.7356 151.541 46.6156 151.599 46.4624C151.658 46.3091 151.687 46.1308 151.687 45.9273C151.687 45.7263 151.658 45.5505 151.6 45.3997C151.543 45.249 151.458 45.1316 151.346 45.0474C151.234 44.9632 151.096 44.9212 150.932 44.9212C150.762 44.9212 150.621 44.9651 150.508 45.0531C150.395 45.141 150.309 45.2609 150.251 45.4129C150.195 45.5649 150.167 45.7364 150.167 45.9273C150.167 46.1207 150.196 46.2947 150.253 46.4492C150.311 46.6037 150.397 46.7261 150.51 46.8166C150.624 46.9058 150.765 46.9504 150.932 46.9504Z" fill="#03045B"/>
<path d="M147.909 47.4315C147.623 47.4315 147.378 47.3706 147.172 47.2487C146.967 47.1256 146.809 46.9529 146.697 46.7306C146.587 46.507 146.531 46.2451 146.531 45.9449C146.531 45.6485 146.587 45.3872 146.697 45.1611C146.809 44.935 146.965 44.7586 147.164 44.6317C147.365 44.5048 147.6 44.4414 147.869 44.4414C148.032 44.4414 148.191 44.4684 148.344 44.5224C148.497 44.5764 148.635 44.6612 148.756 44.7768C148.878 44.8923 148.974 45.0424 149.045 45.2271C149.115 45.4105 149.15 45.6334 149.15 45.8959V46.0957H146.85V45.6736H148.598C148.598 45.5254 148.568 45.3941 148.508 45.2798C148.447 45.1643 148.363 45.0732 148.253 45.0066C148.145 44.9401 148.018 44.9068 147.873 44.9068C147.714 44.9068 147.576 44.9457 147.458 45.0236C147.341 45.1002 147.251 45.2007 147.187 45.3251C147.124 45.4481 147.093 45.5819 147.093 45.7264V46.0561C147.093 46.2495 147.127 46.4141 147.194 46.5497C147.264 46.6854 147.36 46.789 147.483 46.8606C147.606 46.9309 147.75 46.9661 147.914 46.9661C148.021 46.9661 148.118 46.951 148.206 46.9209C148.294 46.8895 148.37 46.843 148.434 46.7815C148.498 46.7199 148.547 46.6439 148.581 46.5535L149.114 46.6496C149.072 46.8066 148.995 46.9441 148.885 47.0622C148.775 47.179 148.638 47.2701 148.472 47.3354C148.307 47.3995 148.12 47.4315 147.909 47.4315Z" fill="#03045B"/>
<path d="M144.783 47.3748V44.4808H145.328V44.9406H145.358C145.411 44.7848 145.504 44.6623 145.637 44.5732C145.771 44.4827 145.923 44.4375 146.093 44.4375C146.128 44.4375 146.169 44.4388 146.217 44.4413C146.266 44.4438 146.304 44.4469 146.332 44.4507V44.9895C146.309 44.9833 146.269 44.9764 146.211 44.9688C146.154 44.96 146.096 44.9556 146.038 44.9556C145.905 44.9556 145.786 44.9839 145.682 45.0404C145.579 45.0957 145.497 45.1729 145.437 45.2722C145.377 45.3701 145.347 45.4819 145.347 45.6075V47.3748H144.783Z" fill="#03045B"/>
<path d="M142.969 47.4315C142.684 47.4315 142.438 47.3706 142.232 47.2487C142.028 47.1256 141.869 46.9529 141.758 46.7306C141.647 46.507 141.592 46.2451 141.592 45.9449C141.592 45.6485 141.647 45.3872 141.758 45.1611C141.869 44.935 142.025 44.7586 142.225 44.6317C142.426 44.5048 142.661 44.4414 142.93 44.4414C143.093 44.4414 143.251 44.4684 143.404 44.5224C143.558 44.5764 143.695 44.6612 143.817 44.7768C143.939 44.8923 144.035 45.0424 144.105 45.2271C144.176 45.4105 144.211 45.6334 144.211 45.8959V46.0957H141.91V45.6736H143.659C143.659 45.5254 143.629 45.3941 143.568 45.2798C143.508 45.1643 143.423 45.0732 143.314 45.0066C143.206 44.9401 143.079 44.9068 142.933 44.9068C142.775 44.9068 142.637 44.9457 142.519 45.0236C142.402 45.1002 142.312 45.2007 142.247 45.3251C142.185 45.4481 142.153 45.5819 142.153 45.7264V46.0561C142.153 46.2495 142.187 46.4141 142.255 46.5497C142.324 46.6854 142.42 46.789 142.543 46.8606C142.666 46.9309 142.81 46.9661 142.975 46.9661C143.082 46.9661 143.179 46.951 143.267 46.9209C143.355 46.8895 143.431 46.843 143.495 46.7815C143.559 46.7199 143.608 46.6439 143.642 46.5535L144.175 46.6496C144.132 46.8066 144.056 46.9441 143.945 47.0622C143.836 47.179 143.698 47.2701 143.532 47.3354C143.368 47.3995 143.18 47.4315 142.969 47.4315Z" fill="#03045B"/>
<path d="M138.111 47.3745L137.26 44.4805H137.842L138.409 46.6057H138.437L139.006 44.4805H139.589L140.154 46.5963H140.182L140.745 44.4805H141.328L140.478 47.3745H139.903L139.315 45.285H139.272L138.684 47.3745H138.111Z" fill="#03045B"/>
<path d="M135.648 47.4315C135.377 47.4315 135.14 47.3693 134.938 47.245C134.735 47.1206 134.578 46.9466 134.467 46.7231C134.355 46.4995 134.299 46.2382 134.299 45.9393C134.299 45.6391 134.355 45.3766 134.467 45.1517C134.578 44.9269 134.735 44.7523 134.938 44.6279C135.14 44.5036 135.377 44.4414 135.648 44.4414C135.919 44.4414 136.156 44.5036 136.358 44.6279C136.56 44.7523 136.717 44.9269 136.829 45.1517C136.941 45.3766 136.997 45.6391 136.997 45.9393C136.997 46.2382 136.941 46.4995 136.829 46.7231C136.717 46.9466 136.56 47.1206 136.358 47.245C136.156 47.3693 135.919 47.4315 135.648 47.4315ZM135.65 46.9586C135.826 46.9586 135.971 46.9121 136.087 46.8192C136.202 46.7262 136.288 46.6025 136.343 46.448C136.4 46.2935 136.428 46.1233 136.428 45.9374C136.428 45.7527 136.4 45.5832 136.343 45.4287C136.288 45.2729 136.202 45.1479 136.087 45.0537C135.971 44.9595 135.826 44.9124 135.65 44.9124C135.473 44.9124 135.326 44.9595 135.209 45.0537C135.093 45.1479 135.007 45.2729 134.951 45.4287C134.895 45.5832 134.868 45.7527 134.868 45.9374C134.868 46.1233 134.895 46.2935 134.951 46.448C135.007 46.6025 135.093 46.7262 135.209 46.8192C135.326 46.9121 135.473 46.9586 135.65 46.9586Z" fill="#03045B"/>
<path d="M131.17 47.3743V43.5156H132.545C132.846 43.5156 133.094 43.5703 133.291 43.6795C133.489 43.7888 133.636 43.9383 133.734 44.128C133.832 44.3164 133.881 44.5286 133.881 44.7648C133.881 45.0022 133.832 45.2157 133.732 45.4054C133.634 45.5938 133.486 45.7433 133.288 45.8538C133.09 45.9631 132.842 46.0177 132.543 46.0177H131.598V45.5241H132.491C132.68 45.5241 132.834 45.4914 132.952 45.4261C133.07 45.3595 133.157 45.2691 133.212 45.1548C133.268 45.0405 133.295 44.9105 133.295 44.7648C133.295 44.6191 133.268 44.4897 133.212 44.3767C133.157 44.2636 133.07 44.1751 132.95 44.111C132.832 44.0469 132.677 44.0149 132.483 44.0149H131.752V47.3743H131.17Z" fill="#03045B"/>
</g>
<defs>
<clipPath id="clip0_7098_17318">
<rect width="126.472" height="33.5545" fill="white" transform="translate(49.6445 15.1602)"/>
</clipPath>
</defs>
</svg>
