<svg width="40" height="40" viewBox="0 0 40 40" fill="none" xmlns="http://www.w3.org/2000/svg">
<rect width="40" height="40" rx="20" fill="#E9F5FB"/>
<path opacity="0.4" d="M10 14C10 11.7909 11.7909 10 14 10H26C28.2091 10 30 11.7909 30 14V26C30 28.2091 28.2091 30 26 30H14C11.7909 30 10 28.2091 10 26V14Z" fill="#1F7EAD"/>
<path fill-rule="evenodd" clip-rule="evenodd" d="M20 13.25C20.4142 13.25 20.75 13.5858 20.75 14V15.3089C21.8016 15.4757 22.7383 15.9876 23.4404 16.725L24.9551 15.8505C25.3138 15.6434 25.7725 15.7663 25.9796 16.125C26.1867 16.4837 26.0638 16.9424 25.7051 17.1495L24.2931 17.9647C24.5861 18.5816 24.75 19.2717 24.75 20C24.75 20.7283 24.5861 21.4184 24.2931 22.0352L25.7051 22.8504C26.0638 23.0575 26.1867 23.5162 25.9796 23.8749C25.7725 24.2337 25.3138 24.3566 24.9551 24.1495L23.4405 23.275C22.7384 24.0124 21.8016 24.5243 20.75 24.6911V26C20.75 26.4142 20.4142 26.75 20 26.75C19.5858 26.75 19.25 26.4142 19.25 26V24.6911C18.1984 24.5243 17.2616 24.0124 16.5595 23.275L15.0448 24.1495C14.6861 24.3566 14.2274 24.2337 14.0203 23.875C13.8132 23.5163 13.9361 23.0576 14.2948 22.8505L15.7069 22.0352C15.4139 21.4184 15.25 20.7283 15.25 20C15.25 19.2717 15.4139 18.5816 15.7069 17.9647L14.2948 17.1495C13.9361 16.9424 13.8132 16.4837 14.0203 16.1249C14.2274 15.7662 14.6861 15.6433 15.0448 15.8504L16.5595 16.725C17.2617 15.9876 18.1984 15.4757 19.25 15.3089V14C19.25 13.5858 19.5858 13.25 20 13.25ZM20 16.75C18.2051 16.75 16.75 18.2051 16.75 20C16.75 21.7949 18.2051 23.25 20 23.25C21.7949 23.25 23.25 21.7949 23.25 20C23.25 18.2051 21.7949 16.75 20 16.75Z" fill="#1F7EAD"/>
</svg>
