<svg width="22" height="22" viewBox="0 0 22 22" fill="none" xmlns="http://www.w3.org/2000/svg">
<path d="M13.6699 20.2614L11.0573 12.4235C10.7758 11.5792 11.5792 10.7758 12.4235 11.0573L20.2614 13.6699C21.2462 13.9982 21.2462 15.3911 20.2614 15.7193L17.3672 16.6841C17.0447 16.7916 16.7916 17.0447 16.6841 17.3672L15.7193 20.2614C15.3911 21.2462 13.9982 21.2462 13.6699 20.2614Z" fill="#1F7EAD"/>
<path opacity="0.4" fill-rule="evenodd" clip-rule="evenodd" d="M11 6.75C8.65279 6.75 6.75 8.65279 6.75 11C6.75 12.7835 7.84882 14.3122 9.40922 14.9425C9.79328 15.0976 9.97885 15.5347 9.82371 15.9188C9.66857 16.3029 9.23145 16.4884 8.84739 16.3333C6.7395 15.4818 5.25 13.4157 5.25 11C5.25 7.82436 7.82436 5.25 11 5.25C13.4157 5.25 15.4818 6.7395 16.3333 8.84739C16.4884 9.23145 16.3029 9.66857 15.9188 9.82371C15.5347 9.97885 15.0976 9.79328 14.9425 9.40922C14.3122 7.84882 12.7835 6.75 11 6.75Z" fill="#1F7EAD"/>
<path opacity="0.4" fill-rule="evenodd" clip-rule="evenodd" d="M11 1.75C5.89137 1.75 1.75 5.89137 1.75 11C1.75 16.0825 5.84923 20.2077 10.9218 20.2497C11.336 20.2531 11.669 20.5917 11.6655 21.0059C11.6621 21.4201 11.3236 21.7531 10.9094 21.7496C5.01395 21.7009 0.25 16.9068 0.25 11C0.25 5.06294 5.06294 0.25 11 0.25C16.9068 0.25 21.7009 5.01395 21.7496 10.9094C21.7531 11.3236 21.4201 11.6621 21.0059 11.6655C20.5917 11.669 20.2531 11.336 20.2497 10.9218C20.2077 5.84923 16.0825 1.75 11 1.75Z" fill="#1F7EAD"/>
</svg>
