<svg width="18" height="20" viewBox="0 0 18 20" fill="none" xmlns="http://www.w3.org/2000/svg">
<path opacity="0.4" d="M6.92154 0.571247C8.2077 -0.190416 9.7923 -0.190416 11.0785 0.571247L15.9215 3.43932C17.2077 4.20099 18 5.6086 18 7.13192V12.8681C18 14.3914 17.2077 15.799 15.9215 16.5607L11.0785 19.4288C9.7923 20.1904 8.20769 20.1904 6.92154 19.4288L2.07846 16.5607C0.792305 15.799 0 14.3914 0 12.8681V7.13192C0 5.6086 0.792305 4.20099 2.07846 3.43932L6.92154 0.571247Z" fill="#1F7EAD"/>
<path d="M6.92155 19.4281C8.20771 20.1898 9.79232 20.1898 11.0785 19.4281L15.301 16.9275C14.0431 14.6975 11.6924 13.1973 9.00001 13.1973C6.30764 13.1973 3.95688 14.6975 2.69897 16.9275L6.92155 19.4281Z" fill="#1F7EAD"/>
<circle cx="3" cy="3" r="3" transform="matrix(1 0 0 -1 6 11)" fill="#1F7EAD"/>
</svg>
