<svg width="40" height="40" viewBox="0 0 40 40" fill="none" xmlns="http://www.w3.org/2000/svg">
<rect width="40" height="40" rx="20" fill="#E9F5FB"/>
<path opacity="0.4" d="M22.0859 15L17.9141 15L16.513 13.393C15.1396 11.8176 16.7418 9.46298 18.7471 10.1098L19.6748 10.4091C19.8861 10.4773 20.1139 10.4773 20.3252 10.4091L21.2529 10.1098C23.2582 9.46298 24.8604 11.8176 23.487 13.393L22.0859 15Z" fill="#1F7EAD"/>
<path opacity="0.4" d="M13.6843 18.2103C14.4671 15.7055 16.7869 14 19.4112 14H20.5889C23.2132 14 25.533 15.7055 26.3158 18.2104L27.5658 22.2104C28.7731 26.0739 25.8867 30 21.8389 30H18.1612C14.1133 30 11.2269 26.0739 12.4343 22.2104L13.6843 18.2103Z" fill="#1F7EAD"/>
<path fill-rule="evenodd" clip-rule="evenodd" d="M23.6559 24.6362C23.8569 24.9983 23.7263 25.4549 23.3641 25.6559C22.1111 26.3514 21.0397 26.7518 19.9342 26.7473C18.8249 26.7428 17.7938 26.3312 16.6223 25.648C16.2645 25.4393 16.1436 24.9801 16.3522 24.6223C16.5609 24.2645 17.0201 24.1436 17.378 24.3523C18.4608 24.9838 19.2186 25.2444 19.9403 25.2473C20.6656 25.2503 21.467 24.9933 22.6361 24.3444C22.9983 24.1434 23.4549 24.274 23.6559 24.6362Z" fill="#1F7EAD"/>
</svg>
