<svg width="18" height="20" viewBox="0 0 18 20" fill="none" xmlns="http://www.w3.org/2000/svg">
<path opacity="0.4" d="M16 0H2C0.895431 0 0 0.895431 0 2V17.1543C0 18.5396 1.37412 19.5053 2.67744 19.0361L4.2392 18.4739C4.72721 18.2982 5.26439 18.319 5.73737 18.5318L8.17927 19.6307C8.70122 19.8655 9.29878 19.8655 9.82073 19.6307L12.2626 18.5318C12.7356 18.319 13.2728 18.2982 13.7608 18.4739L15.3226 19.0361C16.6259 19.5053 18 18.5396 18 17.1543V2C18 0.895431 17.1046 0 16 0Z" fill="#1F7EAD"/>
<path fill-rule="evenodd" clip-rule="evenodd" d="M14.75 5C14.75 5.41421 14.4142 5.75 14 5.75L4 5.75C3.58579 5.75 3.25 5.41421 3.25 5C3.25 4.58579 3.58579 4.25 4 4.25L14 4.25C14.4142 4.25 14.75 4.58579 14.75 5Z" fill="#1F7EAD"/>
<path fill-rule="evenodd" clip-rule="evenodd" d="M14.75 9C14.75 9.41421 14.4142 9.75 14 9.75L4 9.75C3.58579 9.75 3.25 9.41421 3.25 9C3.25 8.58579 3.58579 8.25 4 8.25L14 8.25C14.4142 8.25 14.75 8.58579 14.75 9Z" fill="#1F7EAD"/>
<path fill-rule="evenodd" clip-rule="evenodd" d="M9.75 13C9.75 13.4142 9.41421 13.75 9 13.75L4 13.75C3.58579 13.75 3.25 13.4142 3.25 13C3.25 12.5858 3.58579 12.25 4 12.25L9 12.25C9.41421 12.25 9.75 12.5858 9.75 13Z" fill="#1F7EAD"/>
</svg>
