<svg width="21" height="20" viewBox="0 0 21 20" fill="none" xmlns="http://www.w3.org/2000/svg">
<path d="M5.49935 3.33366H15.4993C17.3403 3.33366 18.8327 4.82604 18.8327 6.66699V10.8337C18.8327 12.6746 17.3403 14.167 15.4993 14.167H8.83268C6.99173 14.167 5.49935 12.6746 5.49935 10.8337V3.33366ZM5.49935 3.33366C5.49935 2.41318 4.75316 1.66699 3.83268 1.66699H2.16602" stroke="#999999" stroke-width="1.25" stroke-linecap="round" stroke-linejoin="round"/>
<path d="M9.66602 17.083C9.66602 17.7734 9.10637 18.333 8.41602 18.333C7.72566 18.333 7.16602 17.7734 7.16602 17.083C7.16602 16.3927 7.72566 15.833 8.41602 15.833C9.10637 15.833 9.66602 16.3927 9.66602 17.083Z" stroke="#999999" stroke-width="1.25"/>
<path d="M17.166 17.083C17.166 17.7734 16.6064 18.333 15.916 18.333C15.2257 18.333 14.666 17.7734 14.666 17.083C14.666 16.3927 15.2257 15.833 15.916 15.833C16.6064 15.833 17.166 16.3927 17.166 17.083Z" stroke="#999999" stroke-width="1.25"/>
<path d="M9.66602 7.08301H14.666" stroke="#999999" stroke-width="1.25" stroke-linecap="round" stroke-linejoin="round"/>
<path d="M9.66602 10.417H14.666" stroke="#999999" stroke-width="1.25" stroke-linecap="round" stroke-linejoin="round"/>
</svg>
