<svg width="41" height="41" viewBox="0 0 41 41" fill="none" xmlns="http://www.w3.org/2000/svg">
<rect width="41" height="41" rx="20.5" fill="#E6E7FE"/>
<path d="M23.2812 30.1473L20.5597 21.9829C20.2665 21.1033 21.1033 20.2665 21.9829 20.5597L30.1473 23.2812C31.1731 23.6231 31.1731 25.074 30.1473 25.4159L27.1325 26.4209C26.7965 26.5329 26.5329 26.7965 26.4209 27.1325L25.4159 30.1473C25.074 31.1731 23.6231 31.1731 23.2812 30.1473Z" fill="#070AC5"/>
<path opacity="0.4" fill-rule="evenodd" clip-rule="evenodd" d="M20.4993 16.0728C18.0543 16.0728 16.0723 18.0548 16.0723 20.4998C16.0723 22.3576 17.2169 23.95 18.8423 24.6066C19.2423 24.7682 19.4357 25.2235 19.274 25.6236C19.1124 26.0237 18.6571 26.217 18.257 26.0554C16.0613 25.1684 14.5098 23.0162 14.5098 20.4998C14.5098 17.1919 17.1914 14.5103 20.4993 14.5103C23.0158 14.5103 25.1679 16.0618 26.0549 18.2575C26.2165 18.6576 26.0232 19.1129 25.6231 19.2745C25.223 19.4361 24.7677 19.2428 24.6061 18.8428C23.9495 17.2174 22.3572 16.0728 20.4993 16.0728Z" fill="#070AC5"/>
<path opacity="0.4" fill-rule="evenodd" clip-rule="evenodd" d="M20.5007 10.8647C15.1792 10.8647 10.8652 15.1787 10.8652 20.5002C10.8652 25.7945 15.1353 30.0915 20.4192 30.1352C20.8506 30.1388 21.1975 30.4915 21.1939 30.9229C21.1903 31.3544 20.8377 31.7013 20.4062 31.6977C14.2652 31.6469 9.30273 26.6531 9.30273 20.5002C9.30273 14.3157 14.3162 9.30225 20.5007 9.30225C26.6536 9.30225 31.6474 14.2647 31.6982 20.4057C31.7017 20.8372 31.3549 21.1899 30.9234 21.1934C30.492 21.197 30.1393 20.8501 30.1357 20.4187C30.092 15.1348 25.795 10.8647 20.5007 10.8647Z" fill="#070AC5"/>
</svg>
