<svg width="121" height="121" viewBox="0 0 121 121" fill="none" xmlns="http://www.w3.org/2000/svg">
<g clip-path="url(#clip0_939_1997)">
<path d="M56.7591 5.16346C58.8195 6.52963 62.191 6.52963 64.2483 5.16346L69.6891 1.54846C71.7483 0.180414 74.5156 0.770804 75.8398 2.85885L79.3395 8.37815C80.6637 10.465 83.7418 11.8354 86.1788 11.4231L92.6203 10.3317C95.0581 9.91893 97.3489 11.5814 97.7077 14.0271L98.663 20.4801C99.0254 22.9263 101.278 25.4343 103.673 26.0512L109.994 27.6815C112.39 28.3007 113.804 30.7558 113.139 33.1368L111.388 39.4103C110.723 41.7911 111.763 44.9981 113.7 46.5353L118.831 50.6057C120.768 52.143 121.062 54.9576 119.486 56.8638L115.32 61.8923C113.745 63.7966 113.393 67.1484 114.537 69.3395L117.562 75.123C118.707 77.3153 117.834 80.0083 115.619 81.1073L109.767 84.0119C107.553 85.1116 105.869 88.0312 106.024 90.4985L106.428 97.0127C106.584 99.4788 104.688 101.585 102.216 101.691L95.6932 101.967C93.2236 102.073 90.4978 104.055 89.6344 106.373L87.3652 112.487C86.5018 114.806 83.9159 115.959 81.6171 115.049L75.5398 112.647C73.2425 111.737 69.9455 112.437 68.2151 114.204L63.6509 118.866C61.9198 120.632 59.0897 120.632 57.3575 118.868L52.786 114.203C51.0544 112.438 47.7575 111.738 45.4587 112.648L39.3844 115.05C37.0859 115.96 34.4998 114.807 33.6382 112.487L31.3636 106.374C30.5014 104.056 27.7756 102.073 25.3048 101.967L18.784 101.691C16.3125 101.586 14.4183 99.479 14.5725 97.0131L14.9806 90.4989C15.1341 88.0324 13.4482 85.1121 11.2341 84.0124L5.3841 81.1077C3.17019 80.0085 2.2948 77.3163 3.44019 75.1235L6.4655 69.34C7.61019 67.1488 7.25816 63.7973 5.68011 61.8946L1.5141 56.8596C-0.0627778 54.9564 0.232535 52.1418 2.16871 50.6046L7.30105 46.5342C9.23722 44.9969 10.2783 41.7918 9.6141 39.4099L7.8591 33.1338C7.19441 30.753 8.6091 28.2996 11.0025 27.6841L17.3283 26.0503C19.7218 25.4341 21.9771 22.926 22.3383 20.4799L23.2929 14.0268C23.6548 11.5811 25.9444 9.91869 28.3814 10.3314L34.8237 11.4229C37.2614 11.8352 40.339 10.4648 41.6614 8.37791L45.1594 2.85862C46.4818 0.77057 49.2509 0.180179 51.3118 1.54823L56.7591 5.16346Z" fill="#A2F6BE"/>
<path d="M99.325 60.5652C99.325 82.0075 81.9412 99.3894 60.5008 99.3894C39.0616 99.3894 21.6777 82.0075 21.6777 60.5652C21.6777 39.1295 39.0609 21.7471 60.5008 21.7471C81.9412 21.7471 99.325 39.1295 99.325 60.5652Z" fill="#12BA4A"/>
<path d="M54.0263 78.7018L38.4863 63.1611L43.6637 57.9814L54.0263 68.3422L77.3352 45.0303L82.5125 50.2118L54.0263 78.7018Z" fill="white"/>
</g>
<defs>
<clipPath id="clip0_939_1997">
<rect width="120" height="120" fill="white" transform="translate(0.5 0.5)"/>
</clipPath>
</defs>
</svg>
