<svg width="40" height="40" viewBox="0 0 40 40" fill="none" xmlns="http://www.w3.org/2000/svg">
<rect x="0.5" y="0.5" width="39" height="39" rx="3.5" fill="#E6E7FE"/>
<rect x="0.5" y="0.5" width="39" height="39" rx="3.5" stroke="#CECEFD"/>
<path opacity="0.4" d="M11.0329 18L28.9671 18C29.9872 18 30.3878 16.6486 29.539 16.0706L21.1438 10.3538C20.4512 9.88208 19.5488 9.88208 18.8562 10.3538L10.461 16.0706C9.61224 16.6486 10.0128 18 11.0329 18Z" fill="#03045B"/>
<rect x="14" y="18" width="4" height="8" fill="#03045B"/>
<rect x="22" y="18" width="4" height="8" fill="#03045B"/>
<path opacity="0.4" d="M27.3815 26C27.7603 26 28.1066 26.214 28.2759 26.5528L29.2759 28.5528C29.6084 29.2177 29.1249 30 28.3815 30L11.6176 30C10.8742 30 10.3907 29.2177 10.7232 28.5528L11.7232 26.5528C11.8926 26.214 12.2388 26 12.6176 26L27.3815 26Z" fill="#03045B"/>
</svg>
