<svg width="40" height="40" viewBox="0 0 40 40" fill="none" xmlns="http://www.w3.org/2000/svg">
<rect x="0.5" y="0.5" width="39" height="39" rx="3.5" fill="#E6E7FE"/>
<rect x="0.5" y="0.5" width="39" height="39" rx="3.5" stroke="#CECEFD"/>
<path opacity="0.4" d="M10 16C10 13.7909 11.7909 12 14 12H26C28.2091 12 30 13.7909 30 16V24C30 26.2091 28.2091 28 26 28H14C11.7909 28 10 26.2091 10 24V16Z" fill="#03045B"/>
<circle cx="1" cy="1" r="1" transform="matrix(1 0 0 -1 13 17)" fill="#03045B"/>
<circle cx="2" cy="2" r="2" transform="matrix(1 0 0 -1 18 22)" fill="#03045B"/>
<path fill-rule="evenodd" clip-rule="evenodd" d="M27 21.25C27.4142 21.25 27.75 21.5858 27.75 22V24.25H30C30.4142 24.25 30.75 24.5858 30.75 25C30.75 25.4142 30.4142 25.75 30 25.75H27.75V28C27.75 28.4142 27.4142 28.75 27 28.75C26.5858 28.75 26.25 28.4142 26.25 28V25.75H24C23.5858 25.75 23.25 25.4142 23.25 25C23.25 24.5858 23.5858 24.25 24 24.25H26.25V22C26.25 21.5858 26.5858 21.25 27 21.25Z" fill="#03045B"/>
</svg>
