<svg width="18" height="18" viewBox="0 0 18 18" fill="none" xmlns="http://www.w3.org/2000/svg">
<path fill-rule="evenodd" clip-rule="evenodd" d="M8.99935 17.3332C13.6017 17.3332 17.3327 13.6022 17.3327 8.99984C17.3327 4.39746 13.6017 0.666504 8.99935 0.666504C4.39698 0.666504 0.666016 4.39746 0.666016 8.99984C0.666016 13.6022 4.39698 17.3332 8.99935 17.3332ZM12.826 6.88358C13.038 6.61111 12.9889 6.21844 12.7164 6.00652C12.4439 5.7946 12.0513 5.84369 11.8393 6.11615L8.50017 10.4094C8.42592 10.5048 8.28625 10.5172 8.19636 10.4363L6.08412 8.53531C5.82756 8.3044 5.43237 8.32519 5.20146 8.58176C4.97055 8.83833 4.99135 9.23351 5.24792 9.46442L7.36015 11.3654C7.98943 11.9318 8.9671 11.8451 9.48686 11.1768L12.826 6.88358Z" fill="#12BA4A"/>
</svg>
