<svg width="49" height="48" viewBox="0 0 49 48" fill="none" xmlns="http://www.w3.org/2000/svg">
<path opacity="0.4" d="M4.40039 16C4.40039 11.5817 7.98211 8 12.4004 8H36.4004C40.8187 8 44.4004 11.5817 44.4004 16V32C44.4004 36.4183 40.8187 40 36.4004 40H12.4004C7.98211 40 4.40039 36.4183 4.40039 32V16Z" fill="#1F7EAD"/>
<circle cx="2" cy="2" r="2" transform="matrix(1 0 0 -1 10.4004 18)" fill="#1F7EAD"/>
<circle cx="4" cy="4" r="4" transform="matrix(1 0 0 -1 20.4004 28)" fill="#1F7EAD"/>
<path fill-rule="evenodd" clip-rule="evenodd" d="M38.4004 26.5C39.2288 26.5 39.9004 27.1716 39.9004 28V32.5H44.4004C45.2288 32.5 45.9004 33.1716 45.9004 34C45.9004 34.8284 45.2288 35.5 44.4004 35.5H39.9004V40C39.9004 40.8284 39.2288 41.5 38.4004 41.5C37.572 41.5 36.9004 40.8284 36.9004 40V35.5H32.4004C31.572 35.5 30.9004 34.8284 30.9004 34C30.9004 33.1716 31.572 32.5 32.4004 32.5H36.9004V28C36.9004 27.1716 37.572 26.5 38.4004 26.5Z" fill="#1F7EAD"/>
</svg>
