<svg width="432" height="226" viewBox="0 0 432 226" fill="none" xmlns="http://www.w3.org/2000/svg">
<g clip-path="url(#clip0_6324_16126)">
<path d="M233.312 121.476H258.422C260.364 121.476 261.938 119.902 261.938 117.96C261.938 116.018 260.364 114.444 258.422 114.444H233.312C231.371 114.444 229.797 116.018 229.797 117.96C229.797 119.902 231.371 121.476 233.312 121.476Z" fill="#CFDBFD"/>
<path d="M239.922 52.0349C241.863 52.0349 243.438 50.4609 243.438 48.5193V37.4629H258.422C260.363 37.4629 261.937 35.8888 261.937 33.9473C261.937 32.0057 260.363 30.4316 258.422 30.4316H239.922C237.98 30.4316 236.406 32.0057 236.406 33.9473V48.5193C236.406 50.4609 237.98 52.0349 239.922 52.0349Z" fill="#CFDBFD"/>
<path d="M254.873 79.2603H272.484C274.426 79.2603 276 77.6862 276 75.7446C276 73.8031 274.426 72.229 272.484 72.229H254.873C252.931 72.229 251.357 73.8031 251.357 75.7446C251.357 77.6862 252.931 79.2603 254.873 79.2603Z" fill="#CFDBFD"/>
<path d="M249.698 95.9119H264.49C266.431 95.9119 268.006 94.3378 268.006 92.3962C268.006 90.4547 266.431 88.8806 264.49 88.8806H249.698C247.757 88.8806 246.183 90.4547 246.183 92.3962C246.183 94.3378 247.757 95.9119 249.698 95.9119Z" fill="#CFDBFD"/>
<path d="M265.453 40.3367C268.982 40.3367 271.843 37.476 271.843 33.9471C271.843 30.4183 268.982 27.5576 265.453 27.5576C261.924 27.5576 259.063 30.4183 259.063 33.9471C259.063 37.476 261.924 40.3367 265.453 40.3367Z" fill="#FFE370"/>
<path d="M265.453 124.349C268.982 124.349 271.843 121.489 271.843 117.96C271.843 114.431 268.982 111.57 265.453 111.57C261.924 111.57 259.063 114.431 259.063 117.96C259.063 121.489 261.924 124.349 265.453 124.349Z" fill="#FFE370"/>
<path d="M254.906 33.9473C254.906 28.1317 259.638 23.4004 265.453 23.4004C271.269 23.4004 276 28.1317 276 33.9473C276 39.7628 271.269 44.4941 265.453 44.4941C259.638 44.4941 254.906 39.763 254.906 33.9473ZM261.938 33.9473C261.938 35.8858 263.515 37.4629 265.453 37.4629C267.392 37.4629 268.969 35.8858 268.969 33.9473C268.969 32.0087 267.392 30.4316 265.453 30.4316C263.515 30.4316 261.938 32.0087 261.938 33.9473Z" fill="#FFB54C"/>
<path d="M254.906 117.96C254.906 112.144 259.638 107.413 265.453 107.413C271.269 107.413 276 112.144 276 117.96C276 123.776 271.269 128.507 265.453 128.507C259.638 128.507 254.906 123.776 254.906 117.96ZM261.938 117.96C261.938 119.898 263.515 121.476 265.453 121.476C267.392 121.476 268.969 119.898 268.969 117.96C268.969 116.021 267.392 114.444 265.453 114.444C263.515 114.444 261.938 116.021 261.938 117.96Z" fill="#FFB54C"/>
<path d="M198.688 121.476H173.578C171.637 121.476 170.062 119.902 170.062 117.96C170.062 116.018 171.637 114.444 173.578 114.444H198.688C200.629 114.444 202.203 116.018 202.203 117.96C202.203 119.902 200.629 121.476 198.688 121.476Z" fill="#E8F1FD"/>
<path d="M192.078 52.0349C190.136 52.0349 188.562 50.4609 188.562 48.5193V37.4629H173.578C171.637 37.4629 170.062 35.8888 170.062 33.9473C170.062 32.0057 171.637 30.4316 173.578 30.4316H192.078C194.02 30.4316 195.594 32.0057 195.594 33.9473V48.5193C195.594 50.4609 194.02 52.0349 192.078 52.0349Z" fill="#E8F1FD"/>
<path d="M177.127 79.2603H159.516C157.574 79.2603 156 77.6862 156 75.7446C156 73.8031 157.574 72.229 159.516 72.229H177.127C179.068 72.229 180.642 73.8031 180.642 75.7446C180.642 77.6862 179.068 79.2603 177.127 79.2603Z" fill="#E8F1FD"/>
<path d="M182.301 95.9119H167.51C165.568 95.9119 163.994 94.3378 163.994 92.3962C163.994 90.4547 165.568 88.8806 167.51 88.8806H182.301C184.243 88.8806 185.817 90.4547 185.817 92.3962C185.817 94.3378 184.243 95.9119 182.301 95.9119Z" fill="#E8F1FD"/>
<path d="M166.547 40.3367C170.076 40.3367 172.936 37.476 172.936 33.9471C172.936 30.4183 170.076 27.5576 166.547 27.5576C163.018 27.5576 160.157 30.4183 160.157 33.9471C160.157 37.476 163.018 40.3367 166.547 40.3367Z" fill="#FFEFB2"/>
<path d="M166.547 124.349C170.076 124.349 172.936 121.489 172.936 117.96C172.936 114.431 170.076 111.57 166.547 111.57C163.018 111.57 160.157 114.431 160.157 117.96C160.157 121.489 163.018 124.349 166.547 124.349Z" fill="#FFEFB2"/>
<path d="M166.547 44.4941C160.731 44.4941 156 39.7628 156 33.9473C156 28.1317 160.731 23.4004 166.547 23.4004C172.362 23.4004 177.094 28.1317 177.094 33.9473C177.094 39.7628 172.362 44.4941 166.547 44.4941ZM166.547 30.4316C164.608 30.4316 163.031 32.0087 163.031 33.9473C163.031 35.8858 164.608 37.4629 166.547 37.4629C168.485 37.4629 170.062 35.8858 170.062 33.9473C170.062 32.0087 168.485 30.4316 166.547 30.4316Z" fill="#FFE370"/>
<path d="M166.547 128.507C160.731 128.507 156 123.776 156 117.96C156 112.144 160.731 107.413 166.547 107.413C172.362 107.413 177.094 112.144 177.094 117.96C177.094 123.776 172.362 128.507 166.547 128.507ZM166.547 114.444C164.608 114.444 163.031 116.021 163.031 117.96C163.031 119.898 164.608 121.476 166.547 121.476C168.485 121.476 170.062 119.898 170.062 117.96C170.062 116.021 168.485 114.444 166.547 114.444Z" fill="#FFE370"/>
<path d="M253.594 80.5253C249.469 95.2511 239.597 116.197 216 133.489C197.105 119.668 184.498 101.975 178.5 80.8535C175.05 68.7011 174.865 58.7097 175.01 54.2753C199.216 46.5621 211.01 38.3238 216 33.948C220.99 38.3238 232.784 46.5644 256.995 54.2753C257.145 58.6535 256.973 68.455 253.594 80.5253Z" fill="#94E671"/>
<path d="M253.594 80.5253C249.469 95.2511 239.597 116.197 216 133.489V33.948C220.99 38.3238 232.784 46.5644 256.995 54.2753C257.145 58.6535 256.973 68.455 253.594 80.5253Z" fill="#52CC7B"/>
<path d="M218.174 131.388L216 128.764C198.9 116.256 187.488 100.241 182.06 81.1254C178.938 70.1262 178.772 61.084 178.903 57.0715C200.81 50.0895 211.484 42.634 216 38.673L218.174 36.5119V33.4148L216 30.1348C214.875 30.1348 213.865 30.6738 213.204 31.5832C212.836 32.0285 204.34 41.952 174.516 51.0762C173.18 51.484 172.212 52.6465 172.052 54.0363C171.994 54.5402 170.684 66.5777 175.205 82.7238C177.853 92.1785 181.967 101.108 187.43 109.267C194.243 119.443 203.177 128.427 213.989 135.967C214.594 136.389 215.297 136.6 216 136.6L218.174 133.771V131.388Z" fill="#52CC7B"/>
<path d="M218.028 56.633L216 53.748C207.701 53.748 200.948 60.5004 200.948 68.7996V74.2441C200.948 76.1848 202.523 77.7598 204.464 77.7598C206.407 77.7598 207.979 76.1848 207.979 74.2441V68.7996C207.979 64.377 211.577 60.7793 216 60.7793L218.028 58.5328V56.633Z" fill="#404A80"/>
<path d="M256.795 82.7238C254.147 92.1785 250.034 101.108 244.57 109.267C237.757 119.443 228.823 128.427 218.011 135.967C217.406 136.389 216.703 136.6 216 136.6V128.764C237.356 113.113 246.291 94.1566 250.024 80.8277C253.083 69.9035 253.237 61.0324 253.102 57.0715C231.19 50.0918 220.516 42.634 216 38.673V30.1348C217.125 30.1348 218.135 30.6738 218.796 31.5832C219.164 32.0285 227.66 41.952 257.484 51.0762C258.82 51.484 259.788 52.6465 259.948 54.0363C260.006 54.5402 261.316 66.5777 256.795 82.7238Z" fill="#3D997A"/>
<path d="M231.052 68.7996V74.2441C231.052 76.1848 229.477 77.7598 227.536 77.7598C225.593 77.7598 224.02 76.1848 224.02 74.2441V68.7996C224.02 64.377 220.423 60.7793 216 60.7793V53.748C224.299 53.748 231.052 60.5004 231.052 68.7996Z" fill="#283366"/>
<path d="M219.145 77.7588L216 70.7285H203.062C199.528 70.7285 196.654 73.602 196.654 77.1363V97.2691C196.654 100.804 199.528 103.677 203.062 103.677H216L219.145 95.2863V77.7588Z" fill="#FFE370"/>
<path d="M235.345 77.1363V97.2691C235.345 100.804 232.472 103.677 228.938 103.677H216V70.7285H228.938C232.472 70.7285 235.345 73.602 235.345 77.1363Z" fill="#FFB54C"/>
<path d="M219.516 85.4941V88.9113C219.516 90.8543 217.941 92.427 216 92.427C214.059 92.427 212.484 90.8543 212.484 88.9113V85.4941C212.484 83.5512 214.059 81.9785 216 81.9785C217.941 81.9785 219.516 83.5509 219.516 85.4941Z" fill="#404A80"/>
<path d="M219.516 85.4941V88.9113C219.516 90.8543 217.941 92.427 216 92.427V81.9785C217.941 81.9785 219.516 83.5509 219.516 85.4941Z" fill="#283366"/>
</g>
<path d="M169.062 174.551C168.911 173.206 168.286 172.165 167.188 171.426C166.089 170.678 164.706 170.304 163.04 170.304C161.847 170.304 160.814 170.493 159.943 170.872C159.072 171.241 158.395 171.753 157.912 172.406C157.438 173.05 157.202 173.784 157.202 174.608C157.202 175.299 157.363 175.896 157.685 176.398C158.016 176.9 158.447 177.321 158.977 177.662C159.517 177.993 160.095 178.273 160.71 178.5C161.326 178.718 161.918 178.898 162.486 179.04L165.327 179.778C166.255 180.006 167.206 180.313 168.182 180.702C169.157 181.09 170.062 181.601 170.895 182.236C171.728 182.87 172.401 183.656 172.912 184.594C173.433 185.531 173.693 186.653 173.693 187.96C173.693 189.608 173.267 191.071 172.415 192.349C171.572 193.628 170.346 194.636 168.736 195.375C167.135 196.114 165.199 196.483 162.926 196.483C160.748 196.483 158.864 196.137 157.273 195.446C155.682 194.755 154.437 193.775 153.537 192.506C152.637 191.227 152.14 189.712 152.045 187.96H156.449C156.534 189.011 156.875 189.887 157.472 190.588C158.078 191.279 158.849 191.795 159.787 192.136C160.734 192.468 161.771 192.634 162.898 192.634C164.138 192.634 165.241 192.439 166.207 192.051C167.183 191.653 167.95 191.104 168.509 190.403C169.067 189.693 169.347 188.865 169.347 187.918C169.347 187.056 169.1 186.35 168.608 185.801C168.125 185.252 167.467 184.797 166.634 184.438C165.81 184.078 164.877 183.76 163.835 183.486L160.398 182.548C158.068 181.914 156.222 180.981 154.858 179.75C153.504 178.519 152.827 176.89 152.827 174.864C152.827 173.187 153.281 171.724 154.19 170.474C155.099 169.224 156.33 168.254 157.884 167.562C159.437 166.862 161.188 166.511 163.139 166.511C165.109 166.511 166.847 166.857 168.352 167.548C169.867 168.24 171.061 169.191 171.932 170.403C172.803 171.606 173.258 172.989 173.295 174.551H169.062ZM187.601 196.44C185.451 196.44 183.6 195.981 182.047 195.062C180.503 194.134 179.31 192.832 178.467 191.156C177.634 189.471 177.217 187.496 177.217 185.233C177.217 182.998 177.634 181.028 178.467 179.324C179.31 177.619 180.484 176.289 181.99 175.332C183.505 174.376 185.276 173.898 187.302 173.898C188.533 173.898 189.727 174.101 190.882 174.509C192.037 174.916 193.074 175.555 193.993 176.426C194.911 177.297 195.636 178.429 196.166 179.821C196.696 181.204 196.962 182.884 196.962 184.864V186.369H179.618V183.188H192.8C192.8 182.07 192.572 181.08 192.118 180.219C191.663 179.348 191.024 178.661 190.2 178.159C189.386 177.657 188.429 177.406 187.331 177.406C186.138 177.406 185.096 177.7 184.206 178.287C183.325 178.865 182.643 179.622 182.16 180.56C181.687 181.488 181.45 182.496 181.45 183.585V186.071C181.45 187.529 181.706 188.77 182.217 189.793C182.738 190.815 183.462 191.597 184.39 192.136C185.319 192.667 186.403 192.932 187.643 192.932C188.448 192.932 189.182 192.818 189.845 192.591C190.508 192.354 191.081 192.004 191.564 191.54C192.047 191.076 192.416 190.503 192.672 189.821L196.692 190.545C196.37 191.729 195.792 192.766 194.959 193.656C194.135 194.537 193.098 195.223 191.848 195.716C190.607 196.199 189.192 196.44 187.601 196.44ZM210.464 196.44C208.352 196.44 206.534 195.962 205.01 195.006C203.495 194.04 202.33 192.709 201.515 191.014C200.701 189.319 200.294 187.378 200.294 185.19C200.294 182.974 200.71 181.019 201.544 179.324C202.377 177.619 203.551 176.289 205.066 175.332C206.582 174.376 208.367 173.898 210.422 173.898C212.079 173.898 213.556 174.205 214.853 174.821C216.151 175.427 217.197 176.279 217.993 177.378C218.798 178.476 219.276 179.759 219.427 181.227H215.294C215.066 180.205 214.546 179.324 213.731 178.585C212.926 177.847 211.847 177.477 210.493 177.477C209.309 177.477 208.272 177.79 207.382 178.415C206.501 179.03 205.815 179.911 205.322 181.057C204.83 182.193 204.584 183.538 204.584 185.091C204.584 186.682 204.825 188.055 205.308 189.21C205.791 190.366 206.473 191.26 207.353 191.895C208.244 192.529 209.29 192.847 210.493 192.847C211.298 192.847 212.027 192.7 212.68 192.406C213.343 192.103 213.897 191.672 214.342 191.114C214.797 190.555 215.114 189.883 215.294 189.097H219.427C219.276 190.508 218.816 191.767 218.049 192.875C217.282 193.983 216.255 194.854 214.967 195.489C213.689 196.123 212.188 196.44 210.464 196.44ZM237.39 186.952V174.182H241.652V196H237.475V192.222H237.248C236.746 193.386 235.941 194.357 234.833 195.134C233.735 195.901 232.367 196.284 230.728 196.284C229.327 196.284 228.086 195.976 227.007 195.361C225.937 194.736 225.094 193.812 224.478 192.591C223.872 191.369 223.569 189.859 223.569 188.06V174.182H227.816V187.548C227.816 189.035 228.228 190.219 229.052 191.099C229.876 191.98 230.946 192.42 232.262 192.42C233.058 192.42 233.849 192.222 234.635 191.824C235.43 191.426 236.088 190.825 236.609 190.02C237.139 189.215 237.4 188.192 237.39 186.952ZM246.958 196V174.182H251.063V177.648H251.291C251.688 176.473 252.389 175.55 253.393 174.878C254.406 174.196 255.552 173.855 256.83 173.855C257.096 173.855 257.408 173.865 257.768 173.884C258.137 173.902 258.426 173.926 258.634 173.955V178.017C258.464 177.97 258.161 177.918 257.725 177.861C257.29 177.795 256.854 177.761 256.418 177.761C255.415 177.761 254.52 177.974 253.734 178.401C252.957 178.817 252.342 179.4 251.887 180.148C251.433 180.886 251.205 181.729 251.205 182.676V196H246.958ZM270.532 196.44C268.382 196.44 266.531 195.981 264.978 195.062C263.434 194.134 262.241 192.832 261.398 191.156C260.565 189.471 260.148 187.496 260.148 185.233C260.148 182.998 260.565 181.028 261.398 179.324C262.241 177.619 263.415 176.289 264.921 175.332C266.436 174.376 268.207 173.898 270.234 173.898C271.465 173.898 272.658 174.101 273.813 174.509C274.969 174.916 276.005 175.555 276.924 176.426C277.843 177.297 278.567 178.429 279.097 179.821C279.628 181.204 279.893 182.884 279.893 184.864V186.369H262.549V183.188H275.731C275.731 182.07 275.504 181.08 275.049 180.219C274.594 179.348 273.955 178.661 273.131 178.159C272.317 177.657 271.361 177.406 270.262 177.406C269.069 177.406 268.027 177.7 267.137 178.287C266.256 178.865 265.575 179.622 265.092 180.56C264.618 181.488 264.381 182.496 264.381 183.585V186.071C264.381 187.529 264.637 188.77 265.148 189.793C265.669 190.815 266.394 191.597 267.322 192.136C268.25 192.667 269.334 192.932 270.575 192.932C271.379 192.932 272.113 192.818 272.776 192.591C273.439 192.354 274.012 192.004 274.495 191.54C274.978 191.076 275.347 190.503 275.603 189.821L279.623 190.545C279.301 191.729 278.723 192.766 277.89 193.656C277.066 194.537 276.029 195.223 274.779 195.716C273.539 196.199 272.123 196.44 270.532 196.44Z" fill="#1A1A1A"/>
<defs>
<clipPath id="clip0_6324_16126">
<rect width="120" height="120" fill="white" transform="translate(156 20)"/>
</clipPath>
</defs>
</svg>
