<svg width="101" height="101" viewBox="0 0 101 101" fill="none" xmlns="http://www.w3.org/2000/svg">
<rect x="0.34375" y="0.308594" width="100" height="100" rx="50" fill="#F8D4D3"/>
<path d="M90.3438 50.3086C90.3438 72.4 72.4351 90.3086 50.3438 90.3086C28.2524 90.3086 10.3438 72.4 10.3438 50.3086C10.3438 28.2172 28.2524 10.3086 50.3438 10.3086C72.4351 10.3086 90.3438 28.2172 90.3438 50.3086Z" fill="#E4534E"/>
<path d="M50.3391 61.3867C53.172 61.3867 55.4673 63.6821 55.4673 66.5149C55.4673 69.3477 53.172 71.6431 50.3391 71.6431C47.5063 71.6431 45.2109 69.3477 45.2109 66.5149C45.2109 63.6821 47.5063 61.3867 50.3391 61.3867Z" fill="white"/>
<path d="M50.3408 56.6687C52.5973 56.6687 54.4434 54.8225 54.4434 52.5661V33.8994C54.4434 31.643 52.5973 29.7969 50.3408 29.7969C48.0844 29.7969 46.2383 31.643 46.2383 33.8994V52.5661C46.2383 54.8225 48.0844 56.6687 50.3408 56.6687Z" fill="white"/>
</svg>
