<svg width="48" height="49" viewBox="0 0 48 49" fill="none" xmlns="http://www.w3.org/2000/svg">
<rect y="0.28125" width="48" height="48" rx="24" fill="#86C8E9"/>
<path d="M27 25.2305H20C19.59 25.2305 19.25 24.8905 19.25 24.4805C19.25 24.0705 19.59 23.7305 20 23.7305H27C27.41 23.7305 27.75 24.0705 27.75 24.4805C27.75 24.8905 27.41 25.2305 27 25.2305Z" fill="white"/>
<path d="M24.38 29.2305H20C19.59 29.2305 19.25 28.8905 19.25 28.4805C19.25 28.0705 19.59 27.7305 20 27.7305H24.38C24.79 27.7305 25.13 28.0705 25.13 28.4805C25.13 28.8905 24.79 29.2305 24.38 29.2305Z" fill="white"/>
<path d="M26 19.0312H22C21.04 19.0312 19.25 19.0312 19.25 16.2812C19.25 13.5312 21.04 13.5312 22 13.5312H26C26.96 13.5312 28.75 13.5312 28.75 16.2812C28.75 17.2413 28.75 19.0312 26 19.0312ZM22 15.0312C21.01 15.0312 20.75 15.0312 20.75 16.2812C20.75 17.5312 21.01 17.5312 22 17.5312H26C27.25 17.5312 27.25 17.2713 27.25 16.2812C27.25 15.0312 26.99 15.0312 26 15.0312H22Z" fill="white"/>
<path d="M27 35.0317H21C15.38 35.0317 14.25 32.4517 14.25 28.2817V22.2817C14.25 17.7217 15.9 15.7717 19.96 15.5617C20.36 15.5417 20.73 15.8517 20.75 16.2717C20.77 16.6917 20.45 17.0317 20.04 17.0517C17.2 17.2117 15.75 18.0617 15.75 22.2817V28.2817C15.75 31.9817 16.48 33.5317 21 33.5317H27C31.52 33.5317 32.25 31.9817 32.25 28.2817V22.2817C32.25 18.0617 30.8 17.2117 27.96 17.0517C27.55 17.0317 27.23 16.6717 27.25 16.2617C27.27 15.8517 27.63 15.5317 28.04 15.5517C32.1 15.7717 33.75 17.7217 33.75 22.2717V28.2717C33.75 32.4517 32.62 35.0317 27 35.0317Z" fill="white"/>
</svg>
