<svg width="417" height="327" viewBox="0 0 417 327" fill="none" xmlns="http://www.w3.org/2000/svg">
<g id="No Chat History">
<path id="Fill 1" fill-rule="evenodd" clip-rule="evenodd" d="M225.759 0C187.626 0 152.578 13.2185 124.903 35.3342H80.1765C74.3655 35.3342 69.6111 40.1044 69.6111 45.9345C69.6111 51.7647 74.3655 56.5348 80.1765 56.5348H102.939H109.61C115.421 56.5348 120.175 61.3049 120.175 67.1351C120.175 70.0466 118.985 72.7037 117.069 74.6188C115.16 76.541 112.512 77.7353 109.61 77.7353H95.3787H87.5209H49.1846C43.3736 77.7353 38.6191 82.5055 38.6191 88.3356C38.6191 94.1658 43.3736 98.9359 49.1846 98.9359H76.6293C68.3446 118.47 63.7557 139.964 63.7557 162.538C63.7557 170.728 64.3615 178.777 65.5237 186.643C66.0097 189.929 66.5943 193.186 67.2775 196.409C87.211 193.349 108.356 190.89 130.431 189.095L132.093 190.614L133.657 188.84C160.176 186.77 188.012 185.667 216.722 185.667C277.72 185.667 334.801 190.642 383.606 199.292C385.487 191.109 386.755 182.692 387.354 174.085C387.628 170.269 387.762 166.417 387.762 162.538C387.762 72.7673 315.234 0 225.759 0Z" fill="#F2F2F2"/>
<path id="Fill 3" fill-rule="evenodd" clip-rule="evenodd" d="M17.1054 77.2441H10.7025C4.81611 77.2441 0 82.1106 0 88.0584C0 94.0063 4.81611 98.8728 10.7025 98.8728H17.1054C22.9917 98.8728 27.8079 94.0063 27.8079 88.0584C27.8079 82.1106 22.9917 77.2441 17.1054 77.2441Z" fill="#F2F2F2"/>
<g id="Group 7">
<mask id="mask0_11457_22652" style="mask-type:luminance" maskUnits="userSpaceOnUse" x="67" y="185" width="350" height="140">
<path id="Clip 6" fill-rule="evenodd" clip-rule="evenodd" d="M416.997 185.9V324.429H242.023H67.0488V185.9H416.997Z" fill="white"/>
</mask>
<g mask="url(#mask0_11457_22652)">
<path id="Fill 5" fill-rule="evenodd" clip-rule="evenodd" d="M416.997 239.459C416.997 245.253 412.244 249.993 406.434 249.993H338.965C336.064 249.993 333.417 251.179 331.508 253.09C329.593 254.993 328.402 257.633 328.402 260.526C328.402 266.319 333.155 271.06 338.965 271.06H351.5C354.401 271.06 357.049 272.246 358.958 274.156C360.873 276.059 362.063 278.7 362.063 281.593C362.063 287.386 357.31 292.126 351.5 292.126H322.678C295.601 312.407 261.955 324.429 225.492 324.429C147.616 324.429 82.5763 269.62 67.0488 196.574C86.9775 193.534 108.117 191.09 130.187 189.306L131.848 190.816L133.412 189.053C159.924 186.996 187.754 185.9 216.457 185.9C277.44 185.9 334.508 190.844 383.301 199.439C380.929 209.678 377.577 219.537 373.351 228.926H406.434C409.343 228.926 411.976 230.113 413.892 232.023C415.807 233.926 416.997 236.566 416.997 239.459Z" fill="#E8EBF2"/>
</g>
</g>
<path id="Fill 8" fill-rule="evenodd" clip-rule="evenodd" d="M386.216 173.604C385.618 182.375 384.352 190.952 382.474 199.292C333.733 190.477 276.727 185.408 215.811 185.408C187.139 185.408 159.34 186.53 132.855 188.64L151.222 167.36L179.793 186.005L218.47 175.326L285.005 185.408L313.89 175.326L321.205 185.408L338.659 172.452L354.97 187.402L380.694 166.849L386.216 173.604Z" fill="#E0E2EE"/>
<path id="Fill 10" fill-rule="evenodd" clip-rule="evenodd" d="M291.396 182.917C298.712 172.282 302.903 159.67 302.795 146.173C302.496 108.633 269.053 78.4669 228.1 78.7936C187.146 79.1211 154.19 109.82 154.49 147.36C154.79 184.9 188.233 215.066 229.186 214.74C243.818 214.623 257.428 210.627 268.866 203.828L299.463 211.032L291.396 182.917Z" fill="#D8DBEA"/>
<path id="Fill 12" fill-rule="evenodd" clip-rule="evenodd" d="M207.009 145.159C207.043 149.425 203.612 152.911 199.347 152.945C195.08 152.98 191.594 149.548 191.561 145.283C191.527 141.016 194.957 137.531 199.223 137.496C203.489 137.462 206.974 140.893 207.009 145.159Z" fill="#999999"/>
<path id="Fill 14" fill-rule="evenodd" clip-rule="evenodd" d="M234.818 145.159C234.852 149.425 231.421 152.911 227.155 152.945C222.889 152.979 219.403 149.548 219.369 145.283C219.335 141.016 222.765 137.53 227.032 137.496C231.297 137.462 234.783 140.893 234.818 145.159Z" fill="#999999"/>
<path id="Fill 16" fill-rule="evenodd" clip-rule="evenodd" d="M262.632 145.159C262.666 149.424 259.235 152.91 254.969 152.945C250.703 152.979 247.217 149.548 247.184 145.282C247.149 141.016 250.58 137.53 254.846 137.496C259.112 137.462 262.597 140.893 262.632 145.159Z" fill="#999999"/>
<path id="Fill 18" fill-rule="evenodd" clip-rule="evenodd" d="M132.863 188.479L131.365 190.023L129.773 188.7C130.798 188.62 131.831 188.546 132.863 188.479Z" fill="#F2F2F2"/>
<path id="Fill 28" fill-rule="evenodd" clip-rule="evenodd" d="M129.766 188.877C107.699 190.675 86.5608 193.138 66.6341 196.203C65.9511 192.975 65.3667 189.712 64.8809 186.421L99.0372 160.67L129.766 188.877Z" fill="#E0E2EE"/>
<path id="Fill 30" fill-rule="evenodd" clip-rule="evenodd" d="M284.259 241.777C284.259 244.763 257.283 247.184 224.008 247.184C190.732 247.184 163.758 244.763 163.758 241.777C163.758 238.792 190.732 236.37 224.008 236.37C257.283 236.37 284.259 238.792 284.259 241.777Z" fill="#D8DBEA"/>
<path id="Fill 32" fill-rule="evenodd" clip-rule="evenodd" d="M383.131 291.986C377.183 291.986 372.316 287.12 372.316 281.172C372.316 275.224 377.183 270.357 383.131 270.357C389.078 270.357 393.945 275.224 393.945 281.172C393.945 287.12 389.078 291.986 383.131 291.986Z" fill="#E1E3EF"/>
</g>
</svg>
