<svg width="48" height="49" viewBox="0 0 48 49" fill="none" xmlns="http://www.w3.org/2000/svg">
<rect y="0.640625" width="48" height="48" rx="24" fill="#86C8E9"/>
<g clip-path="url(#clip0_2425_25961)">
<path fill-rule="evenodd" clip-rule="evenodd" d="M15 12.6406C14.4477 12.6406 14 13.0883 14 13.6406V35.6406C14 36.1929 14.4477 36.6406 15 36.6406H33C33.5523 36.6406 34 36.1929 34 35.6406V16.6406L30 12.6406H15Z" fill="#F2F2F2"/>
<path fill-rule="evenodd" clip-rule="evenodd" d="M30 12.6406V16.6406H34L30 12.6406Z" fill="#B3B3B3"/>
<rect x="13" y="22.6406" width="22" height="10" rx="1" fill="#52B1E0"/>
<path d="M16.6641 30.5487V24.7305H18.8459C19.2929 24.7305 19.6679 24.8138 19.9709 24.9805C20.2758 25.1471 20.5059 25.3763 20.6612 25.668C20.8184 25.9577 20.897 26.2873 20.897 26.6566C20.897 27.0297 20.8184 27.3612 20.6612 27.6509C20.504 27.9407 20.272 28.1689 19.9652 28.3356C19.6584 28.5004 19.2805 28.5827 18.8317 28.5827H17.3857V27.7163H18.6896C18.951 27.7163 19.165 27.6708 19.3317 27.5799C19.4983 27.489 19.6214 27.364 19.701 27.2049C19.7824 27.0458 19.8232 26.863 19.8232 26.6566C19.8232 26.4502 19.7824 26.2683 19.701 26.1112C19.6214 25.954 19.4974 25.8318 19.3288 25.7447C19.1622 25.6557 18.9472 25.6112 18.6839 25.6112H17.718V30.5487H16.6641Z" fill="#F2F2F2"/>
<path d="M23.7841 30.5487H21.8125V24.7305H23.8239C24.4015 24.7305 24.8977 24.8469 25.3125 25.0799C25.7292 25.311 26.0492 25.6433 26.2727 26.0771C26.4962 26.5108 26.608 27.0297 26.608 27.6339C26.608 28.2399 26.4953 28.7608 26.2699 29.1964C26.0464 29.632 25.7235 29.9663 25.3011 30.1992C24.8807 30.4322 24.375 30.5487 23.7841 30.5487ZM22.8665 29.6367H23.733C24.1383 29.6367 24.4763 29.5629 24.7472 29.4151C25.018 29.2655 25.2216 29.043 25.358 28.7475C25.4943 28.4502 25.5625 28.079 25.5625 27.6339C25.5625 27.1888 25.4943 26.8195 25.358 26.5259C25.2216 26.2305 25.0199 26.0098 24.7528 25.864C24.4877 25.7163 24.1581 25.6424 23.7642 25.6424H22.8665V29.6367Z" fill="#F2F2F2"/>
<path d="M27.6094 30.5487V24.7305H31.3366V25.614H28.6634V27.1935H31.081V28.0771H28.6634V30.5487H27.6094Z" fill="#F2F2F2"/>
</g>
<defs>
<clipPath id="clip0_2425_25961">
<rect width="24" height="24" fill="white" transform="translate(12 12.6406)"/>
</clipPath>
</defs>
</svg>
