<svg width="18" height="18" viewBox="0 0 18 18" fill="none" xmlns="http://www.w3.org/2000/svg">
<g clip-path="url(#clip0_7196_21552)">
<path d="M9 7.36377V10.8492H13.8436C13.6309 11.9701 12.9927 12.9193 12.0354 13.5574L14.9563 15.8238C16.6581 14.253 17.64 11.9457 17.64 9.20477C17.64 8.5666 17.5827 7.9529 17.4763 7.36387L9 7.36377Z" fill="#4285F4"/>
<path d="M3.95596 10.7129L3.29719 11.2172L0.965332 13.0335C2.44624 15.9708 5.48147 17.9999 8.99962 17.9999C11.4296 17.9999 13.4668 17.1981 14.9559 15.8235L12.035 13.5572C11.2332 14.0972 10.2105 14.4245 8.99962 14.4245C6.65963 14.4245 4.67151 12.8454 3.95964 10.7181L3.95596 10.7129Z" fill="#34A853"/>
<path d="M0.965384 4.96631C0.351781 6.17717 0 7.54355 0 8.99989C0 10.4562 0.351781 11.8226 0.965384 13.0335C0.965384 13.0416 3.95998 10.7098 3.95998 10.7098C3.77998 10.1698 3.67359 9.59715 3.67359 8.9998C3.67359 8.40245 3.77998 7.82975 3.95998 7.28976L0.965384 4.96631Z" fill="#FBBC05"/>
<path d="M8.99981 3.58363C10.3253 3.58363 11.5034 4.0418 12.4443 4.92545L15.0216 2.34821C13.4589 0.891874 11.4298 0 8.99981 0C5.48165 0 2.44624 2.02091 0.965332 4.96637L3.95984 7.29001C4.67161 5.16271 6.65982 3.58363 8.99981 3.58363Z" fill="#EA4335"/>
</g>
<defs>
<clipPath id="clip0_7196_21552">
<rect width="18" height="18" fill="white"/>
</clipPath>
</defs>
</svg>
