<svg width="40" height="40" viewBox="0 0 40 40" fill="none" xmlns="http://www.w3.org/2000/svg">
<path opacity="0.4" d="M10 29.3334C10 28.7811 10.4477 28.3334 11 28.3334H15.6667C16.219 28.3334 16.6667 28.7811 16.6667 29.3334V35.6667C16.6667 36.219 16.219 36.6667 15.6667 36.6667H11C10.4477 36.6667 10 36.219 10 35.6667V29.3334Z" fill="#1A1A1A"/>
<path opacity="0.4" d="M23.334 29.3334C23.334 28.7811 23.7817 28.3334 24.334 28.3334H29.0007C29.5529 28.3334 30.0007 28.7811 30.0007 29.3334V35.6667C30.0007 36.219 29.5529 36.6667 29.0007 36.6667H24.334C23.7817 36.6667 23.334 36.219 23.334 35.6667V29.3334Z" fill="#1A1A1A"/>
<path d="M5 23.6666C5 22.5621 5.89543 21.6666 7 21.6666H33C34.1046 21.6666 35 22.5621 35 23.6666V29.6666C35 30.7712 34.1046 31.6666 33 31.6666H7C5.89543 31.6666 5 30.7712 5 29.6666V23.6666Z" fill="#1A1A1A"/>
<path fill-rule="evenodd" clip-rule="evenodd" d="M8.35019 7.92786C8.33945 8.06159 8.33398 8.1968 8.33398 8.3333V10.4279H6.66732C5.51672 10.4279 4.58398 11.3606 4.58398 12.5112V14.1779C4.58398 14.8682 4.02434 15.4279 3.33398 15.4279C2.64363 15.4279 2.08398 14.8682 2.08398 14.1779V12.5112C2.08398 9.97988 4.13601 7.92786 6.66732 7.92786H8.35019ZM31.6673 10.4279V8.3333C31.6673 8.1968 31.6619 8.06159 31.6511 7.92786H33.334C35.8653 7.92786 37.9173 9.97988 37.9173 12.5112V14.1779C37.9173 14.8682 37.3577 15.4279 36.6673 15.4279C35.977 15.4279 35.4173 14.8682 35.4173 14.1779V12.5112C35.4173 11.3606 34.4846 10.4279 33.334 10.4279H31.6673Z" fill="#1A1A1A"/>
<path opacity="0.4" d="M18.749 10.4277V21.667H8.33203V10.4277H18.749ZM31.666 10.4277V21.667H21.249V10.4277H31.666ZM28.666 3.33301C30.3226 3.33319 31.6658 4.67641 31.666 6.33301V7.92773H8.33203V6.33301C8.33221 4.67641 9.67544 3.33318 11.332 3.33301H28.666Z" fill="#1A1A1A"/>
</svg>
