<svg width="318" height="197" viewBox="0 0 318 197" fill="none" xmlns="http://www.w3.org/2000/svg">
<path d="M57.9335 165C63.6396 161.019 65.5591 156.113 66.2113 149.186C66.5136 145.71 66.0668 142.21 64.901 138.921C63.7352 135.632 61.8775 132.632 59.4533 130.122C55.3986 125.978 49.8187 123.254 46.7947 118.3C43.5761 113.041 43.6866 105.83 39.2163 101.56C36.145 98.6306 31.6537 97.847 27.9198 95.817C24.8748 94.1604 22.3714 91.6886 19.5841 89.627C16.7968 87.5654 13.4888 85.8562 10.0336 86.1139C4.82183 86.5084 0.761802 91.6255 0.514625 96.8477C0.267447 102.07 3.18098 107.066 7.16738 110.448C10.0599 112.904 13.6203 114.781 15.5136 118.068C19.0687 124.237 15.3558 132.794 19.1949 138.821C21.9823 143.212 28.309 145.31 29.1872 150.438C29.508 152.326 28.9716 154.246 28.9874 156.16C29.0347 162.139 34.6251 166.962 40.5153 168.019C46.4055 169.076 52.4061 167.236 57.9545 165" fill="#F5F5F5"/>
<path d="M21.3301 107.134C21.5127 107.389 21.7226 107.624 21.9559 107.833L23.8492 109.737C24.6854 110.547 25.6951 111.552 26.789 112.793C27.8829 114.034 29.224 115.354 30.5177 117C31.1856 117.799 31.8851 118.636 32.6214 119.509C33.3576 120.382 34.0255 121.349 34.7671 122.317C36.2817 124.236 37.7069 126.43 39.2531 128.701C42.4709 133.717 45.3302 138.954 47.8096 144.374C50.2165 149.834 52.234 155.458 53.8471 161.203C54.5202 163.869 55.2145 166.388 55.6457 168.797C55.8771 169.996 56.1716 171.142 56.3241 172.268C56.4766 173.393 56.6554 174.461 56.808 175.492C57.1656 177.543 57.2865 179.42 57.4706 181.066C57.6547 182.712 57.7493 184.127 57.8019 185.274C57.8545 186.42 57.9229 187.267 57.965 187.95C57.9683 188.266 58.0053 188.579 58.0754 188.887C58.1171 188.576 58.1294 188.263 58.1122 187.95C58.1122 187.262 58.1122 186.373 58.0807 185.263C58.0491 184.153 58.0281 182.665 57.8703 181.014C57.7125 179.362 57.6389 177.474 57.3128 175.408C57.1691 174.356 57.0201 173.272 56.8658 172.157C56.708 171.032 56.4451 169.87 56.2242 168.665C55.8192 166.236 55.1724 163.701 54.4834 161.013C52.8936 155.227 50.8756 149.566 48.446 144.079C45.9502 138.615 43.057 133.342 39.7895 128.302C38.2118 126.03 36.7708 123.837 35.2246 121.922C34.4673 120.955 33.7731 119.992 33.0368 119.125L30.9016 116.632C29.5763 115.017 28.2195 113.697 27.0783 112.493C25.937 111.289 24.9115 110.3 24.0438 109.516L22.0558 107.707C21.8312 107.495 21.5884 107.303 21.3301 107.134Z" fill="#E0E0E0"/>
<path d="M313.701 62.6795C313.701 62.6795 308.684 59.361 302.568 71.3622C296.451 83.3635 294.153 90.295 294.153 90.295C294.153 90.295 292.533 92.8088 290.808 91.1627C289.083 89.5166 286.717 84.8518 283.782 85.6985C280.737 86.5663 279.733 89.9637 280.311 94.9598C280.89 99.956 281.763 110.937 281.842 111.931C281.92 112.925 281.352 114.345 280.001 113.414C278.649 112.483 270.845 103.795 266.943 107.745C263.04 111.694 266.942 125.336 267.342 126.835C267.742 128.334 267.447 128.976 266.732 129.349C266.017 129.722 263.677 126.551 261.357 124.169C259.038 121.786 255.93 119.436 253.868 121.902C251.807 124.369 251.149 134.608 260.895 151.237L265.912 158.647L274.889 158.148C294.032 155.913 301.805 149.207 302.536 146.094C303.267 142.981 299.512 141.887 296.225 141.482C292.938 141.077 288.989 141.093 288.862 140.304C288.736 139.515 289.062 138.889 290.498 138.305C291.934 137.722 305.181 132.62 305.981 127.13C306.78 121.639 295.152 120.64 293.596 120.119C292.039 119.599 292.844 118.284 293.669 117.758C294.495 117.232 303.798 111.295 308.137 108.754C312.476 106.214 314.579 103.364 313.443 100.408C312.344 97.5578 307.196 98.4781 304.845 98.089C302.494 97.6998 303.525 94.8967 303.525 94.8967C303.525 94.8967 307.627 88.8593 313.522 76.7633C319.418 64.6674 313.596 62.6216 313.596 62.6216" fill="#EBEBEB"/>
<path d="M308.202 73.418C308.202 73.418 308.17 73.5074 308.091 73.6757C308.012 73.844 307.891 74.1017 307.744 74.4277C307.423 75.0956 306.961 76.058 306.372 77.2992C305.172 79.7973 303.421 83.3945 301.239 87.8174C296.868 96.6947 290.72 108.906 283.92 122.37C277.12 135.833 270.936 148.034 266.529 156.89L261.317 167.377C260.702 168.608 260.228 169.57 259.897 170.233C259.734 170.548 259.613 170.79 259.523 170.969L259.387 171.216C259.387 171.216 259.418 171.127 259.497 170.958L259.844 170.206C260.165 169.539 260.628 168.571 261.217 167.33C262.411 164.837 264.167 161.24 266.35 156.811C270.72 147.934 276.868 135.723 283.673 122.254C290.479 108.785 296.647 96.5948 301.06 87.7438L306.272 77.2518L307.692 74.4014C307.855 74.0859 307.976 73.8387 308.065 73.6651C308.154 73.4916 308.202 73.418 308.202 73.418Z" fill="#E0E0E0"/>
<path d="M286.809 92.3402C286.906 92.5345 286.982 92.7391 287.035 92.9503C287.166 93.3447 287.334 93.9232 287.561 94.6384C287.966 96.0689 288.476 98.0569 288.996 100.266C289.517 102.474 289.964 104.41 290.311 105.919L290.721 107.628C290.79 107.835 290.832 108.048 290.848 108.265C290.75 108.07 290.674 107.866 290.621 107.655C290.49 107.26 290.322 106.682 290.122 105.967C289.733 104.531 289.249 102.532 288.728 100.329C288.208 98.1252 287.729 96.1899 287.371 94.6858C287.203 94.0073 287.061 93.4394 286.951 92.9766C286.878 92.7708 286.831 92.5572 286.809 92.3402Z" fill="#E0E0E0"/>
<path d="M291.652 108.423C291.652 108.349 295.686 107.118 300.714 105.672C305.741 104.226 309.828 103.116 309.849 103.19C309.87 103.263 305.815 104.494 300.787 105.94C295.76 107.387 291.673 108.496 291.652 108.423Z" fill="#E0E0E0"/>
<path d="M280.248 128.628C280.468 128.597 280.689 128.587 280.911 128.596H282.704C284.224 128.596 286.317 128.596 288.626 128.502C290.935 128.407 293.022 128.27 294.537 128.149L296.325 128.007C296.545 127.985 296.767 127.985 296.988 128.007C296.777 128.074 296.561 128.118 296.341 128.139C295.92 128.202 295.289 128.281 294.553 128.365C293.043 128.538 290.956 128.717 288.636 128.801C286.317 128.885 284.219 128.864 282.704 128.801C281.941 128.77 281.331 128.738 280.905 128.707C280.684 128.706 280.463 128.679 280.248 128.628Z" fill="#E0E0E0"/>
<path d="M272.646 115.049C272.783 115.2 272.899 115.368 272.994 115.548L273.861 116.968C274.582 118.167 275.56 119.84 276.628 121.702C277.695 123.563 278.647 125.246 279.326 126.472L280.114 127.934C280.222 128.106 280.307 128.292 280.367 128.486C280.233 128.333 280.116 128.165 280.02 127.986L279.152 126.572C278.431 125.367 277.453 123.695 276.386 121.838C275.318 119.982 274.366 118.299 273.693 117.068C273.383 116.495 273.115 116.017 272.904 115.606C272.795 115.432 272.709 115.245 272.646 115.049Z" fill="#E0E0E0"/>
<path d="M260.336 131.61C260.503 131.812 260.651 132.028 260.778 132.257L261.893 134.066C262.823 135.602 264.096 137.748 265.485 140.098C266.873 142.449 268.114 144.611 269.008 146.167C269.429 146.919 269.776 147.545 270.06 148.024C270.199 148.247 270.315 148.483 270.407 148.729C270.242 148.526 270.094 148.31 269.965 148.082L268.85 146.267C267.92 144.732 266.647 142.586 265.258 140.24C263.87 137.895 262.629 135.728 261.735 134.166L260.683 132.31C260.545 132.088 260.429 131.854 260.336 131.61Z" fill="#E0E0E0"/>
<path d="M270.27 148.25C270.546 148.203 270.826 148.184 271.106 148.192L273.383 148.113C275.308 148.05 277.964 147.95 280.888 147.761C283.812 147.572 286.462 147.33 288.377 147.14L290.649 146.919C290.925 146.879 291.205 146.863 291.485 146.872C291.215 146.948 290.938 147.001 290.659 147.03C290.133 147.114 289.355 147.219 288.403 147.34C286.489 147.577 283.843 147.866 280.909 148.034C277.974 148.203 275.313 148.297 273.388 148.313C272.426 148.313 271.647 148.313 271.106 148.313C270.826 148.319 270.546 148.297 270.27 148.25Z" fill="#E0E0E0"/>
<path d="M205.578 2.29895H241.682C242.437 2.29895 243.16 2.59871 243.694 3.13228C244.227 3.66585 244.527 4.38953 244.527 5.14412V29.0678C244.527 29.8223 244.227 30.546 243.694 31.0796C243.16 31.6132 242.437 31.9129 241.682 31.9129H222.686L213.646 40.9533V31.9129H205.578C205.02 31.9129 204.485 31.6913 204.091 31.2968C203.696 30.9023 203.475 30.3672 203.475 29.8093V4.40785C203.474 4.13115 203.528 3.85703 203.633 3.6012C203.739 3.34537 203.893 3.11285 204.089 2.91695C204.284 2.72105 204.516 2.56563 204.772 2.45958C205.028 2.35354 205.302 2.29895 205.578 2.29895Z" fill="#E0E0E0"/>
<path d="M217.557 17.6085C217.557 18.0246 217.434 18.4313 217.202 18.7772C216.971 19.1232 216.643 19.3928 216.258 19.552C215.874 19.7113 215.451 19.7529 215.043 19.6717C214.635 19.5906 214.26 19.3902 213.966 19.096C213.672 18.8018 213.471 18.427 213.39 18.0189C213.309 17.6109 213.351 17.1879 213.51 16.8035C213.669 16.4191 213.939 16.0906 214.285 15.8594C214.63 15.6283 215.037 15.5049 215.453 15.5049C216.011 15.5049 216.546 15.7265 216.941 16.121C217.335 16.5155 217.557 17.0506 217.557 17.6085Z" fill="#FAFAFA"/>
<path d="M225.963 17.6085C225.963 18.0246 225.84 18.4313 225.609 18.7772C225.377 19.1232 225.049 19.3928 224.665 19.552C224.28 19.7113 223.857 19.7529 223.449 19.6717C223.041 19.5906 222.666 19.3902 222.372 19.096C222.078 18.8018 221.877 18.427 221.796 18.0189C221.715 17.6109 221.757 17.1879 221.916 16.8035C222.075 16.4191 222.345 16.0906 222.691 15.8594C223.037 15.6283 223.443 15.5049 223.86 15.5049C224.417 15.5049 224.952 15.7265 225.347 16.121C225.742 16.5155 225.963 17.0506 225.963 17.6085Z" fill="#FAFAFA"/>
<path d="M234.36 17.6085C234.36 18.0246 234.236 18.4313 234.005 18.7772C233.774 19.1232 233.445 19.3928 233.061 19.552C232.677 19.7113 232.254 19.7529 231.846 19.6717C231.438 19.5906 231.063 19.3902 230.768 19.096C230.474 18.8018 230.274 18.427 230.193 18.0189C230.112 17.6109 230.153 17.1879 230.312 16.8035C230.472 16.4191 230.741 16.0906 231.087 15.8594C231.433 15.6283 231.84 15.5049 232.256 15.5049C232.814 15.5049 233.349 15.7265 233.743 16.121C234.138 16.5155 234.36 17.0506 234.36 17.6085Z" fill="#FAFAFA"/>
<path d="M264.235 182.934C255.199 174.146 255.042 160.551 257.398 148.75C257.787 146.777 257.924 144.653 259.139 143.064C260.353 141.476 262.762 140.645 264.398 141.771C265.76 142.707 266.123 144.527 266.717 146.078C267.511 148.147 268.873 149.95 270.645 151.279C271.802 152.136 273.275 152.794 274.658 152.331C276.52 151.663 277.109 149.333 277.419 147.361C277.991 143.68 278.566 139.998 279.144 136.317C279.454 134.345 279.781 132.325 280.696 130.532C281.611 128.739 283.257 127.245 285.218 127.024C287.18 126.803 289.326 128.265 289.426 130.259C289.463 131.09 289.163 131.899 289.084 132.725C289.005 133.551 289.236 134.524 289.978 134.876C290.719 135.228 291.608 134.808 292.292 134.324C294.653 132.662 296.452 130.322 298.161 127.981C299.87 125.641 301.548 123.248 303.746 121.36C305.945 119.472 308.784 118.205 311.635 118.483C314.485 118.762 317.215 121.018 317.478 123.911C317.741 126.803 315.658 129.365 313.523 131.326C310.361 134.241 306.793 136.682 302.931 138.573C302.237 138.915 301.485 139.283 301.127 139.972C300.486 141.219 301.522 142.728 302.747 143.37C304.141 144.101 305.76 144.206 307.27 144.642C308.779 145.079 310.331 146.02 310.678 147.572C311.156 149.717 309.126 151.558 307.238 152.673C303.464 154.904 299.333 156.468 295.027 157.296C293.491 157.59 291.871 157.822 290.551 158.637C289.231 159.452 288.216 161.124 288.7 162.628C289.184 164.132 290.919 164.874 292.486 164.842C294.054 164.811 295.547 164.201 297.083 163.891C299.965 163.312 303.436 164.069 304.788 166.694C305.682 168.419 305.429 170.58 304.551 172.326C303.673 174.072 302.247 175.455 300.77 176.712C295.595 181.104 289.363 184.301 282.715 185.453C276.068 186.605 270.146 186.252 264.271 182.949" fill="#072F5F"/>
<path d="M262.654 191.716C264.104 186.295 266.071 181.025 268.529 175.98C271.555 169.831 274.934 163.86 278.647 158.099L281.54 153.545C282.492 152.051 283.438 150.574 284.453 149.185C286.403 146.518 288.499 143.962 290.733 141.528C292.836 139.188 294.94 137.047 296.917 135.059C298.895 133.071 300.772 131.262 302.555 129.679C305.35 127.168 308.34 124.882 311.496 122.842C312.616 122.122 313.499 121.591 314.125 121.265L314.814 120.865C314.891 120.818 314.972 120.777 315.056 120.744C314.986 120.801 314.912 120.854 314.835 120.902L314.162 121.328C313.573 121.696 312.7 122.248 311.595 122.984C308.472 125.059 305.509 127.363 302.729 129.879C300.962 131.457 299.1 133.292 297.138 135.285C295.177 137.279 293.094 139.424 290.99 141.765C288.77 144.19 286.684 146.736 284.743 149.39C283.738 150.773 282.802 152.246 281.845 153.74C280.888 155.233 279.936 156.753 278.958 158.278C275.254 164.032 271.874 169.987 268.834 176.117C266.372 181.139 264.388 186.381 262.907 191.773" fill="#263238"/>
<path d="M284.565 149.18C284.515 148.892 284.496 148.6 284.507 148.307C284.507 147.745 284.507 146.935 284.507 145.925C284.544 143.916 284.697 141.144 284.875 138.089C285.054 135.033 285.17 132.262 285.18 130.258C285.18 129.254 285.18 128.444 285.18 127.881C285.157 127.59 285.168 127.297 285.212 127.008C285.281 127.292 285.318 127.583 285.322 127.876C285.375 128.433 285.417 129.248 285.443 130.253C285.501 132.262 285.443 135.044 285.249 138.105C285.054 141.166 284.896 143.853 284.77 145.936C284.718 146.877 284.676 147.671 284.644 148.313C284.648 148.604 284.621 148.895 284.565 149.18Z" fill="#263238"/>
<path d="M310.703 148.576C310.352 148.593 310 148.577 309.651 148.528C308.989 148.481 308.032 148.407 306.854 148.355C304.487 148.223 301.216 148.165 297.603 148.255C293.99 148.344 290.724 148.576 288.363 148.807C287.185 148.912 286.259 149.028 285.575 149.102C285.228 149.161 284.876 149.188 284.523 149.181C284.852 149.073 285.19 148.997 285.533 148.954C286.185 148.839 287.111 148.686 288.315 148.544C290.677 148.244 293.948 147.976 297.577 147.882C300.669 147.794 303.763 147.864 306.848 148.092C308.032 148.181 308.989 148.292 309.646 148.386C310.004 148.413 310.358 148.476 310.703 148.576Z" fill="#263238"/>
<path d="M268.924 175.565C268.924 175.565 268.866 175.454 268.798 175.228C268.729 175.002 268.629 174.634 268.514 174.239C268.272 173.382 267.951 172.136 267.578 170.558C266.826 167.455 265.926 163.132 264.995 158.352C264.065 153.571 263.207 149.243 262.524 146.124C262.187 144.61 261.908 143.363 261.698 142.443C261.614 142.038 261.54 141.707 261.482 141.438C261.449 141.322 261.432 141.202 261.43 141.081C261.43 141.081 261.488 141.191 261.556 141.417C261.624 141.644 261.724 142.012 261.84 142.406C262.082 143.263 262.403 144.51 262.776 146.087C263.523 149.19 264.427 153.513 265.358 158.299C266.289 163.085 267.146 167.403 267.83 170.521L268.65 174.203C268.74 174.602 268.813 174.939 268.871 175.207C268.904 175.324 268.922 175.444 268.924 175.565Z" fill="#263238"/>
<path d="M304.395 170.196C304.28 170.239 304.16 170.267 304.038 170.28L302.986 170.448L299.183 171.027C295.975 171.521 291.552 172.252 286.667 173.062C281.781 173.872 277.379 174.582 274.145 174.992C272.536 175.208 271.231 175.365 270.327 175.455L269.275 175.555C269.155 175.574 269.032 175.574 268.912 175.555C269.027 175.511 269.147 175.483 269.27 175.471L270.322 175.302L274.119 174.724C277.327 174.229 281.755 173.498 286.641 172.689C291.526 171.879 295.96 171.184 299.183 170.758C300.793 170.543 302.097 170.385 303.002 170.296L304.053 170.196C304.167 170.181 304.282 170.181 304.395 170.196Z" fill="#263238"/>
<path d="M21.5882 141.45C24.4334 140.687 27.5468 141.407 30.0501 142.954C32.5178 144.593 34.5762 146.778 36.0665 149.338C39.0905 154.171 40.1265 160.645 40.2264 166.346C33.9155 166.052 28.5302 161.05 25.9638 158.342C21.909 154.061 17.1706 143.863 21.5882 141.471" fill="#072F5F"/>
<path d="M50.3825 170.185C47.795 168.155 46.6538 164.579 47.2271 161.339C47.5546 159.723 48.2009 158.187 49.1282 156.823C50.0555 155.458 51.2453 154.292 52.6282 153.393C53.8851 152.536 55.447 151.863 56.9038 152.304C57.5758 152.552 58.1691 152.975 58.6215 153.53C59.0739 154.085 59.3688 154.752 59.4755 155.46C59.6762 156.884 59.4947 158.336 58.9496 159.667C57.3245 164.269 54.9106 168.423 50.3825 170.227" fill="#072F5F"/>
<path d="M56.1254 188.218C55.8684 187.91 55.656 187.566 55.4943 187.198C55.1314 186.525 54.616 185.536 54.0217 184.3C52.4044 181.08 51.2264 177.658 50.5192 174.124C49.7724 169.917 50.3193 165.994 51.3711 163.422C51.7604 162.395 52.2801 161.423 52.9173 160.529C53.1279 160.186 53.3925 159.879 53.7009 159.62C53.8114 159.688 52.6859 161.013 51.7919 163.58C50.7053 166.949 50.4846 170.537 51.1503 174.014C51.8551 177.494 52.9562 180.882 54.4319 184.111C55.5206 186.625 56.2095 188.176 56.1254 188.218Z" fill="#263238"/>
<path d="M25.8789 148.897C26.3777 149.328 26.837 149.804 27.2515 150.317C28.1035 151.258 29.3131 152.641 30.7909 154.366C33.7413 157.811 37.7434 162.644 42.0349 168.087C46.3263 173.53 50.076 178.553 52.7371 182.234C54.0677 184.075 55.13 185.574 55.8452 186.625C56.2429 187.148 56.5948 187.704 56.8971 188.287C56.4379 187.815 56.0175 187.307 55.6401 186.768L52.369 182.502C49.6185 178.895 45.8056 173.92 41.5247 168.482C37.2438 163.044 33.2995 158.174 30.4385 154.655L27.0464 150.474C26.6149 149.981 26.2244 149.454 25.8789 148.897Z" fill="#263238"/>
<path d="M46.1112 177.212C43.3751 175.062 40.1661 173.595 36.7502 172.933C33.3342 172.271 29.8097 172.432 26.4685 173.404C24.7803 173.93 22.9028 174.945 22.7346 176.701C22.5663 178.458 24.2124 179.857 25.8006 180.63C29.1381 182.214 32.8699 182.775 36.5255 182.241C40.1811 181.708 43.597 180.104 46.3426 177.632" fill="#072F5F"/>
<path d="M30.6719 176.623C31.0204 176.46 31.3906 176.348 31.771 176.292C32.2067 176.181 32.6495 176.1 33.0963 176.05C33.6832 175.955 34.2749 175.893 34.8686 175.866C36.4195 175.777 37.9754 175.846 39.5124 176.071C43.2947 176.622 46.8963 178.048 50.0306 180.236C51.3038 181.125 52.4843 182.14 53.5542 183.265C53.9722 183.69 54.3639 184.139 54.727 184.611C55.0192 184.953 55.2863 185.315 55.5264 185.695C55.7638 185.995 55.9569 186.328 56.0996 186.684C55.9997 186.757 55.0951 185.395 53.2334 183.581C52.142 182.525 50.9593 181.567 49.6993 180.72C48.1439 179.7 46.4936 178.834 44.7715 178.132C43.0381 177.465 41.2431 176.97 39.4125 176.654C37.9127 176.407 36.3938 176.295 34.8739 176.318C32.3075 176.37 30.6982 176.744 30.6719 176.623Z" fill="#263238"/>
<path d="M259.612 52.3032H60.35C56.1181 52.3032 52.6875 55.7338 52.6875 59.9657V186.547C52.6875 190.779 56.1181 194.209 60.35 194.209H259.612C263.844 194.209 267.274 190.779 267.274 186.547V59.9657C267.274 55.7338 263.844 52.3032 259.612 52.3032Z" fill="#455A64"/>
<path d="M44.0137 183.712H276.503V186.767C276.503 189.25 275.516 191.631 273.761 193.387C272.005 195.142 269.624 196.129 267.141 196.129H53.3749C52.1455 196.129 50.9282 195.887 49.7925 195.416C48.6567 194.946 47.6248 194.256 46.7555 193.387C45.8862 192.518 45.1967 191.486 44.7263 190.35C44.2558 189.214 44.0137 187.997 44.0137 186.767V183.712Z" fill="#455A64"/>
<path d="M261.213 57.9402H58.748V177.774H261.213V57.9402Z" fill="#F5F5F5"/>
<path d="M139.123 183.712H140.028H142.657L152.465 183.67L185.266 183.602H185.508L185.387 183.812C184.977 184.517 184.53 185.274 184.088 186.042C183.647 186.81 183.152 187.62 182.71 188.398L182.668 188.467H182.59L141.995 188.393H141.958V188.362L139.854 184.906L139.328 184.028L139.155 183.739L139.36 184.044C139.491 184.254 139.681 184.543 139.928 184.922C140.422 185.695 141.153 186.826 142.094 188.298L142.042 188.267L182.637 188.193L182.516 188.262L183.894 185.9C184.341 185.138 184.783 184.375 185.198 183.67L185.314 183.881L152.649 183.807L142.747 183.744H140.059H139.36L139.123 183.712Z" fill="#263238"/>
<path fill-rule="evenodd" clip-rule="evenodd" d="M132.835 80.234C133.205 79.7421 133.638 79.3017 134.124 78.9244L133.819 77.2468L136.412 76.1371L137.411 77.5203C138.02 77.4386 138.637 77.4386 139.246 77.5203L140.214 76.1213L142.843 77.1732L142.575 78.8561C143.066 79.2268 143.506 79.6599 143.885 80.1445L145.562 79.8395L146.672 82.4323L145.289 83.4315C145.371 84.0406 145.371 84.6578 145.289 85.2669L146.688 86.2398L145.636 88.8694L143.958 88.6012C143.588 89.0935 143.155 89.5355 142.67 89.9159L142.975 91.5883L140.382 92.698L139.383 91.3149C138.772 91.3965 138.153 91.3965 137.542 91.3149L136.575 92.719L133.945 91.6672L134.213 89.9843C133.72 89.6151 133.278 89.1818 132.898 88.6958L131.226 89.0009L130.127 86.3871L131.51 85.3879C131.426 84.779 131.426 84.1614 131.51 83.5524L130.127 82.5795L131.179 79.95L132.862 80.2182L132.835 80.234ZM135.644 83.1475C135.417 83.7008 135.36 84.3088 135.479 84.8946C135.598 85.4805 135.888 86.0179 136.312 86.439C136.737 86.8601 137.276 87.146 137.863 87.2606C138.45 87.3751 139.057 87.3131 139.609 87.0825C140.161 86.8519 140.631 86.463 140.962 85.9649C141.293 85.4668 141.468 84.8819 141.466 84.2841C141.465 83.6863 141.286 83.1023 140.953 82.6061C140.619 82.1099 140.146 81.7236 139.593 81.4961C139.226 81.3448 138.832 81.2675 138.434 81.2686C138.036 81.2697 137.643 81.3493 137.276 81.5027C136.909 81.656 136.576 81.8803 136.296 82.1625C136.016 82.4448 135.794 82.7795 135.644 83.1475Z" fill="#E0E0E0"/>
<path fill-rule="evenodd" clip-rule="evenodd" d="M122.323 134.613C123.393 133.185 124.647 131.905 126.051 130.805L125.162 125.946L132.678 122.743L135.575 126.745C137.341 126.487 139.132 126.466 140.903 126.682L143.706 122.622L151.29 125.672L150.506 130.542C151.935 131.611 153.215 132.865 154.314 134.271L159.173 133.387L162.376 140.923L158.374 143.816C158.632 145.581 158.652 147.373 158.432 149.143L162.497 151.952L159.447 159.53L154.577 158.747C153.508 160.175 152.254 161.456 150.848 162.554L151.731 167.414L144.216 170.622L141.324 166.619C139.558 166.876 137.767 166.895 135.996 166.677L133.193 170.737L125.609 167.692L126.393 162.817C124.963 161.75 123.683 160.496 122.585 159.088L117.726 159.977L114.518 152.462L118.52 149.564C118.264 147.801 118.245 146.011 118.462 144.242L114.402 141.449L117.447 133.866L122.323 134.649V134.613ZM130.453 143.059C129.806 144.668 129.651 146.432 130.007 148.129C130.363 149.826 131.214 151.38 132.453 152.593C133.692 153.806 135.263 154.625 136.967 154.945C138.672 155.266 140.433 155.073 142.028 154.393C143.623 153.712 144.98 152.574 145.928 151.122C146.876 149.67 147.372 147.97 147.354 146.236C147.335 144.502 146.803 142.812 145.824 141.381C144.845 139.949 143.464 138.84 141.855 138.194C140.786 137.765 139.643 137.551 138.492 137.564C137.34 137.577 136.203 137.817 135.144 138.27C134.085 138.722 133.126 139.379 132.321 140.203C131.516 141.026 130.881 142 130.453 143.069V143.059Z" fill="#F5F5F5"/>
<path d="M267.272 183.711C267.272 183.785 219.23 183.843 159.987 183.843C100.743 183.843 52.7012 183.785 52.7012 183.711C52.7012 183.638 100.733 183.585 159.987 183.585C219.241 183.585 267.272 183.643 267.272 183.711Z" fill="#263238"/>
<path d="M151.855 22.4829C148.547 23.9344 146.622 27.5054 145.902 31.0447C145.181 34.5841 145.412 38.2444 145.102 41.8469C144.792 45.4494 143.803 49.2096 141.174 51.6867C138.723 54.0007 135.12 54.9421 133.033 57.5874C132.254 58.5723 131.738 59.7388 131.533 60.9777C131.328 62.2165 131.441 63.4871 131.862 64.6702C132.282 65.8534 132.996 66.9104 133.937 67.7421C134.878 68.5739 136.014 69.1531 137.24 69.4256C135.588 72.0552 136.414 75.6892 138.528 77.9454C140.642 80.2015 143.74 81.2796 146.796 81.7424C152.17 82.5628 157.903 81.6583 162.441 78.6658C166.98 75.6734 170.156 70.4774 170.146 65.0448" fill="#263238"/>
<path d="M137.526 75.9055C137.271 75.5475 137.074 75.1518 136.942 74.7328C136.571 73.5884 136.498 72.3683 136.731 71.1881C136.885 70.3726 137.139 69.5794 137.489 68.8268C137.91 67.9762 138.419 67.1724 139.009 66.4286C140.411 64.7863 141.932 63.2483 143.558 61.8269C145.137 60.3689 146.614 58.8051 147.981 57.1463C149.099 55.7944 150.051 54.313 150.815 52.7339C151.324 51.6683 151.709 50.5478 151.962 49.3944C152.062 48.9895 152.088 48.6634 152.135 48.4478C152.146 48.3348 152.171 48.2235 152.209 48.1165C152.221 48.2283 152.221 48.3411 152.209 48.453C152.177 48.6739 152.167 49.0052 152.083 49.4155C151.866 50.5891 151.502 51.7306 150.999 52.8128C150.254 54.4179 149.311 55.9232 148.191 57.2936C146.829 58.9747 145.35 60.5564 143.763 62.0268C142.142 63.4385 140.623 64.964 139.219 66.5917C138.632 67.3144 138.126 68.0991 137.71 68.932C137.355 69.6621 137.095 70.4344 136.937 71.2302C136.69 72.385 136.733 73.583 137.063 74.717C137.194 75.1219 137.348 75.5188 137.526 75.9055Z" fill="#455A64"/>
<path d="M191.415 34.3635C191.415 39.2229 193.655 43.6774 195.67 45.3182C198.525 47.6322 202.712 48.7524 205.467 49.5255C209.485 50.6457 212.83 54.164 213.356 58.3082C213.882 62.4524 211.147 66.8753 207.108 67.9166C209.648 70.5093 208.891 74.969 206.803 77.9089C202.843 83.5308 194.939 85.6923 188.396 83.6097C181.854 81.5271 176.826 75.7211 174.859 69.1314" fill="#263238"/>
<path d="M201.406 82.2322C201.961 82.1119 202.487 81.8812 202.952 81.5538C203.488 81.1617 203.93 80.655 204.246 80.0707C204.675 79.3041 204.913 78.4455 204.94 77.5674C204.934 76.5042 204.653 75.4607 204.125 74.5381C203.517 73.4755 202.716 72.5356 201.763 71.7666C199.77 70.0889 197.062 69.0424 194.443 67.5593C193.152 66.8335 191.981 65.9128 190.972 64.8298C190.492 64.3072 190.084 63.7237 189.757 63.0943C189.447 62.4906 189.217 61.8488 189.073 61.1853C188.839 59.9586 188.783 58.7047 188.905 57.4619C188.994 56.2996 189.142 55.232 189.242 54.2485C189.469 52.7121 189.444 51.149 189.168 49.6205C189.1 49.3576 189.036 49.1262 188.979 48.9158C188.921 48.7055 188.837 48.5529 188.789 48.4162C188.73 48.2808 188.68 48.142 188.637 48.0007C188.716 48.1251 188.783 48.2573 188.837 48.3952C188.894 48.5319 188.984 48.6897 189.052 48.8895L189.268 49.5995C189.587 51.1357 189.641 52.7153 189.426 54.2696C189.336 55.253 189.199 56.3259 189.121 57.4776C189.008 58.7075 189.071 59.9472 189.31 61.159C189.599 62.4786 190.239 63.6958 191.161 64.6826C192.155 65.7444 193.306 66.6472 194.574 67.3595C197.167 68.8478 199.891 69.9101 201.937 71.6299C202.908 72.4208 203.722 73.3878 204.335 74.4803C204.878 75.4424 205.158 76.5309 205.145 77.6358C205.11 78.5418 204.852 79.4252 204.393 80.2075C204.056 80.8003 203.59 81.3106 203.031 81.701C202.675 81.9397 202.283 82.1174 201.869 82.227C201.715 82.2441 201.56 82.2459 201.406 82.2322Z" fill="#455A64"/>
<path d="M210.871 66.0183C211.162 65.6243 211.334 65.1552 211.366 64.6667C211.383 64.0962 211.253 63.531 210.987 63.0259C210.65 62.3518 210.136 61.7825 209.499 61.3798C208.697 60.9296 207.817 60.6351 206.906 60.512C205.928 60.3385 204.86 60.2754 203.751 60.1018C201.315 59.7125 198.994 58.7953 196.951 57.4144C194.902 56.0359 193.185 54.2199 191.923 52.0975C190.907 50.3629 190.209 48.4608 189.861 46.4807C189.617 45.1509 189.545 43.7953 189.646 42.447C189.669 42.0822 189.711 41.7189 189.772 41.3584C189.781 41.2314 189.806 41.106 189.846 40.985C189.872 40.985 189.782 41.5109 189.746 42.4575C189.605 45.7939 190.432 49.0999 192.128 51.9765C193.383 54.0575 195.078 55.8397 197.093 57.1988C199.108 58.5554 201.391 59.4646 203.787 59.8651C204.892 60.044 205.965 60.1176 206.943 60.2964C207.871 60.4341 208.764 60.7502 209.572 61.2273C210.234 61.6508 210.763 62.2523 211.098 62.9628C211.363 63.4917 211.482 64.0815 211.445 64.672C211.414 65.045 211.295 65.4055 211.098 65.7238C211.029 65.8237 210.961 65.8973 210.919 65.9499L210.871 66.0183Z" fill="#455A64"/>
<path d="M154.216 91.3356C154.91 84.0728 155.505 76.4156 155.505 76.4156C155.505 76.4156 146.306 73.9438 145.57 61.5481C144.865 49.7309 149.425 23.0463 149.425 23.0463C163.43 18.881 179.018 24.0981 187.553 35.8206L180.959 94.7225C180.196 101.559 173.706 106.345 166.391 105.467C159.007 104.578 153.559 98.2566 154.216 91.3356Z" fill="#B78876"/>
<path d="M150.823 44.377C150.781 44.7836 150.898 45.1906 151.15 45.5124C151.402 45.8342 151.77 46.0455 152.174 46.102C152.372 46.138 152.575 46.134 152.771 46.0902C152.967 46.0464 153.152 45.9636 153.315 45.8469C153.478 45.7301 153.617 45.5818 153.722 45.4106C153.826 45.2394 153.896 45.0488 153.926 44.8503C153.968 44.4437 153.85 44.0366 153.598 43.7148C153.346 43.3931 152.979 43.1817 152.574 43.1253C152.377 43.0893 152.174 43.0933 151.978 43.1371C151.782 43.1809 151.597 43.2636 151.433 43.3804C151.27 43.4971 151.132 43.6455 151.027 43.8167C150.922 43.9879 150.853 44.1784 150.823 44.377Z" fill="#263238"/>
<path d="M148.459 42.3732C148.633 42.5993 149.906 41.8473 151.588 42.0051C153.271 42.1628 154.423 43.141 154.628 42.9517C154.728 42.8675 154.565 42.4836 154.065 42.0366C153.386 41.4594 152.545 41.1067 151.657 41.0269C150.785 40.9359 149.906 41.1197 149.143 41.5528C148.586 41.9209 148.375 42.2733 148.459 42.3732Z" fill="#263238"/>
<path d="M168.032 46.3706C167.99 46.778 168.108 47.1857 168.361 47.5076C168.614 47.8295 168.983 48.0404 169.389 48.0955C169.586 48.1316 169.789 48.1276 169.985 48.0838C170.181 48.0399 170.366 47.9572 170.529 47.8405C170.693 47.7237 170.831 47.5753 170.936 47.4041C171.041 47.2329 171.11 47.0424 171.14 46.8439C171.182 46.4373 171.065 46.0302 170.812 45.7084C170.56 45.3867 170.193 45.1753 169.788 45.1189C169.59 45.0828 169.387 45.0868 169.191 45.1305C168.995 45.1743 168.809 45.257 168.646 45.3737C168.482 45.4903 168.343 45.6387 168.238 45.8099C168.132 45.9812 168.062 46.1718 168.032 46.3706Z" fill="#263238"/>
<path d="M165.971 44.7136C166.145 44.9398 167.417 44.1877 169.1 44.3508C170.783 44.5138 171.935 45.4815 172.14 45.2921C172.235 45.2133 172.077 44.8241 171.577 44.3771C170.897 43.8008 170.056 43.4482 169.169 43.3673C168.296 43.2763 167.417 43.4602 166.655 43.8932C166.097 44.2614 165.887 44.6137 165.971 44.7136Z" fill="#263238"/>
<path d="M158.629 56.6045C158.629 56.5098 157.619 56.2258 155.941 55.8419C155.515 55.7525 155.121 55.6263 155.074 55.316C155.083 54.8682 155.228 54.4337 155.489 54.0696L157.067 50.9141C159.291 46.4281 160.948 42.7204 160.748 42.631C160.548 42.5416 158.618 46.1126 156.394 50.5986C155.868 51.7082 155.342 52.7601 154.847 53.754C154.528 54.2458 154.391 54.8335 154.458 55.4159C154.503 55.5752 154.586 55.7215 154.698 55.8431C154.81 55.9646 154.95 56.0579 155.105 56.1154C155.337 56.2039 155.579 56.2622 155.826 56.2889C157.556 56.5887 158.613 56.6991 158.629 56.6045Z" fill="#263238"/>
<path d="M155.504 76.4153C161.241 77.0707 167.048 76.1185 172.275 73.6648C172.275 73.6648 167.463 81.6586 155.367 79.3131L155.504 76.4153Z" fill="#AA6550"/>
<path d="M158.945 60.7331C159.305 60.3611 159.753 60.0868 160.248 59.9359C160.743 59.785 161.269 59.7625 161.775 59.8706C162.143 59.9422 162.493 60.0866 162.804 60.2952C163.116 60.5038 163.383 60.7724 163.589 61.0854C163.787 61.3892 163.886 61.7464 163.874 62.1086C163.862 62.4707 163.738 62.8204 163.521 63.1102C163.221 63.3863 162.845 63.566 162.442 63.626C162.038 63.686 161.627 63.6236 161.259 63.4467C160.492 63.0885 159.803 62.5807 159.234 61.9532C159.06 61.8057 158.914 61.6274 158.803 61.4273C158.75 61.3285 158.728 61.2162 158.739 61.1047C158.75 60.9932 158.795 60.8876 158.866 60.8014" fill="#AA6550"/>
<path d="M163.472 58.2562C163.199 58.2141 163.015 60.039 161.321 61.1855C159.628 62.332 157.703 61.9376 157.666 62.19C157.629 62.3005 158.066 62.5897 158.886 62.7159C159.955 62.837 161.032 62.5762 161.926 61.9797C162.788 61.409 163.392 60.5236 163.609 59.5131C163.783 58.7295 163.598 58.2562 163.472 58.2562Z" fill="#263238"/>
<path d="M181.747 48.842C183.082 48.6908 184.432 48.911 185.65 49.4784C186.257 49.7635 186.802 50.1658 187.253 50.6622C187.704 51.1586 188.053 51.7393 188.279 52.3709C188.664 53.6684 188.54 55.0638 187.932 56.2731C187.322 57.4713 186.452 58.5187 185.387 59.3392C184.663 59.9776 183.798 60.4354 182.862 60.675C182.394 60.7917 181.904 60.7898 181.437 60.6696C180.969 60.5493 180.539 60.3143 180.186 59.986" fill="#B78876"/>
<path d="M181.691 56.8257C181.539 56.8573 182.028 57.704 183.269 57.4989C183.923 57.339 184.49 56.9294 184.847 56.3577C185.27 55.7199 185.565 55.0052 185.714 54.254C185.884 53.4564 185.769 52.6244 185.388 51.9032C185.225 51.5975 184.995 51.3323 184.716 51.1275C184.436 50.9226 184.114 50.7833 183.774 50.7199C182.548 50.5727 182.08 51.3878 182.196 51.4246C182.312 51.4615 182.806 51.1407 183.59 51.4246C184.373 51.7086 184.999 52.7762 184.705 54.0542C184.41 55.3322 183.789 56.5575 183.043 56.7942C182.296 57.0308 181.786 56.7258 181.691 56.8257Z" fill="#AA6550"/>
<path d="M155.326 28.2626C154.407 30.3517 153.021 32.2024 151.275 33.6729C149.529 35.1433 147.47 36.1944 145.255 36.7455C144.997 33.732 144.818 30.6817 145.313 27.6946C145.807 24.7074 147.017 21.7676 149.194 19.6692C151.371 17.5708 154.595 16.4401 157.519 17.2185" fill="#263238"/>
<path d="M156.168 22.7305C155.406 24.6496 155.151 26.7331 155.43 28.7793C155.708 30.8255 156.51 32.7652 157.758 34.4109C159.005 36.0566 160.656 37.3525 162.551 38.1734C164.446 38.9943 166.521 39.3123 168.574 39.0968C169.374 39.0126 170.215 38.8549 170.962 39.1441C171.709 39.4334 172.292 40.1959 172.771 40.9217C174.717 43.83 176.773 46.8539 179.839 48.5368C182.905 50.2198 187.291 50.0515 189.342 47.2168C190.336 45.8389 190.631 44.0877 190.862 42.4047C191.641 36.7407 191.962 30.6559 189.258 25.6177C187.255 21.868 183.731 19.0859 179.834 17.3977C175.937 15.7096 171.667 15.0364 167.423 14.7682C164.961 14.6157 162.411 14.6104 160.123 15.5465C157.835 16.4826 155.863 18.5547 155.732 21.0213" fill="#263238"/>
<path d="M190.319 44.0033C190.261 43.8685 190.211 43.7296 190.172 43.5878C190.088 43.3144 189.946 42.9094 189.762 42.3993C189.215 40.9511 188.519 39.5639 187.685 38.2604C186.443 36.3347 184.904 34.6182 183.125 33.1748C180.898 31.464 178.438 30.0792 175.82 29.0622C173.064 27.9052 170.366 26.9586 168.005 25.8489C165.895 24.9025 163.914 23.692 162.11 22.2464C160.899 21.2635 159.846 20.1019 158.986 18.8017C158.754 18.4472 158.545 18.0783 158.36 17.6973C158.285 17.5709 158.223 17.4369 158.176 17.2976C158.26 17.4191 158.338 17.5456 158.407 17.6763C158.61 18.0379 158.831 18.3889 159.07 18.7281C159.953 19.9954 161.016 21.1275 162.225 22.0886C164.028 23.5041 166.002 24.6879 168.1 25.6122C170.451 26.7009 173.148 27.6475 175.915 28.8045C178.556 29.8336 181.035 31.2363 183.277 32.9697C185.07 34.4378 186.611 36.1874 187.842 38.1499C188.667 39.4737 189.343 40.8847 189.857 42.3572C190.03 42.8831 190.156 43.2881 190.219 43.5721C190.265 43.7127 190.298 43.857 190.319 44.0033Z" fill="#455A64"/>
<path d="M186.528 43.3358C186.448 43.2273 186.379 43.111 186.322 42.9887C186.186 42.7626 185.986 42.426 185.691 42.021C184.85 40.8891 183.828 39.9031 182.667 39.1022C180.924 37.9363 179.063 36.9579 177.114 36.1834C176.025 35.7154 174.873 35.2315 173.706 34.6741C172.538 34.1166 171.345 33.496 170.167 32.7913C167.935 31.4775 165.878 29.8872 164.045 28.0581C162.55 26.5628 161.262 24.8736 160.216 23.0357C159.516 21.7956 158.952 20.4838 158.533 19.1229C158.397 18.6391 158.297 18.2604 158.249 18.0027C158.212 17.8722 158.187 17.7383 158.176 17.603C158.229 17.7266 158.269 17.8553 158.297 17.9869C158.365 18.2446 158.481 18.6128 158.633 19.0913C159.084 20.4301 159.669 21.7199 160.379 22.941C161.436 24.751 162.725 26.4148 164.213 27.8898C166.043 29.6988 168.089 31.2761 170.303 32.5862C171.471 33.2857 172.654 33.9062 173.816 34.469C174.979 35.0317 176.12 35.5208 177.208 35.9836C179.168 36.771 181.034 37.7728 182.773 38.9707C183.94 39.7945 184.956 40.814 185.776 41.9842C185.994 42.3035 186.191 42.6373 186.365 42.9834C186.428 43.0967 186.482 43.2145 186.528 43.3358Z" fill="#455A64"/>
<path d="M145.296 41.5894C145.249 41.4981 145.211 41.4031 145.18 41.3054C145.112 41.1214 145.006 40.8426 144.891 40.4797C144.597 39.451 144.421 38.3925 144.365 37.3243C144.205 33.7352 145.323 30.2057 147.52 27.3636C148.138 26.5586 148.844 25.8249 149.624 25.1758C150.386 24.5552 151.17 24.0293 151.917 23.5349C153.272 22.7202 154.544 21.7743 155.714 20.7108C156.49 19.9841 157.122 19.1168 157.576 18.1549C157.881 17.4659 157.949 17.0452 157.975 17.0505C157.974 17.1539 157.958 17.2565 157.928 17.3555C157.863 17.6402 157.777 17.9198 157.67 18.1917C157.241 19.1796 156.62 20.0731 155.845 20.8212C154.684 21.9128 153.413 22.882 152.054 23.7137C151.271 24.2224 150.514 24.77 149.787 25.3546C149.021 25.9931 148.326 26.7125 147.715 27.5003C146.53 29.0267 145.651 30.7678 145.127 32.6279C144.691 34.1448 144.494 35.7204 144.544 37.298C144.585 38.362 144.733 39.4191 144.985 40.4535C145.08 40.8041 145.159 41.0828 145.222 41.2896C145.259 41.3861 145.284 41.4868 145.296 41.5894Z" fill="#455A64"/>
<path d="M175.438 65.9239C172.57 65.9548 169.791 64.9353 167.623 63.0577L167.96 62.6843C169.814 64.3557 172.18 65.3513 174.671 65.5097C177.163 65.668 179.635 64.9799 181.687 63.5568C183.738 62.1337 185.249 60.0592 185.973 57.6699C186.697 55.2805 186.593 52.7165 185.678 50.3938L186.146 50.2097C187.03 52.6454 187.101 55.302 186.348 57.7813C185.595 60.2607 184.059 62.4294 181.97 63.9623C180.041 65.2621 177.764 65.9461 175.438 65.9239Z" fill="#072F5F"/>
<path d="M168.948 66.2072C170.287 66.2072 171.372 65.1217 171.372 63.7827C171.372 62.4437 170.287 61.3583 168.948 61.3583C167.609 61.3583 166.523 62.4437 166.523 63.7827C166.523 65.1217 167.609 66.2072 168.948 66.2072Z" fill="#072F5F"/>
<path d="M195.563 52.7576C196.278 48.3332 193.27 44.1675 188.846 43.4533C184.421 42.7391 180.255 45.7468 179.541 50.1712C178.827 54.5956 181.835 58.7612 186.259 59.4755C190.684 60.1897 194.849 57.182 195.563 52.7576Z" fill="#072F5F"/>
<path d="M186.246 50.3357C186.189 49.6507 186.203 48.9615 186.288 48.2794L186.383 45.876C186.383 44.9399 186.425 43.8723 186.383 42.6942C186.383 42.1052 186.341 41.4899 186.309 40.8536C186.278 40.2172 186.209 39.5493 186.146 38.8604C186.083 38.1714 185.962 37.472 185.873 36.7567C185.804 36.3991 185.736 36.031 185.668 35.6628C185.599 35.2947 185.526 34.916 185.426 34.5426C184.726 31.272 183.27 28.2103 181.176 25.6022C179.003 23.0586 176.22 21.108 173.088 19.9329C170.52 18.9623 167.848 18.2917 165.126 17.9344C162.791 17.6083 160.881 17.5084 159.567 17.4085C158.879 17.4224 158.192 17.366 157.516 17.2402C158.195 17.128 158.884 17.084 159.572 17.1087C161.449 17.0923 163.326 17.1819 165.194 17.3769C167.98 17.6634 170.721 18.2959 173.351 19.2597C176.614 20.443 179.514 22.4547 181.765 25.0973C183.936 27.8012 185.428 30.986 186.115 34.3849C186.209 34.7688 186.283 35.1527 186.346 35.5366C186.409 35.9205 186.472 36.2887 186.535 36.6568C186.619 37.4036 186.735 38.1188 186.777 38.8183C186.819 39.5178 186.888 40.1962 186.893 40.843C186.898 41.4899 186.935 42.1157 186.893 42.71C186.893 43.9038 186.825 44.9767 186.772 45.9181C186.719 46.8595 186.625 47.6641 186.546 48.3267C186.511 49.0045 186.41 49.6773 186.246 50.3357Z" fill="#072F5F"/>
<g opacity="0.4">
<path d="M189.928 56.6331C192.775 55.4447 194.119 52.1738 192.931 49.3273C191.742 46.4808 188.471 45.1367 185.625 46.3251C182.778 47.5134 181.434 50.7843 182.622 53.6308C183.811 56.4773 187.082 57.8215 189.928 56.6331Z" fill="black"/>
</g>
<path d="M185.939 46.2596C186.018 46.208 186.103 46.1656 186.191 46.1334C186.44 46.0288 186.699 45.9513 186.964 45.902C187.958 45.732 188.981 45.9064 189.862 46.3963C190.477 46.7322 190.991 47.226 191.351 47.8268C191.757 48.5197 191.962 49.3117 191.945 50.1145C191.932 50.8142 191.744 51.4996 191.4 52.1086C191.055 52.7176 190.564 53.231 189.97 53.6022C189.377 53.9735 188.701 54.1909 188.002 54.2349C187.304 54.2788 186.606 54.1478 185.971 53.8537C185.167 53.4607 184.513 52.8163 184.109 52.0183C183.733 51.306 183.567 50.5018 183.63 49.6991C183.702 49.005 183.939 48.338 184.319 47.7532C184.838 46.8851 185.664 46.2432 186.633 45.9546C186.895 45.8821 187.166 45.8501 187.438 45.8599C187.532 45.8628 187.626 45.877 187.717 45.902C187.361 45.9028 187.007 45.9524 186.665 46.0492C185.744 46.3679 184.969 47.0085 184.482 47.8531C184.092 48.4515 183.871 49.1446 183.843 49.8587C183.815 50.5727 183.981 51.281 184.324 51.9079C184.711 52.6532 185.326 53.2544 186.081 53.6223C186.905 53.986 187.827 54.0677 188.703 53.8548C189.578 53.6418 190.359 53.146 190.925 52.4443C191.424 51.7672 191.7 50.9508 191.713 50.1093C191.742 49.3506 191.56 48.5989 191.188 47.9373C190.855 47.3616 190.373 46.8858 189.794 46.5594C188.952 46.0697 187.972 45.8736 187.007 46.0019C186.646 46.0652 186.289 46.1513 185.939 46.2596Z" fill="#263238"/>
<path d="M187.729 56.9674C187.538 56.5547 187.451 56.1014 187.476 55.6473C187.416 55.1988 187.465 54.7425 187.618 54.3168C187.719 54.7491 187.758 55.1935 187.734 55.6368C187.796 56.0782 187.795 56.5264 187.729 56.9674Z" fill="#263238"/>
<path d="M190.81 55.8839C190.346 55.1696 190.035 54.3676 189.895 53.5278C190.358 54.2422 190.669 55.0441 190.81 55.8839Z" fill="#263238"/>
<path d="M192.886 53.4542C192.839 53.5068 192.455 53.2386 192.029 52.8547C191.603 52.4707 191.303 52.1131 191.351 52.0605C191.398 52.0079 191.782 52.2762 192.208 52.6601C192.634 53.044 192.934 53.4016 192.886 53.4542Z" fill="#263238"/>
<path d="M193.034 50.0619C193.008 50.1303 192.734 50.0935 192.413 49.9778C192.093 49.8621 191.856 49.7148 191.888 49.6465C191.919 49.5781 192.187 49.6149 192.508 49.7306C192.829 49.8463 193.06 49.9936 193.034 50.0619Z" fill="#263238"/>
<path d="M184.082 55.7265C184.227 54.8276 184.652 53.9976 185.297 53.3546C185.162 53.7802 184.973 54.1867 184.734 54.5642C184.566 54.9772 184.347 55.3676 184.082 55.7265Z" fill="#263238"/>
<path d="M182.416 52.8702C182.363 52.8176 182.684 52.4232 183.126 51.9919C183.568 51.5607 183.967 51.2451 184.02 51.2977C184.072 51.3503 183.752 51.7447 183.31 52.176C182.868 52.6072 182.468 52.9228 182.416 52.8702Z" fill="#263238"/>
<path d="M183.721 48.9995C183.721 49.0679 183.511 49.1889 183.195 49.2678C182.88 49.3466 182.638 49.3572 182.622 49.2678C182.606 49.1783 182.827 49.0732 183.148 48.9943C183.469 48.9154 183.7 48.9312 183.721 48.9995Z" fill="#263238"/>
<path d="M226.166 93.3975C225.64 90.4261 224.478 88.8116 223.61 87.9649C222.841 87.1317 221.978 86.3905 221.039 85.756C219.861 85.0355 218.256 84.1468 217.231 83.9206C215.964 83.6471 215.653 82.001 216.705 81.5277C217.757 81.0544 221.28 81.7328 224.662 84.2151C228.044 86.6974 226.329 80.4075 225.751 78.1041C225.172 75.8006 223.736 68.5956 224.262 67.8698C225.099 66.818 226.419 67.5333 226.95 69.8473C227.481 72.1613 229.548 78.9981 230.752 78.6615C231.956 78.3249 228.822 66.6392 228.822 66.6392C228.822 66.6392 227.77 64.2411 229.132 63.8098C231.625 63.0262 234.023 75.6796 234.223 76.8892C234.36 77.7254 235.685 77.4151 235.491 76.5158C235.296 75.6165 232.104 64.9195 234.633 64.0991C236.574 63.4732 236.705 74.491 238.599 76.3738C240.492 78.2566 237.642 68.0066 239.524 67.4807C240.224 67.2861 240.776 67.2388 241.56 73.3393C241.986 76.6157 241.712 81.1333 242.99 87.3864" fill="#B78876"/>
<path d="M219.859 116.916L231.355 133.413L225.838 90.8673L242.273 84.3828C242.273 84.3828 263.015 163.9 235.2 165.015C235.2 165.015 215.946 164.489 201.578 131.168L219.859 116.916Z" fill="#B78876"/>
<path d="M238.298 84.0725C238.33 84.1146 237.94 84.3723 237.43 84.9403C236.764 85.6871 236.3 86.5925 236.084 87.5698L236.021 87.8801L235.795 87.6487C235.53 87.3801 235.245 87.1322 234.943 86.9072C233.917 86.1584 232.713 85.6906 231.451 85.5503C230.478 85.4451 229.873 85.5503 229.873 85.4925C230.387 85.3046 230.938 85.2398 231.482 85.3031C233.223 85.3833 234.864 86.1377 236.058 87.4068L235.763 87.4857C235.995 86.4452 236.525 85.4948 237.288 84.7509C237.566 84.4478 237.912 84.2152 238.298 84.0725Z" fill="#AA6550"/>
<path d="M211.604 151.31L197.694 133.666L194.075 151.715C192.612 159.025 193.366 166.605 196.242 173.483L198.035 177.779H133.622L135.231 172.042C136.141 165.016 134.926 157.684 135.137 147.618L133.348 136.275L123.603 177.779H94.957C94.957 177.779 110.666 113.361 120.532 100.613C132.949 84.5461 154.648 86.6655 154.648 86.6655L167.938 107.502L180.922 88.7113C180.922 88.7113 203.231 83.9781 220.649 113.955L229.969 129.927L225.64 97.0417L245.825 92.3926C245.825 92.3926 253.109 124.699 252.63 142.002C252.204 157.453 245.625 165.557 236.511 166.357C222.159 167.608 211.604 151.31 211.604 151.31Z" fill="#072F5F"/>
<path d="M154.647 86.6651L154.873 84.0671C154.873 84.0671 164.718 86.2549 168.02 103.447C168.02 103.447 171.334 87.5802 181.936 85.9867L183.724 90.5569L177.213 107.507L165.78 110.852L154.652 107.507L149.582 97.4568L154.647 86.6651Z" fill="#072F5F"/>
<path d="M127.206 93.5017C127.236 93.6473 127.254 93.795 127.259 93.9435C127.259 94.259 127.312 94.685 127.354 95.2267C127.422 96.3364 127.538 97.9404 127.696 99.9283C128.016 103.894 128.558 109.368 129.415 115.38C130.273 121.391 131.293 126.802 132.097 130.699C132.502 132.65 132.839 134.223 133.086 135.312C133.197 135.837 133.286 136.258 133.354 136.563C133.392 136.708 133.416 136.856 133.428 137.005C133.375 136.866 133.333 136.724 133.302 136.579C133.221 136.274 133.116 135.858 132.986 135.333C132.713 134.254 132.345 132.703 131.934 130.741C131.082 126.85 130.041 121.438 129.173 115.416C128.306 109.395 127.801 103.915 127.533 99.9389C127.396 97.9509 127.306 96.3416 127.264 95.232C127.264 94.706 127.233 94.2643 127.222 93.9487C127.212 93.6332 127.201 93.5017 127.206 93.5017Z" fill="#263238"/>
<path d="M183.485 88.1012C183.447 88.1883 183.399 88.2712 183.343 88.3484L182.901 89.0321L181.261 91.5354C179.883 93.639 178.026 96.6104 176.091 99.9499C176.017 100.081 175.938 100.208 175.87 100.334L175.744 100.549L175.639 100.323C175.303 99.488 174.824 98.7174 174.224 98.0462C173.949 97.7456 173.607 97.5145 173.226 97.3719C172.845 97.2293 172.435 97.1792 172.031 97.2257C171.301 97.3842 170.657 97.8077 170.222 98.4143C169.821 98.9335 169.515 99.5192 169.317 100.145C168.949 101.302 168.733 102.274 168.455 102.906C168.357 103.15 168.243 103.387 168.113 103.616C168.018 103.77 167.966 103.843 167.955 103.836C167.955 103.836 168.134 103.505 168.365 102.869C168.597 102.232 168.791 101.291 169.149 100.092C169.337 99.4386 169.644 98.8255 170.053 98.2828C170.512 97.6215 171.207 97.1606 171.994 96.9943C172.435 96.9371 172.884 96.9864 173.302 97.1383C173.72 97.2902 174.096 97.5402 174.397 97.8673C175.026 98.5545 175.527 99.3489 175.875 100.213H175.644L175.865 99.829C177.8 96.4842 179.688 93.5181 181.124 91.446C181.834 90.3942 182.423 89.558 182.833 88.9847C183.033 88.7218 183.191 88.5009 183.317 88.3273C183.365 88.2463 183.421 88.1705 183.485 88.1012Z" fill="#263238"/>
<path d="M174.106 97.8354C174.106 97.8354 174.08 97.9143 174.001 98.0563L173.654 98.6664L172.334 100.886L170.346 104.152L169.162 106.082C168.952 106.413 168.742 106.755 168.526 107.102C168.46 107.201 168.377 107.287 168.279 107.354C168.22 107.392 168.154 107.417 168.085 107.426C168.016 107.435 167.946 107.429 167.879 107.407C167.651 107.317 167.464 107.147 167.353 106.928C165.507 104.152 164.129 101.464 163.051 99.5657C162.525 98.6138 162.078 97.8512 161.773 97.3253C161.601 97.0607 161.446 96.7849 161.311 96.4996C161.311 96.4996 161.374 96.5627 161.463 96.6942C161.552 96.8257 161.694 97.015 161.857 97.2727C162.194 97.7986 162.657 98.5349 163.209 99.4763C164.329 101.343 165.733 104.015 167.574 106.776C167.685 106.955 167.79 107.107 167.932 107.149C168.074 107.191 168.184 107.097 168.295 106.944L168.926 105.934L170.12 104.015L172.155 100.775L173.543 98.6033C173.701 98.3719 173.827 98.1773 173.938 98.0195C173.986 97.9513 174.042 97.8894 174.106 97.8354Z" fill="#263238"/>
<path d="M209.773 99.3765C209.73 99.4937 209.679 99.608 209.621 99.7183C209.505 99.9602 209.347 100.281 209.147 100.681C208.726 101.512 208.137 102.721 207.433 104.225C206.728 105.729 205.929 107.544 205.087 109.574C204.246 111.604 203.389 113.865 202.558 116.263C201.727 118.662 201.032 120.997 200.454 123.1C199.875 125.204 199.402 127.139 199.018 128.759C198.634 130.379 198.366 131.699 198.187 132.609C198.098 133.045 198.024 133.392 197.972 133.661C197.952 133.784 197.92 133.906 197.877 134.023C197.878 133.898 197.892 133.773 197.919 133.65C197.961 133.382 198.019 133.029 198.087 132.598C198.235 131.678 198.492 130.353 198.839 128.722C199.186 127.092 199.649 125.167 200.223 123.037C200.796 120.907 201.511 118.598 202.326 116.2C203.141 113.802 204.035 111.541 204.877 109.505C205.718 107.47 206.554 105.666 207.285 104.167C208.017 102.669 208.627 101.47 209.074 100.654L209.599 99.7183C209.645 99.5984 209.703 99.4838 209.773 99.3765Z" fill="#263238"/>
<path d="M180.308 164.715C180.174 164.722 180.041 164.722 179.908 164.715L178.756 164.626C178.23 164.584 177.647 164.531 176.942 164.442C176.237 164.353 175.427 164.274 174.544 164.137C172.766 163.895 170.662 163.527 168.343 163.048C166.024 162.57 163.494 161.928 160.87 161.155C158.246 160.382 155.79 159.504 153.576 158.657C151.362 157.81 149.41 156.948 147.791 156.18C146.97 155.812 146.25 155.438 145.613 155.128C144.977 154.818 144.43 154.529 143.994 154.287L142.979 153.734C142.86 153.675 142.745 153.606 142.637 153.529C142.764 153.57 142.888 153.623 143.005 153.687L144.057 154.213C144.504 154.439 145.051 154.739 145.692 155.012C146.334 155.286 147.06 155.675 147.88 156.027C149.51 156.774 151.472 157.605 153.665 158.447C155.858 159.288 158.33 160.135 160.944 160.918C163.557 161.702 166.087 162.317 168.391 162.827C170.694 163.338 172.798 163.706 174.57 163.969C175.448 164.121 176.253 164.216 176.958 164.31C177.662 164.405 178.267 164.484 178.767 164.537L179.913 164.679C180.046 164.679 180.177 164.692 180.308 164.715Z" fill="#263238"/>
<path d="M177.455 165.84C177.369 165.874 177.279 165.897 177.187 165.909L176.419 166.056C175.751 166.177 174.778 166.329 173.574 166.498C167.3 167.343 160.958 167.563 154.641 167.155C153.426 167.071 152.448 166.987 151.775 166.908L150.997 166.819C150.906 166.81 150.817 166.794 150.729 166.771C150.819 166.759 150.911 166.759 151.002 166.771L151.78 166.813C152.459 166.861 153.437 166.919 154.652 166.976C157.071 167.092 160.437 167.171 164.118 167.045C167.8 166.919 171.155 166.603 173.585 166.319C174.789 166.177 175.762 166.051 176.435 165.961L177.213 165.861C177.293 165.844 177.374 165.836 177.455 165.84Z" fill="#263238"/>
<path d="M200.254 136.916C200.265 136.787 200.29 136.66 200.328 136.537L200.596 135.485L201.595 131.546C202.442 128.222 203.562 123.621 204.945 118.572C205.639 116.048 206.349 113.655 207.049 111.493C207.748 109.332 208.421 107.407 209.042 105.808C209.336 104.998 209.641 104.283 209.894 103.652C210.146 103.021 210.383 102.484 210.583 102.048L211.04 101.043C211.09 100.923 211.15 100.807 211.219 100.696C211.185 100.822 211.141 100.945 211.088 101.064C210.988 101.317 210.851 101.659 210.677 102.085C210.504 102.511 210.272 103.073 210.031 103.71C209.789 104.346 209.505 105.061 209.215 105.871C208.616 107.475 207.964 109.411 207.28 111.567C206.596 113.723 205.897 116.121 205.203 118.64C203.825 123.684 202.678 128.28 201.784 131.593C201.343 133.25 200.974 134.591 200.706 135.512L200.391 136.563C200.358 136.685 200.312 136.804 200.254 136.916Z" fill="#263238"/>
<path d="M133.01 136.054C132.912 135.955 132.82 135.85 132.736 135.739C132.568 135.518 132.3 135.213 132.005 134.787C131.139 133.592 130.37 132.329 129.707 131.011C128.721 129.054 127.913 127.012 127.293 124.91C126.541 122.338 125.982 119.714 125.621 117.058C124.853 111.41 124.727 106.246 124.495 102.533C124.39 100.671 124.29 99.1668 124.216 98.1255C124.18 97.6259 124.148 97.2262 124.127 96.9317C124.117 96.7917 124.117 96.651 124.127 96.511C124.162 96.6473 124.185 96.7863 124.195 96.9265C124.227 97.1947 124.28 97.5996 124.332 98.1203C124.443 99.1721 124.569 100.66 124.695 102.517C124.974 106.235 125.126 111.394 125.894 117.021C126.252 119.665 126.802 122.278 127.54 124.842C128.138 126.936 128.918 128.973 129.87 130.932C130.517 132.25 131.257 133.521 132.084 134.734C132.368 135.171 132.61 135.481 132.778 135.712C132.866 135.819 132.944 135.933 133.01 136.054Z" fill="#263238"/>
<path d="M130.566 124.472C130.566 124.551 129.819 124.714 128.988 125.198C128.157 125.682 127.657 126.25 127.6 126.197C127.915 125.693 128.347 125.273 128.86 124.973C129.373 124.673 129.951 124.501 130.545 124.472H130.566Z" fill="#263238"/>
<path d="M130.076 117.72C129.404 117.905 128.746 118.141 128.109 118.425C127.516 118.79 126.95 119.197 126.416 119.645C126.806 119.029 127.352 118.526 127.998 118.188C128.644 117.85 129.369 117.689 130.097 117.72H130.076Z" fill="#263238"/>
<path d="M128.6 111.547C128.064 111.69 127.537 111.866 127.022 112.072C126.551 112.353 126.096 112.66 125.66 112.993C125.953 112.494 126.385 112.091 126.904 111.834C127.422 111.577 128.004 111.477 128.579 111.547H128.6Z" fill="#263238"/>
<path d="M127.878 105.161C127.878 105.235 127.221 105.366 126.464 105.687C125.706 106.008 125.149 106.402 125.102 106.345C125.421 105.926 125.859 105.612 126.358 105.445C126.826 105.203 127.355 105.104 127.878 105.161Z" fill="#263238"/>
<path d="M127.465 100.018C127.465 100.092 126.803 100.218 126.045 100.576C125.288 100.933 124.762 101.37 124.715 101.312C125.007 100.865 125.435 100.525 125.935 100.339C126.398 100.073 126.934 99.9607 127.465 100.018Z" fill="#263238"/>
<path d="M201.608 129.038C201.545 129.085 201.203 128.622 200.556 128.375C200.162 128.259 199.759 128.177 199.352 128.128C199.552 128.024 199.775 127.969 200.001 127.969C200.227 127.969 200.45 128.024 200.651 128.128C201.387 128.423 201.676 129.017 201.608 129.038Z" fill="#263238"/>
<path d="M203.561 123.773C203.291 123.258 202.892 122.822 202.404 122.506C201.915 122.19 201.354 122.005 200.773 121.969C200.773 121.938 200.968 121.869 201.299 121.88C201.741 121.905 202.169 122.045 202.541 122.285C202.914 122.524 203.217 122.858 203.419 123.253C203.571 123.568 203.592 123.763 203.561 123.773Z" fill="#263238"/>
<path d="M205.03 117.983C204.664 117.576 204.209 117.259 203.699 117.057C203.19 116.856 202.641 116.775 202.096 116.821C202.096 116.795 202.264 116.7 202.58 116.658C202.993 116.606 203.413 116.661 203.8 116.816C204.186 116.969 204.528 117.217 204.794 117.536C204.993 117.783 205.057 117.973 205.03 117.983Z" fill="#263238"/>
<path d="M206.76 112.424C206.691 112.461 206.418 111.94 205.808 111.63C205.425 111.474 205.026 111.361 204.619 111.293C204.619 111.262 204.756 111.199 205.003 111.183C205.326 111.177 205.644 111.253 205.929 111.404C206.214 111.555 206.457 111.775 206.633 112.045C206.76 112.256 206.786 112.408 206.76 112.424Z" fill="#263238"/>
<path d="M208.779 107.318C208.49 106.95 208.133 106.643 207.727 106.413C207.285 106.25 206.815 106.171 206.344 106.182C206.344 106.155 206.48 106.055 206.759 106.008C207.126 105.964 207.498 106.022 207.833 106.177C208.169 106.332 208.454 106.578 208.658 106.886C208.784 107.128 208.805 107.307 208.779 107.318Z" fill="#263238"/>
<path d="M175.722 100.019C175.694 100.104 175.655 100.185 175.606 100.261L175.238 100.934C174.912 101.512 174.428 102.348 173.818 103.374C173.208 104.4 172.472 105.609 171.63 106.94C171.204 107.602 170.757 108.297 170.273 109.006C169.789 109.75 169.263 110.465 168.696 111.147C168.546 111.334 168.369 111.498 168.17 111.631C168.1 111.672 168.019 111.689 167.938 111.678C167.869 111.667 167.802 111.645 167.739 111.615C167.633 111.555 167.533 111.487 167.439 111.41C167.104 111.117 166.796 110.795 166.518 110.447C165.993 109.785 165.467 109.112 165.03 108.47C164.126 107.176 163.358 105.983 162.721 104.973C162.085 103.963 161.591 103.143 161.254 102.564L160.875 101.896C160.824 101.822 160.785 101.741 160.76 101.654C160.818 101.722 160.871 101.794 160.918 101.87L161.338 102.512C161.722 103.101 162.243 103.9 162.874 104.878C163.505 105.856 164.315 107.05 165.225 108.328C165.682 108.97 166.171 109.632 166.713 110.284C166.983 110.617 167.281 110.926 167.602 111.21C167.76 111.336 167.959 111.473 168.059 111.394C168.231 111.276 168.385 111.134 168.517 110.973C169.081 110.301 169.607 109.599 170.095 108.87C170.579 108.165 171.031 107.476 171.457 106.813C172.309 105.493 173.061 104.294 173.692 103.279C174.323 102.264 174.812 101.486 175.18 100.886L175.596 100.24C175.659 100.087 175.711 100.013 175.722 100.019Z" fill="#263238"/>
<path d="M164.514 107.502C164.483 107.502 164.425 107.323 164.446 107.018C164.486 106.622 164.639 106.246 164.888 105.934C165.132 105.619 165.462 105.381 165.84 105.251C166.129 105.161 166.318 105.177 166.323 105.209C165.858 105.419 165.439 105.721 165.093 106.097C164.804 106.52 164.607 106.999 164.514 107.502Z" fill="#263238"/>
<path d="M167.991 111.646C167.665 110.285 167.654 108.868 167.959 107.502C168.025 108.191 168.037 108.883 167.996 109.574C168.047 110.264 168.045 110.957 167.991 111.646Z" fill="#263238"/>
<path d="M171.893 106.366C171.819 106.366 171.656 105.803 171.109 105.356C170.758 105.113 170.378 104.916 169.979 104.767C169.979 104.735 170.136 104.699 170.389 104.741C170.716 104.8 171.022 104.943 171.278 105.156C171.534 105.368 171.73 105.644 171.845 105.956C171.93 106.213 171.924 106.355 171.893 106.366Z" fill="#263238"/>
<path d="M174.455 102.08C174.285 101.692 174.068 101.326 173.808 100.991C173.487 100.71 173.134 100.468 172.756 100.271C172.756 100.239 172.919 100.223 173.161 100.271C173.477 100.372 173.761 100.553 173.986 100.797C174.214 101.037 174.373 101.332 174.449 101.654C174.512 101.917 174.486 102.075 174.455 102.08Z" fill="#263238"/>
<path d="M161.9 103.584C161.869 103.584 161.784 103.389 161.774 103.058C161.766 102.596 161.876 102.139 162.095 101.732C162.312 101.324 162.629 100.977 163.015 100.723C163.315 100.539 163.541 100.497 163.541 100.523C163.029 100.856 162.609 101.313 162.321 101.852C162.033 102.391 161.887 102.994 161.895 103.605L161.9 103.584Z" fill="#263238"/>
<g opacity="0.4">
<path d="M154.51 86.6228C155.635 90.9457 157.518 97.9877 159.554 103.494C159.629 103.753 159.762 103.993 159.943 104.193C160.469 104.683 161.347 104.383 161.836 103.862C162.25 103.326 162.621 102.758 162.946 102.163C163.112 101.868 163.344 101.615 163.624 101.424C163.904 101.233 164.224 101.11 164.56 101.064C164.836 101.071 165.108 101.139 165.355 101.262C165.602 101.386 165.819 101.563 165.991 101.779C166.33 102.217 166.624 102.687 166.869 103.184C166.925 103.321 167.009 103.445 167.116 103.547C167.223 103.649 167.35 103.728 167.489 103.778C167.559 103.799 167.634 103.799 167.704 103.779C167.774 103.758 167.837 103.717 167.884 103.661C167.931 103.605 167.961 103.536 167.969 103.464C167.977 103.391 167.964 103.317 167.931 103.252L166.133 98.5819C166.133 98.5819 165.307 95.1583 162.451 95.6894C159.254 96.2837 160.705 101.543 160.705 101.543C160.705 101.543 154.463 86.4387 154.51 86.6228Z" fill="black"/>
</g>
<path d="M168.022 103.447C167.958 103.353 167.907 103.25 167.87 103.142C167.775 102.937 167.644 102.616 167.481 102.243C167.16 101.423 166.708 100.287 166.155 98.893C166.013 98.5406 165.861 98.1725 165.698 97.7938C165.544 97.4063 165.321 97.0499 165.04 96.742C164.718 96.4146 164.328 96.1617 163.897 96.001C163.466 95.8402 163.006 95.7754 162.548 95.8111C162.06 95.872 161.603 96.0771 161.233 96.4002C160.892 96.7915 160.648 97.2584 160.523 97.7623C160.377 98.2749 160.34 98.8121 160.412 99.34C160.477 99.9032 160.577 100.462 160.712 101.012C160.76 101.217 160.812 101.423 160.859 101.612L160.607 101.686C159.871 99.5819 159.029 97.6045 158.251 95.8322C157.473 94.0599 156.763 92.4611 156.205 91.099C155.648 89.7369 155.237 88.6377 154.99 87.8594C154.859 87.4755 154.78 87.1704 154.722 86.9601C154.685 86.8583 154.66 86.7523 154.648 86.6445C154.697 86.741 154.737 86.8412 154.769 86.9443C154.843 87.1494 154.938 87.4702 155.085 87.8278C155.358 88.5904 155.795 89.6895 156.373 91.0254C156.952 92.3612 157.672 93.9494 158.477 95.7217C159.282 97.494 160.123 99.461 160.865 101.591L160.618 101.67C160.57 101.475 160.518 101.27 160.465 101.065C160.329 100.502 160.229 99.9313 160.165 99.3558C160.086 98.7853 160.129 98.2044 160.291 97.6518C160.431 97.1096 160.698 96.6084 161.07 96.1898C161.48 95.83 161.99 95.6043 162.532 95.5429C163.026 95.5037 163.522 95.575 163.985 95.7515C164.448 95.9279 164.866 96.2052 165.209 96.5632C165.502 96.8965 165.733 97.2794 165.892 97.6939C166.055 98.0778 166.197 98.4512 166.339 98.8036C166.865 100.208 167.281 101.354 167.586 102.185C167.728 102.564 167.838 102.869 167.928 103.1C167.97 103.213 168.002 103.329 168.022 103.447Z" fill="#263238"/>
<g opacity="0.4">
<path d="M168.274 103.321C168.168 103.394 168.247 103.589 168.373 103.615C168.439 103.622 168.506 103.614 168.569 103.592C168.631 103.57 168.689 103.535 168.736 103.489C169.345 102.904 169.856 102.226 170.251 101.48C170.724 100.775 171.413 100.102 172.26 100.102C173.107 100.102 173.885 100.849 174.327 101.633C174.769 102.416 175.074 103.3 175.715 103.931C178.942 99.2013 181.509 94.0544 183.346 88.6321C182.294 89.3631 181.595 90.5043 180.937 91.6035C179.23 94.4539 177.523 97.3026 175.815 100.15C175.496 99.2986 175.003 98.5232 174.369 97.8723C174.051 97.5483 173.658 97.3063 173.226 97.167C172.794 97.0278 172.334 96.9955 171.887 97.0729C170.893 97.3096 170.198 98.2089 169.715 99.1135C168.997 100.434 168.532 101.877 168.342 103.368" fill="black"/>
</g>
<path d="M235.439 145.451C235.304 145.273 235.19 145.081 235.097 144.878C234.892 144.499 234.608 143.942 234.276 143.253C233.415 141.443 232.644 139.591 231.968 137.705C231.292 135.819 230.713 133.901 230.232 131.956C230.048 131.21 229.916 130.605 229.832 130.179C229.779 129.963 229.746 129.743 229.732 129.521C229.821 129.726 229.888 129.939 229.932 130.158C230.058 130.621 230.222 131.21 230.411 131.909C230.821 133.387 231.426 135.417 232.215 137.62C233.004 139.824 233.824 141.775 234.445 143.174C234.744 143.837 234.97 144.394 235.186 144.831C235.291 145.028 235.376 145.236 235.439 145.451Z" fill="#263238"/>
<path d="M230.437 144.462C230.348 144.279 230.277 144.087 230.227 143.889C230.106 143.511 229.953 142.964 229.785 142.28C228.925 138.702 228.634 135.01 228.923 131.341C228.98 130.642 229.044 130.074 229.107 129.684C229.12 129.48 229.161 129.278 229.228 129.085C229.25 129.288 229.25 129.492 229.228 129.695C229.196 130.084 229.165 130.652 229.128 131.352C228.946 135.002 229.234 138.661 229.985 142.238C230.132 142.927 230.253 143.479 230.348 143.863C230.403 144.058 230.433 144.26 230.437 144.462Z" fill="#263238"/>
<path d="M246.509 98.4249C246.648 98.4604 246.782 98.5115 246.909 98.5774L246.988 98.6142L246.909 98.6458C243.634 99.7433 240.284 100.601 236.885 101.212C233.95 101.738 231.263 102.064 229.317 102.222C228.344 102.301 227.555 102.348 227.008 102.364C226.725 102.389 226.44 102.389 226.156 102.364C226.434 102.309 226.715 102.274 226.998 102.259L229.301 102.033C231.237 101.828 233.913 101.507 236.837 100.949C241.718 100.06 245.731 98.8772 246.903 98.5722V98.6353C246.764 98.5814 246.631 98.5108 246.509 98.4249Z" fill="#263238"/>
<path d="M241.98 96.1423C241.98 96.1423 242.027 96.0582 242.19 96.0108C242.308 95.9864 242.429 95.9874 242.546 96.0137C242.663 96.04 242.773 96.0911 242.869 96.1634C243.022 96.2625 243.144 96.4031 243.22 96.5688C243.297 96.7346 243.324 96.9186 243.3 97.0995C243.279 97.21 243.233 97.3145 243.167 97.4055C243.101 97.4964 243.015 97.5715 242.916 97.6254C242.712 97.7414 242.475 97.7858 242.243 97.7516C242.011 97.7213 241.794 97.6203 241.622 97.4623C241.542 97.3835 241.479 97.2892 241.437 97.1853C241.394 97.0813 241.373 96.9698 241.375 96.8575C241.387 96.6776 241.445 96.5038 241.544 96.3527C241.642 96.2017 241.778 96.0785 241.938 95.9951C242.143 95.8765 242.384 95.8372 242.616 95.8846C242.779 95.9267 242.842 96.0003 242.837 96.0108C242.561 95.9525 242.272 96.0033 242.032 96.1528C241.911 96.2278 241.81 96.3311 241.738 96.4539C241.665 96.5766 241.624 96.7152 241.617 96.8575C241.629 97.0256 241.703 97.1833 241.824 97.2999C241.946 97.4165 242.106 97.4838 242.274 97.4886C242.437 97.5286 242.609 97.5052 242.756 97.4232C242.902 97.3412 243.012 97.2067 243.063 97.0469C243.073 96.9286 243.058 96.8097 243.019 96.6975C242.981 96.5852 242.92 96.4821 242.84 96.3943C242.76 96.3066 242.663 96.2362 242.555 96.1874C242.447 96.1386 242.33 96.1125 242.211 96.1108C242.064 96.1213 241.99 96.1686 241.98 96.1423Z" fill="#263238"/>
<path d="M163.829 107.266C163.739 107.356 163.642 107.44 163.54 107.518C163.34 107.665 163.067 107.918 162.672 108.181C161.578 108.963 160.406 109.63 159.175 110.174C157.347 110.983 155.413 111.532 153.432 111.804C152.263 111.962 151.083 112.025 149.903 111.994C148.637 111.949 147.377 111.792 146.138 111.525C143.592 110.952 141.299 110.016 139.138 109.422C138.125 109.131 137.088 108.927 136.04 108.812C135.122 108.721 134.196 108.731 133.279 108.843C131.954 108.979 130.679 109.428 129.561 110.153C129.165 110.44 128.785 110.747 128.42 111.073C128.731 110.688 129.096 110.35 129.503 110.069C130.621 109.298 131.91 108.814 133.258 108.659C134.183 108.538 135.117 108.519 136.046 108.601C137.113 108.707 138.169 108.906 139.201 109.196C141.384 109.764 143.677 110.695 146.19 111.263C147.416 111.524 148.662 111.681 149.914 111.731C151.079 111.762 152.245 111.704 153.401 111.557C155.365 111.296 157.283 110.765 159.101 109.979C160.331 109.459 161.508 108.822 162.615 108.076C163.02 107.828 163.298 107.592 163.509 107.455C163.608 107.38 163.716 107.317 163.829 107.266Z" fill="#FAFAFA"/>
<path d="M197.248 128.901C197.192 128.883 197.139 128.858 197.09 128.827L196.632 128.591C196.432 128.491 196.175 128.386 195.875 128.249C195.575 128.112 195.218 127.991 194.823 127.886C192.483 127.28 190.038 127.192 187.66 127.628C186.014 127.897 184.386 128.266 182.785 128.733C181.05 129.206 179.198 129.758 177.21 130.163C175.124 130.621 172.979 130.753 170.852 130.552C168.582 130.279 166.35 129.749 164.199 128.975C161.975 128.228 159.85 127.397 157.762 126.697C155.77 125.997 153.715 125.491 151.625 125.188C148.072 124.719 144.462 124.915 140.98 125.767C139.647 126.103 138.336 126.527 137.057 127.034C136.505 127.276 135.979 127.492 135.511 127.718C135.043 127.944 134.617 128.149 134.244 128.359L133.25 128.912L132.54 129.353L132.103 129.616C132.056 129.653 132.002 129.682 131.945 129.7L132.087 129.595L132.513 129.306C132.697 129.185 132.929 129.022 133.207 128.848L134.191 128.27C134.564 128.054 134.996 127.849 135.458 127.607C135.921 127.365 136.447 127.15 137.005 126.897C138.284 126.374 139.596 125.937 140.933 125.588C144.436 124.703 148.074 124.487 151.656 124.951C153.764 125.25 155.837 125.753 157.846 126.456C159.95 127.15 162.054 127.981 164.278 128.727C166.413 129.498 168.626 130.027 170.878 130.305C172.98 130.512 175.1 130.387 177.163 129.937C179.14 129.543 180.986 129.001 182.727 128.533C184.339 128.073 185.978 127.713 187.634 127.455C190.021 127.028 192.473 127.138 194.813 127.776C195.228 127.891 195.58 128.049 195.891 128.165C196.201 128.28 196.443 128.417 196.643 128.528L197.085 128.791C197.2 128.864 197.253 128.896 197.248 128.901Z" fill="#FAFAFA"/>
<path d="M170.746 106.871C171.189 106.995 171.638 107.094 172.092 107.165C173.336 107.305 174.594 107.205 175.8 106.871C177.579 106.326 179.323 105.673 181.022 104.914C182.052 104.497 183.119 104.18 184.209 103.968C185.384 103.758 186.579 103.689 187.77 103.763C190.067 103.912 192.323 104.446 194.444 105.34C196.168 106.068 197.831 106.932 199.419 107.923C200.781 108.754 201.848 109.5 202.574 109.979C202.927 110.221 203.205 110.415 203.416 110.568C203.517 110.631 203.612 110.703 203.7 110.784C203.59 110.737 203.486 110.679 203.389 110.61L202.522 110.084C201.764 109.611 200.686 108.911 199.314 108.101C197.72 107.142 196.059 106.301 194.344 105.582C192.244 104.7 190.015 104.167 187.744 104.005C186.572 103.936 185.397 104.001 184.241 104.199C183.162 104.408 182.106 104.718 181.085 105.125C179.129 105.882 177.404 106.703 175.826 107.034C174.599 107.361 173.318 107.434 172.061 107.249C171.606 107.189 171.163 107.061 170.746 106.871Z" fill="#FAFAFA"/>
<path d="M201.485 93.6811C201.243 93.7757 200.993 93.8513 200.738 93.9072C200.491 93.9756 200.213 94.0492 199.844 94.1176C199.476 94.186 199.098 94.2806 198.651 94.3437C197.606 94.5191 196.553 94.6332 195.495 94.6856C194.216 94.7503 192.934 94.7362 191.656 94.6435C190.369 94.5275 189.09 94.3308 187.827 94.0545C186.797 93.8252 185.78 93.5372 184.782 93.192C184.356 93.0553 183.983 92.8922 183.646 92.766C183.31 92.6398 183.031 92.5136 182.805 92.4084C182.562 92.3111 182.328 92.1932 182.105 92.056C182.358 92.121 182.604 92.2072 182.842 92.3137C183.078 92.4084 183.368 92.5188 183.699 92.6293C184.03 92.7397 184.414 92.8922 184.84 93.0185C185.692 93.2919 186.723 93.5707 187.875 93.8231C190.385 94.3567 192.952 94.5741 195.516 94.47C196.694 94.4174 197.757 94.3175 198.64 94.1912C199.087 94.1386 199.482 94.0598 199.834 94.0019C200.186 93.9441 200.486 93.8862 200.728 93.8336C200.975 93.7577 201.228 93.7067 201.485 93.6811Z" fill="#FAFAFA"/>
<path d="M127.424 97.0571C127.493 96.9838 127.569 96.9169 127.65 96.8573C127.808 96.7311 128.039 96.5418 128.344 96.3314C128.949 95.8686 129.832 95.2165 130.974 94.4591C133.903 92.438 137.112 90.8542 140.498 89.7575C143.905 88.6737 147.523 88.4213 151.048 89.0212C152.108 89.216 153.148 89.5137 154.151 89.91C154.508 90.0415 154.771 90.1835 154.955 90.2624C155.049 90.3 155.139 90.3476 155.223 90.4044C155.223 90.4044 154.829 90.2624 154.119 90.0047C153.111 89.6448 152.073 89.3772 151.016 89.2053C147.519 88.665 143.945 88.9385 140.572 90.0047C137.221 91.1027 134.036 92.6526 131.105 94.6117C129.964 95.3479 129.059 95.979 128.439 96.4155L127.718 96.9414C127.626 96.9938 127.527 97.0327 127.424 97.0571Z" fill="#FAFAFA"/>
<path d="M193.613 152.209C193.567 152.231 193.517 152.245 193.466 152.252L193.024 152.346C192.785 152.4 192.543 152.437 192.298 152.457L191.836 152.509H191.31C189.8 152.572 187.628 152.183 185.067 151.363C183.784 150.963 182.395 150.469 180.886 150.022C179.282 149.545 177.635 149.226 175.969 149.07C172.44 148.733 168.538 149.159 164.52 149.89C160.502 150.621 156.684 151.531 153.15 151.952C150.021 152.391 146.848 152.41 143.715 152.01C141.602 151.733 139.548 151.113 137.635 150.174L136.752 149.711L136.121 149.338L135.742 149.091L135.621 149.001C135.67 149.017 135.716 149.04 135.758 149.07L136.147 149.291L136.778 149.664L137.667 150.106C139.585 151.001 141.631 151.59 143.731 151.852C146.848 152.22 150 152.181 153.108 151.736C156.626 151.3 160.423 150.385 164.462 149.633C168.501 148.88 172.419 148.476 175.979 148.833C177.659 148.996 179.319 149.326 180.933 149.817C182.448 150.274 183.836 150.774 185.109 151.184C187.094 151.919 189.184 152.333 191.299 152.409H191.825L192.288 152.367C192.532 152.358 192.774 152.33 193.014 152.283L193.455 152.215L193.613 152.209Z" fill="#FAFAFA"/>
<g opacity="0.3">
<path d="M147.279 155.833C149.662 161.781 154.274 166.004 160.622 166.877C166.97 167.75 173.391 166.298 179.555 164.616C168.316 163.038 158.371 161.486 147.264 155.833" fill="black"/>
</g>
<path d="M195.222 172.189L195.069 172.131L194.622 171.942L192.924 171.184C191.441 170.537 189.321 169.538 186.676 168.392C185.237 167.763 183.747 167.258 182.222 166.882C180.472 166.464 178.659 166.38 176.878 166.635C175.916 166.777 174.967 166.993 174.038 167.282C173.073 167.584 172.123 167.935 171.193 168.334C169.295 169.165 167.407 170.196 165.461 171.237C163.578 172.282 161.624 173.192 159.613 173.961C157.731 174.684 155.742 175.088 153.728 175.155C151.898 175.176 150.084 174.818 148.4 174.103C146.953 173.48 145.547 172.763 144.193 171.957C142.936 171.237 141.805 170.585 140.78 170.085C139.905 169.645 138.995 169.275 138.061 168.981C137.716 168.867 137.365 168.774 137.009 168.702C136.757 168.636 136.5 168.586 136.241 168.555L135.763 168.476C135.707 168.472 135.652 168.462 135.6 168.444C135.654 168.436 135.709 168.436 135.763 168.444L136.246 168.497C136.509 168.52 136.769 168.562 137.025 168.623C137.38 168.686 137.731 168.77 138.077 168.875C139.02 169.151 139.94 169.503 140.827 169.927C141.879 170.416 143.01 171.063 144.267 171.768C145.622 172.56 147.027 173.263 148.474 173.872C150.139 174.564 151.93 174.906 153.733 174.876C155.714 174.798 157.669 174.393 159.518 173.677C161.507 172.908 163.44 172.002 165.303 170.963C167.244 169.911 169.137 168.891 171.051 168.06C171.99 167.649 172.951 167.287 173.928 166.977C174.871 166.692 175.835 166.477 176.81 166.335C178.618 166.083 180.458 166.176 182.232 166.609C183.769 167.001 185.269 167.529 186.713 168.187C189.342 169.359 191.446 170.38 192.929 171.058L194.607 171.857L195.043 172.073C195.175 172.157 195.227 172.183 195.222 172.189Z" fill="#FAFAFA"/>
</svg>
