<svg width="40" height="40" viewBox="0 0 40 40" fill="none" xmlns="http://www.w3.org/2000/svg">
<path opacity="0.4" d="M36.6673 20C36.6673 25.0223 34.4459 29.5258 30.932 32.5814C28.0058 35.1261 24.1831 36.6667 20.0007 36.6667C15.8182 36.6667 11.9955 35.1261 9.06926 32.5814C5.5554 29.5258 3.33398 25.0223 3.33398 20C3.33398 10.7953 10.7959 3.33337 20.0007 3.33337C29.2054 3.33337 36.6673 10.7953 36.6673 20Z" fill="#1A1A1A"/>
<circle cx="20" cy="16.6667" r="5" fill="#1A1A1A"/>
<path d="M30.9311 32.5815C29.2754 28.1531 25.0058 25.0001 19.9997 25.0001C14.9937 25.0001 10.7241 28.1531 9.06836 32.5815C11.9946 35.1262 15.8173 36.6668 19.9997 36.6668C24.1822 36.6668 28.0049 35.1262 30.9311 32.5815Z" fill="#1A1A1A"/>
</svg>
