<svg width="120" height="120" viewBox="0 0 120 120" fill="none" xmlns="http://www.w3.org/2000/svg">
<g clip-path="url(#clip0_1234_5161)">
<path d="M56.2591 4.66346C58.3195 6.02963 61.691 6.02963 63.7483 4.66346L69.1891 1.04846C71.2483 -0.319586 74.0156 0.270804 75.3398 2.35885L78.8395 7.87815C80.1637 9.96502 83.2418 11.3354 85.6788 10.9231L92.1203 9.83166C94.5581 9.41893 96.8489 11.0814 97.2077 13.5271L98.163 19.9801C98.5254 22.4263 100.778 24.9343 103.173 25.5512L109.494 27.1815C111.89 27.8007 113.304 30.2558 112.639 32.6368L110.888 38.9103C110.223 41.2911 111.263 44.4981 113.2 46.0353L118.331 50.1057C120.268 51.643 120.562 54.4576 118.986 56.3638L114.82 61.3923C113.245 63.2966 112.893 66.6484 114.037 68.8395L117.062 74.623C118.207 76.8153 117.334 79.5083 115.119 80.6073L109.267 83.5119C107.053 84.6116 105.369 87.5312 105.524 89.9985L105.928 96.5127C106.084 98.9788 104.188 101.085 101.716 101.191L95.1932 101.467C92.7236 101.573 89.9978 103.555 89.1344 105.873L86.8652 111.987C86.0018 114.306 83.4159 115.459 81.1171 114.549L75.0398 112.147C72.7425 111.237 69.4455 111.937 67.7151 113.704L63.1509 118.366C61.4198 120.132 58.5897 120.132 56.8575 118.368L52.286 113.703C50.5544 111.938 47.2575 111.238 44.9587 112.148L38.8844 114.55C36.5859 115.46 33.9998 114.307 33.1382 111.987L30.8636 105.874C30.0014 103.556 27.2756 101.573 24.8048 101.467L18.284 101.191C15.8125 101.086 13.9183 98.979 14.0725 96.5131L14.4806 89.9989C14.6341 87.5324 12.9482 84.6121 10.7341 83.5124L4.8841 80.6077C2.67019 79.5085 1.7948 76.8163 2.94019 74.6235L5.9655 68.84C7.11019 66.6488 6.75816 63.2973 5.18011 61.3946L1.0141 56.3596C-0.562778 54.4564 -0.267465 51.6418 1.66871 50.1046L6.80105 46.0342C8.73722 44.4969 9.77832 41.2918 9.1141 38.9099L7.3591 32.6338C6.69441 30.253 8.1091 27.7996 10.5025 27.1841L16.8283 25.5503C19.2218 24.9341 21.4771 22.426 21.8383 19.9799L22.7929 13.5268C23.1548 11.0811 25.4444 9.41869 27.8814 9.83143L34.3237 10.9229C36.7614 11.3352 39.839 9.96479 41.1614 7.87791L44.6594 2.35862C45.9818 0.27057 48.7509 -0.319821 50.8118 1.04823L56.2591 4.66346Z" fill="#A2F6BE"/>
<path d="M98.825 60.0642C98.825 81.5065 81.4412 98.8884 60.0008 98.8884C38.5616 98.8884 21.1777 81.5065 21.1777 60.0642C21.1777 38.6285 38.5609 21.2461 60.0008 21.2461C81.4412 21.2461 98.825 38.6285 98.825 60.0642Z" fill="#12BA4A"/>
<path d="M53.5263 78.2027L37.9863 62.662L43.1637 57.4823L53.5263 67.8431L76.8352 44.5312L82.0125 49.7128L53.5263 78.2027Z" fill="white"/>
</g>
<defs>
<clipPath id="clip0_1234_5161">
<rect width="120" height="120" fill="white"/>
</clipPath>
</defs>
</svg>
