<svg width="122" height="135" viewBox="0 0 122 135" fill="none" xmlns="http://www.w3.org/2000/svg">
<path d="M27.5906 108.645H97.4621C99.3825 108.649 101.234 107.924 102.645 106.613C108.531 101.13 113.24 94.4946 116.482 87.1133C119.724 79.7321 121.431 71.7616 121.497 63.6921C121.798 30.8804 95.2859 3.88229 62.6694 3.80486C30.0345 3.72738 3.55473 30.319 3.55473 63.1326C3.54541 71.2996 5.21699 79.3801 8.46421 86.8653C11.7114 94.3506 16.464 101.078 22.4226 106.625C23.8306 107.93 25.6764 108.651 27.5906 108.645Z" fill="#F8F8F8"/>
<path d="M49.3675 89.2519C48.6194 89.2042 47.8827 89.4531 47.3169 89.9446C46.046 89.3584 44.7139 89.3445 43.7223 90.0457C42.7307 90.7469 42.2998 92.0074 42.4289 93.401C41.7768 93.7707 41.2966 94.3823 41.0922 95.1034C40.6127 96.9471 42.2741 98.9749 44.8032 99.6328C46.6265 100.107 48.3987 99.7366 49.4279 98.804C49.6656 98.6828 49.8845 98.528 50.0779 98.3444C51.3003 97.6849 52.2402 96.1375 52.4008 94.2604C52.6236 91.6567 51.2655 89.4142 49.3675 89.2519Z" fill="#B3B3B3"/>
<path d="M106.214 10.6016C105.287 10.6016 104.369 10.7841 103.513 11.1389C102.656 11.4936 101.878 12.0135 101.223 12.669C100.567 13.3244 100.047 14.1026 99.6927 14.9589C99.338 15.8153 99.1554 16.7332 99.1554 17.6601C99.1554 17.6648 99.1558 17.6694 99.1558 17.6742L93.8672 16.6222V24.7187H106.214C107.141 24.7193 108.06 24.5371 108.917 24.1827C109.773 23.8282 110.552 23.3084 111.208 22.6529C111.864 21.9973 112.384 21.219 112.739 20.3623C113.094 19.5057 113.277 18.5874 113.277 17.6601C113.277 16.7328 113.094 15.8146 112.739 14.9579C112.384 14.1013 111.864 13.3229 111.208 12.6674C110.552 12.0119 109.773 11.4921 108.917 11.1376C108.06 10.7831 107.141 10.601 106.214 10.6016V10.6016Z" fill="white" stroke="#E6E6E6" stroke-width="1.63812" stroke-miterlimit="10"/>
<mask id="path-4-inside-1_1234_4869" fill="white">
<path d="M100.962 22.3632C102.492 21.2204 103.724 19.7249 104.552 18.0039C105.38 16.2829 105.78 14.3873 105.719 12.4784C105.657 10.5694 105.136 8.70357 104.198 7.03948C103.261 5.37539 101.936 3.96228 100.335 2.92034C98.7343 1.8784 96.9056 1.23845 95.0045 1.0549C93.1034 0.871349 91.1861 1.14963 89.4157 1.86609C87.6452 2.58255 86.0739 3.71598 84.8355 5.17C83.5971 6.62402 82.7281 8.35562 82.3025 10.2175C81.3011 10.0228 80.2701 10.0397 79.2755 10.2669C78.281 10.4942 77.345 10.9269 76.5275 11.5373C75.7101 12.1477 75.0293 12.9222 74.5289 13.8112C74.0284 14.7002 73.7194 15.684 73.6216 16.6995C73.5238 17.7149 73.6394 18.7396 73.961 19.7078C74.2826 20.676 74.803 21.5662 75.489 22.3213C76.1749 23.0765 77.0111 23.6799 77.944 24.0928C78.8769 24.5057 79.8858 24.719 80.9059 24.719H93.8662"/>
</mask>
<path d="M100.962 22.3632C102.492 21.2204 103.724 19.7249 104.552 18.0039C105.38 16.2829 105.78 14.3873 105.719 12.4784C105.657 10.5694 105.136 8.70357 104.198 7.03948C103.261 5.37539 101.936 3.96228 100.335 2.92034C98.7343 1.8784 96.9056 1.23845 95.0045 1.0549C93.1034 0.871349 91.1861 1.14963 89.4157 1.86609C87.6452 2.58255 86.0739 3.71598 84.8355 5.17C83.5971 6.62402 82.7281 8.35562 82.3025 10.2175C81.3011 10.0228 80.2701 10.0397 79.2755 10.2669C78.281 10.4942 77.345 10.9269 76.5275 11.5373C75.7101 12.1477 75.0293 12.9222 74.5289 13.8112C74.0284 14.7002 73.7194 15.684 73.6216 16.6995C73.5238 17.7149 73.6394 18.7396 73.961 19.7078C74.2826 20.676 74.803 21.5662 75.489 22.3213C76.1749 23.0765 77.0111 23.6799 77.944 24.0928C78.8769 24.5057 79.8858 24.719 80.9059 24.719H93.8662" fill="white"/>
<path d="M82.3025 10.2175L82.2504 10.4855L82.5098 10.536L82.5687 10.2784L82.3025 10.2175ZM80.9059 24.719V24.446H80.9059L80.9059 24.719ZM101.125 22.582C102.69 21.4128 103.95 19.8829 104.798 18.1223L104.306 17.8855C103.497 19.5669 102.293 21.0279 100.798 22.1445L101.125 22.582ZM104.798 18.1223C105.645 16.3617 106.055 14.4225 105.992 12.4696L105.446 12.4872C105.506 14.3522 105.115 16.2041 104.306 17.8855L104.798 18.1223ZM105.992 12.4696C105.929 10.5167 105.395 8.60788 104.436 6.90548L103.961 7.17347C104.876 8.79926 105.386 10.6222 105.446 12.4872L105.992 12.4696ZM104.436 6.90548C103.477 5.20308 102.121 3.75745 100.484 2.69153L100.186 3.14916C101.75 4.16711 103.045 5.54769 103.961 7.17347L104.436 6.90548ZM100.484 2.69153C98.8464 1.6256 96.9756 0.970918 95.0308 0.783142L94.9783 1.32666C96.8356 1.50598 98.6222 2.1312 100.186 3.14916L100.484 2.69153ZM95.0308 0.783142C93.0859 0.595367 91.1245 0.880059 89.3132 1.61301L89.5181 2.11917C91.2478 1.41921 93.121 1.14733 94.9783 1.32666L95.0308 0.783142ZM89.3132 1.61301C87.502 2.34595 85.8946 3.50548 84.6277 4.99297L85.0434 5.34703C86.2533 3.92648 87.7884 2.81914 89.5181 2.11917L89.3132 1.61301ZM84.6277 4.99297C83.3607 6.48046 82.4718 8.25192 82.0364 10.1567L82.5687 10.2784C82.9845 8.45931 83.8335 6.76758 85.0434 5.34703L84.6277 4.99297ZM82.3547 9.94953C81.3159 9.74756 80.2463 9.76502 79.2147 10.0008L79.3363 10.5331C80.2938 10.3143 81.2864 10.2981 82.2504 10.4855L82.3547 9.94953ZM79.2147 10.0008C78.1831 10.2365 77.2121 10.6854 76.3642 11.3185L76.6909 11.7561C77.4778 11.1685 78.3789 10.7519 79.3363 10.5331L79.2147 10.0008ZM76.3642 11.3185C75.5162 11.9517 74.8101 12.7551 74.291 13.6773L74.7668 13.9451C75.2486 13.0893 75.9039 12.3437 76.6909 11.7561L76.3642 11.3185ZM74.291 13.6773C73.7718 14.5994 73.4513 15.6199 73.3498 16.6733L73.8934 16.7256C73.9875 15.7481 74.285 14.801 74.7668 13.9451L74.291 13.6773ZM73.3498 16.6733C73.2484 17.7267 73.3683 18.7896 73.7019 19.7939L74.2201 19.6217C73.9105 18.6897 73.7992 17.7032 73.8934 16.7256L73.3498 16.6733ZM73.7019 19.7939C74.0355 20.7982 74.5753 21.7216 75.2869 22.5049L75.6911 22.1378C75.0307 21.4108 74.5297 20.5538 74.2201 19.6217L73.7019 19.7939ZM75.2869 22.5049C75.9984 23.2882 76.8658 23.9141 77.8335 24.3425L78.0545 23.8431C77.1564 23.4456 76.3514 22.8648 75.6911 22.1378L75.2869 22.5049ZM77.8335 24.3425C78.8012 24.7708 79.8477 24.992 80.906 24.992L80.9059 24.446C79.9238 24.446 78.9526 24.2406 78.0545 23.8431L77.8335 24.3425ZM80.9059 24.992H93.8662V24.446H80.9059V24.992Z" fill="#E6E6E6" mask="url(#path-4-inside-1_1234_4869)"/>
<path d="M100.962 22.3632C102.492 21.2204 103.724 19.7249 104.552 18.0039C105.38 16.2829 105.78 14.3873 105.719 12.4784C105.657 10.5694 105.136 8.70357 104.198 7.03948C103.261 5.37539 101.936 3.96228 100.335 2.92034C98.7343 1.8784 96.9056 1.23845 95.0045 1.0549C93.1034 0.871349 91.1861 1.14963 89.4157 1.86609C87.6452 2.58255 86.0739 3.71598 84.8355 5.17C83.5971 6.62402 82.7281 8.35562 82.3025 10.2175C81.3011 10.0228 80.2701 10.0397 79.2755 10.2669C78.281 10.4942 77.345 10.9269 76.5275 11.5373C75.7101 12.1477 75.0293 12.9222 74.5289 13.8112C74.0284 14.7002 73.7194 15.684 73.6216 16.6995C73.5238 17.7149 73.6394 18.7396 73.961 19.7078C74.2826 20.676 74.803 21.5662 75.489 22.3213C76.1749 23.0765 77.0111 23.6799 77.944 24.0928C78.8769 24.5057 79.8858 24.719 80.9059 24.719H96.431" stroke="#E6E6E6" stroke-width="1.63812" stroke-linecap="round" stroke-linejoin="round"/>
<path d="M82.0078 12.8595C82.0078 9.71415 83.2573 6.69765 85.4814 4.47356C87.7055 2.24948 90.722 1 93.8673 1C97.0126 1 100.029 2.24948 102.253 4.47356C104.477 6.69765 105.727 9.71415 105.727 12.8595" stroke="#E6E6E6" stroke-width="1.63812" stroke-linecap="round" stroke-linejoin="round"/>
<path d="M34.1261 52.082C33.1991 52.082 32.2813 52.2646 31.4249 52.6193C30.5685 52.9741 29.7904 53.494 29.1349 54.1494C28.4795 54.8049 27.9595 55.583 27.6048 56.4394C27.2501 57.2958 27.0675 58.2137 27.0675 59.1406C27.0675 59.1453 27.0679 59.1499 27.0679 59.1546L21.7793 58.1027V66.1992H34.1261C35.9981 66.1992 37.7935 65.4555 39.1172 64.1318C40.441 62.808 41.1847 61.0126 41.1847 59.1406C41.1847 57.2685 40.441 55.4732 39.1172 54.1494C37.7935 52.8257 35.9981 52.082 34.1261 52.082Z" fill="white" stroke="#E6E6E6" stroke-width="1.63812" stroke-miterlimit="10"/>
<mask id="path-9-inside-2_1234_4869" fill="white">
<path d="M28.8737 63.8437C30.404 62.7009 31.6356 61.2054 32.4639 59.4844C33.2922 57.7634 33.6926 55.8678 33.6311 53.9588C33.5696 52.0499 33.0479 50.184 32.1106 48.5199C31.1732 46.8559 29.8478 45.4428 28.2471 44.4008C26.6464 43.3589 24.8178 42.7189 22.9167 42.5354C21.0156 42.3518 19.0982 42.6301 17.3278 43.3466C15.5573 44.063 13.9861 45.1964 12.7476 46.6505C11.5092 48.1045 10.6402 49.8361 10.2147 51.698C9.21323 51.5033 8.18217 51.5201 7.18764 51.7474C6.1931 51.9747 5.25708 52.4074 4.43964 53.0178C3.62221 53.6281 2.94142 54.4027 2.44098 55.2917C1.94054 56.1807 1.6315 57.1645 1.5337 58.1799C1.43591 59.1954 1.55151 60.2201 1.87309 61.1883C2.19468 62.1564 2.71514 63.0467 3.40107 63.8018C4.08699 64.557 4.92323 65.1604 5.85611 65.5733C6.78899 65.9862 7.79789 66.1995 8.81807 66.1994H21.7784"/>
</mask>
<path d="M28.8737 63.8437C30.404 62.7009 31.6356 61.2054 32.4639 59.4844C33.2922 57.7634 33.6926 55.8678 33.6311 53.9588C33.5696 52.0499 33.0479 50.184 32.1106 48.5199C31.1732 46.8559 29.8478 45.4428 28.2471 44.4008C26.6464 43.3589 24.8178 42.7189 22.9167 42.5354C21.0156 42.3518 19.0982 42.6301 17.3278 43.3466C15.5573 44.063 13.9861 45.1964 12.7476 46.6505C11.5092 48.1045 10.6402 49.8361 10.2147 51.698C9.21323 51.5033 8.18217 51.5201 7.18764 51.7474C6.1931 51.9747 5.25708 52.4074 4.43964 53.0178C3.62221 53.6281 2.94142 54.4027 2.44098 55.2917C1.94054 56.1807 1.6315 57.1645 1.5337 58.1799C1.43591 59.1954 1.55151 60.2201 1.87309 61.1883C2.19468 62.1564 2.71514 63.0467 3.40107 63.8018C4.08699 64.557 4.92323 65.1604 5.85611 65.5733C6.78899 65.9862 7.79789 66.1995 8.81807 66.1994H21.7784" fill="white"/>
<path d="M10.2147 51.698L10.1625 51.966L10.4219 52.0164L10.4808 51.7588L10.2147 51.698ZM8.81807 66.1994V65.9264H8.81806L8.81807 66.1994ZM29.037 64.0624C30.6026 62.8933 31.8626 61.3634 32.7099 59.6028L32.2179 59.366C31.4087 61.0473 30.2054 62.5084 28.7103 63.6249L29.037 64.0624ZM32.7099 59.6028C33.5573 57.8422 33.9669 55.9029 33.904 53.95L33.3582 53.9676C33.4183 55.8326 33.0271 57.6846 32.2179 59.366L32.7099 59.6028ZM33.904 53.95C33.841 51.9972 33.3074 50.0883 32.3484 48.386L31.8727 48.6539C32.7885 50.2797 33.2981 52.1026 33.3582 53.9676L33.904 53.95ZM32.3484 48.386C31.3895 46.6836 30.0336 45.2379 28.396 44.172L28.0982 44.6296C29.662 45.6476 30.9569 47.0282 31.8727 48.6539L32.3484 48.386ZM28.396 44.172C26.7585 43.1061 24.8878 42.4514 22.9429 42.2636L22.8904 42.8071C24.7478 42.9864 26.5343 43.6117 28.0982 44.6296L28.396 44.172ZM22.9429 42.2636C20.998 42.0758 19.0366 42.3605 17.2254 43.0935L17.4302 43.5996C19.1599 42.8997 21.0331 42.6278 22.8904 42.8071L22.9429 42.2636ZM17.2254 43.0935C15.4141 43.8264 13.8067 44.9859 12.5398 46.4734L12.9555 46.8275C14.1654 45.4069 15.7005 44.2996 17.4302 43.5996L17.2254 43.0935ZM12.5398 46.4734C11.2728 47.9609 10.3839 49.7324 9.9485 51.6372L10.4808 51.7588C10.8966 49.9398 11.7456 48.248 12.9555 46.8275L12.5398 46.4734ZM10.2668 51.43C9.22798 51.228 8.15845 51.2455 7.12681 51.4812L7.24846 52.0136C8.20589 51.7948 9.19849 51.7786 10.1625 51.966L10.2668 51.43ZM7.12681 51.4812C6.09517 51.717 5.12423 52.1659 4.27629 52.799L4.60299 53.2365C5.38993 52.6489 6.29103 52.2324 7.24846 52.0136L7.12681 51.4812ZM4.27629 52.799C3.42836 53.4321 2.72218 54.2356 2.20306 55.1577L2.67889 55.4256C3.16066 54.5698 3.81605 53.8241 4.60299 53.2365L4.27629 52.799ZM2.20306 55.1577C1.68395 56.0799 1.36339 57.1004 1.26194 58.1538L1.80547 58.2061C1.89962 57.2285 2.19712 56.2814 2.67889 55.4256L2.20306 55.1577ZM1.26194 58.1538C1.16049 59.2071 1.28041 60.2701 1.61399 61.2743L2.1322 61.1022C1.82261 60.1702 1.71132 59.1837 1.80547 58.2061L1.26194 58.1538ZM1.61399 61.2743C1.94757 62.2786 2.48745 63.2021 3.19897 63.9854L3.60316 63.6182C2.94282 62.8913 2.44178 62.0343 2.1322 61.1022L1.61399 61.2743ZM3.19897 63.9854C3.91049 64.7687 4.77793 65.3946 5.74561 65.8229L5.96661 65.3236C5.06854 64.9261 4.2635 64.3452 3.60316 63.6182L3.19897 63.9854ZM5.74561 65.8229C6.71329 66.2512 7.75984 66.4725 8.81807 66.4725L8.81806 65.9264C7.83595 65.9264 6.86469 65.7211 5.96661 65.3236L5.74561 65.8229ZM8.81807 66.4725H21.7784V65.9264H8.81807V66.4725Z" fill="#E6E6E6" mask="url(#path-9-inside-2_1234_4869)"/>
<path d="M28.8737 63.8437C30.404 62.7009 31.6356 61.2054 32.4639 59.4844C33.2922 57.7634 33.6926 55.8678 33.6311 53.9588C33.5696 52.0499 33.0479 50.184 32.1106 48.5199C31.1732 46.8559 29.8478 45.4428 28.2471 44.4008C26.6464 43.3589 24.8178 42.7189 22.9167 42.5354C21.0156 42.3518 19.0982 42.6301 17.3278 43.3466C15.5573 44.063 13.9861 45.1964 12.7476 46.6505C11.5092 48.1045 10.6402 49.8361 10.2147 51.698C9.21323 51.5033 8.18217 51.5201 7.18764 51.7474C6.1931 51.9747 5.25708 52.4074 4.43964 53.0178C3.62221 53.6281 2.94142 54.4027 2.44098 55.2917C1.94054 56.1807 1.6315 57.1645 1.5337 58.1799C1.43591 59.1954 1.55151 60.2201 1.87309 61.1883C2.19468 62.1564 2.71514 63.0467 3.40107 63.8018C4.08699 64.557 4.92323 65.1604 5.85611 65.5733C6.78899 65.9862 7.79789 66.1995 8.81807 66.1994H24.3431" stroke="#E6E6E6" stroke-width="1.63812" stroke-linecap="round" stroke-linejoin="round"/>
<path d="M9.91797 54.3399C9.91797 52.7825 10.2247 51.2404 10.8207 49.8015C11.4167 48.3627 12.2903 47.0553 13.3915 45.954C14.4928 44.8528 15.8002 43.9792 17.239 43.3832C18.6779 42.7872 20.22 42.4805 21.7775 42.4805C23.3349 42.4805 24.877 42.7872 26.3159 43.3832C27.7547 43.9792 29.0621 44.8528 30.1634 45.954C31.2646 47.0553 32.1382 48.3627 32.7342 49.8015C33.3302 51.2404 33.6369 52.7825 33.6369 54.3399" stroke="#E6E6E6" stroke-width="1.63812" stroke-linecap="round" stroke-linejoin="round"/>
<path d="M83.4718 74.885H71.3133C69.7565 74.885 68.2635 74.2665 67.1626 73.1657C66.0618 72.0649 65.4434 70.5718 65.4434 69.015C65.4434 67.4582 66.0618 65.9652 67.1626 64.8643C68.2635 63.7635 69.7565 63.1451 71.3133 63.1451H83.4718C85.3599 63.1429 87.1701 62.3919 88.5052 61.0568C89.8403 59.7218 90.5913 57.9116 90.5935 56.0235V46.6512C90.5935 45.0944 91.212 43.6013 92.3128 42.5005C93.4136 41.3997 94.9067 40.7812 96.4635 40.7812C98.0203 40.7812 99.5133 41.3997 100.614 42.5005C101.715 43.6013 102.333 45.0944 102.333 46.6512V56.0235C102.328 61.0241 100.339 65.8184 96.8027 69.3544C93.2667 72.8903 88.4724 74.8793 83.4718 74.885Z" fill="white" stroke="#E6E6E6" stroke-width="1.63812" stroke-linecap="round" stroke-linejoin="round"/>
<path d="M63.8805 4.5332H63.8805C67.5862 4.5332 71.1401 6.00528 73.7605 8.6256C76.3808 11.2459 77.8529 14.7998 77.8529 18.5055V104.575H49.9082V18.5055C49.9082 14.7998 51.3803 11.2459 54.0006 8.6256C56.6209 6.00528 60.1748 4.5332 63.8805 4.5332Z" fill="white" stroke="#E6E6E6" stroke-width="1.63812" stroke-linecap="round" stroke-linejoin="round"/>
<path d="M56.5885 59.3947H44.43C39.4293 59.3891 34.635 57.4001 31.099 53.8641C27.563 50.328 25.574 45.5338 25.5684 40.5331V31.161C25.5684 29.6042 26.1868 28.1111 27.2876 27.0103C28.3885 25.9095 29.8815 25.291 31.4383 25.291C32.9951 25.291 34.4882 25.9095 35.589 27.0103C36.6898 28.1111 37.3082 29.6042 37.3082 31.161V40.5331C37.3104 42.4213 38.0614 44.2315 39.3965 45.5666C40.7316 46.9017 42.5418 47.6527 44.43 47.6549H56.5885C58.1453 47.6549 59.6383 48.2733 60.7391 49.3741C61.84 50.475 62.4584 51.968 62.4584 53.5248C62.4584 55.0816 61.84 56.5746 60.7391 57.6755C59.6383 58.7763 58.1453 59.3947 56.5885 59.3947L56.5885 59.3947Z" fill="white" stroke="#E6E6E6" stroke-width="1.63812" stroke-linecap="round" stroke-linejoin="round"/>
<path d="M53.1072 12.733L53.1072 12.733C52.609 13.1534 52.5459 13.898 52.9662 14.3963L54.6209 16.3574C55.0413 16.8557 55.786 16.9188 56.2842 16.4984L56.2842 16.4984C56.7824 16.0781 56.8456 15.3334 56.4252 14.8351L54.7705 12.874C54.3501 12.3757 53.6055 12.3126 53.1072 12.733Z" fill="#E6E6E6"/>
<path d="M95.9443 48.1787C95.524 47.6804 94.7793 47.6173 94.281 48.0377C93.7828 48.458 93.7197 49.2027 94.1401 49.701L95.7947 51.6621C96.2151 52.1604 96.9598 52.2235 97.458 51.8031C97.9563 51.3827 98.0194 50.6381 97.599 50.1398L95.9443 48.1787Z" fill="#E6E6E6"/>
<path d="M71.8435 69.0865L71.8435 69.0865C71.3453 69.5069 71.2822 70.2516 71.7026 70.7498L73.3573 72.711C73.7776 73.2092 74.5223 73.2723 75.0205 72.8519L75.0205 72.8519C75.5188 72.4316 75.5819 71.6869 75.1615 71.1887L73.5068 69.2275C73.0865 68.7292 72.3418 68.6661 71.8435 69.0865Z" fill="#E6E6E6"/>
<path d="M75.167 46.9678C75.7887 46.7716 76.1336 46.1086 75.9373 45.4869C75.7411 44.8653 75.0781 44.5204 74.4564 44.7166L72.0095 45.489C71.3878 45.6853 71.043 46.3483 71.2392 46.9699C71.4354 47.5916 72.0984 47.9365 72.7201 47.7402L75.167 46.9678Z" fill="#E6E6E6"/>
<path d="M36.3514 41.6022L36.3514 41.6022C36.1552 40.9805 35.4921 40.6356 34.8705 40.8319L32.4235 41.6043C31.8019 41.8005 31.457 42.4635 31.6533 43.0852L31.6533 43.0852C31.8495 43.7068 32.5125 44.0517 33.1342 43.8555L35.5811 43.0831C36.2028 42.8868 36.5476 42.2238 36.3514 41.6022Z" fill="#E6E6E6"/>
<path d="M63.5143 85.1886L63.5143 85.1886C64.1277 84.9679 64.4461 84.2918 64.2255 83.6784L63.3569 81.2639C63.1363 80.6505 62.4601 80.3321 61.8467 80.5528L61.8467 80.5528C61.2333 80.7734 60.9149 81.4495 61.1356 82.063L62.0041 84.4775C62.2248 85.0909 62.9009 85.4092 63.5143 85.1886Z" fill="#E6E6E6"/>
<path d="M58.8466 41.8658C59.4969 41.8198 59.9867 41.2554 59.9407 40.6051C59.8947 39.9549 59.3303 39.465 58.68 39.511L56.1205 39.6921C55.4702 39.7381 54.9804 40.3026 55.0264 40.9528C55.0724 41.6031 55.6368 42.0929 56.2871 42.0469L58.8466 41.8658Z" fill="#E6E6E6"/>
<path d="M97.2334 63.8151C97.8836 63.769 98.3735 63.2046 98.3274 62.5544C98.2814 61.9041 97.717 61.4143 97.0667 61.4603L94.5072 61.6414C93.8569 61.6874 93.3671 62.2518 93.4131 62.9021C93.4591 63.5523 94.0235 64.0422 94.6738 63.9962L97.2334 63.8151Z" fill="#E6E6E6"/>
<path d="M31.3068 35.4682L31.3068 35.4682C31.8051 35.0478 31.8682 34.3031 31.4478 33.8049L29.7931 31.8437C29.3728 31.3455 28.6281 31.2824 28.1299 31.7027L28.1298 31.7027C27.6316 32.1231 27.5685 32.8678 27.9889 33.366L29.6436 35.3272C30.0639 35.8254 30.8086 35.8886 31.3068 35.4682Z" fill="#E6E6E6"/>
<path d="M70.2965 60.573L70.2965 60.573C70.4499 59.9394 70.0606 59.3014 69.427 59.1481L66.9331 58.5443C66.2995 58.3909 65.6615 58.7802 65.5082 59.4138L65.5082 59.4138C65.3548 60.0473 65.7441 60.6853 66.3776 60.8387L68.8716 61.4425C69.5051 61.5958 70.1431 61.2066 70.2965 60.573Z" fill="#E6E6E6"/>
<path d="M48.8115 57.649C49.4617 57.603 49.9516 57.0386 49.9056 56.3883C49.8596 55.7381 49.2951 55.2482 48.6449 55.2942L46.0853 55.4753C45.435 55.5213 44.9452 56.0858 44.9912 56.736C45.0372 57.3863 45.6017 57.8761 46.2519 57.8301L48.8115 57.649Z" fill="#E6E6E6"/>
<path d="M65.0439 26.9247C64.6664 27.4562 64.7913 28.193 65.3228 28.5705C65.8543 28.9479 66.5911 28.823 66.9686 28.2916L68.4543 26.1995C68.8318 25.668 68.7069 24.9311 68.1754 24.5537C67.6439 24.1762 66.907 24.3011 66.5296 24.8326L65.0439 26.9247Z" fill="#E6E6E6"/>
<path d="M34.9322 54.09L34.9322 54.09C35.4637 54.4675 36.2005 54.3426 36.578 53.8111L38.0637 51.719C38.4411 51.1875 38.3163 50.4507 37.7848 50.0732L37.7848 50.0732C37.2533 49.6958 36.5164 49.8206 36.139 50.3521L34.6532 52.4442C34.2758 52.9757 34.4007 53.7126 34.9322 54.09Z" fill="#E6E6E6"/>
<path d="M82.1825 70.8915C81.8051 71.423 81.93 72.1598 82.4615 72.5373C82.993 72.9147 83.7298 72.7898 84.1073 72.2584L85.593 70.1663C85.9704 69.6348 85.8455 68.8979 85.3141 68.5205C84.7826 68.143 84.0457 68.2679 83.6683 68.7994L82.1825 70.8915Z" fill="#E6E6E6"/>
<path d="M53.2701 69.5978L53.2701 69.5978C53.8016 69.9753 54.5384 69.8504 54.9159 69.3189L56.4016 67.2268C56.779 66.6953 56.6541 65.9585 56.1227 65.581L56.1227 65.581C55.5912 65.2036 54.8543 65.3285 54.4769 65.86L52.9911 67.952C52.6137 68.4835 52.7386 69.2204 53.2701 69.5978Z" fill="#E6E6E6"/>
<path d="M85.2421 84.8273C84.8717 84.3985 84.3472 84.1328 83.7823 84.0879C83.4254 83.0918 82.7273 82.3657 81.8238 82.2021C80.9203 82.0385 80.012 82.4737 79.3285 83.2815C78.7837 83.1255 78.1994 83.1903 77.702 83.462C76.4534 84.1798 76.2393 86.1503 77.224 87.8632C77.9338 89.0981 79.0723 89.858 80.1206 89.9193C80.3118 89.9834 80.5113 90.0195 80.7128 90.0266C81.7161 90.3368 83.0488 90.0242 84.1466 89.1167C85.6694 87.8578 86.1598 85.9374 85.2421 84.8273Z" fill="#B3B3B3"/>
<path d="M116.09 108.389C116.437 108.389 116.779 108.294 117.075 108.112C117.372 107.931 117.612 107.671 117.77 107.361C117.928 107.051 117.996 106.704 117.968 106.357C117.94 106.011 117.817 105.679 117.611 105.398C109.622 94.6681 96.2049 87.627 80.9979 87.627C65.7909 87.627 52.3736 94.6681 44.3844 105.398C44.1791 105.679 44.0556 106.011 44.0276 106.357C43.9996 106.704 44.0683 107.051 44.2259 107.361C44.3836 107.671 44.6241 107.931 44.9207 108.112C45.2173 108.294 45.5584 108.389 45.9061 108.389H116.09Z" fill="white" stroke="#E6E6E6" stroke-width="1.63812" stroke-linecap="round" stroke-linejoin="round"/>
<path d="M65.4516 101.636C65.1701 100.85 64.6193 100.277 63.9064 100.148C63.1935 100.019 62.4768 100.362 61.9375 101C61.5077 100.877 61.0467 100.928 60.6543 101.142C59.6691 101.708 59.5001 103.263 60.2771 104.615C60.8371 105.589 61.7354 106.189 62.5626 106.237C62.7135 106.287 62.8708 106.316 63.0299 106.322C63.8214 106.566 64.873 106.32 65.7391 105.604C66.9406 104.61 67.3276 103.095 66.6035 102.219C66.3112 101.881 65.8974 101.671 65.4516 101.636Z" fill="#B3B3B3"/>
<path d="M65.6435 108.388C59.683 100.873 48.3641 95.7988 35.3792 95.7988C23.9921 95.7988 13.8862 99.7013 7.55174 105.73C7.33006 105.944 7.17749 106.22 7.11362 106.522C7.04975 106.823 7.07751 107.137 7.19331 107.423C7.30912 107.708 7.50769 107.953 7.76354 108.125C8.01938 108.297 8.32081 108.389 8.62913 108.388L65.6435 108.388Z" fill="white" stroke="#E6E6E6" stroke-width="1.63812" stroke-linecap="round" stroke-linejoin="round"/>
<path d="M10.3366 120.463V130.645H8.92472L3.74929 123.177H3.65483V130.645H2.11861V120.463H3.54048L8.72088 127.94H8.81534V120.463H10.3366ZM15.5349 130.799C14.819 130.799 14.1942 130.635 13.6606 130.306C13.127 129.978 12.7127 129.519 12.4177 128.929C12.1227 128.339 11.9752 127.65 11.9752 126.861C11.9752 126.069 12.1227 125.376 12.4177 124.783C12.7127 124.19 13.127 123.729 13.6606 123.401C14.1942 123.073 14.819 122.909 15.5349 122.909C16.2508 122.909 16.8756 123.073 17.4092 123.401C17.9428 123.729 18.3571 124.19 18.6521 124.783C18.9471 125.376 19.0946 126.069 19.0946 126.861C19.0946 127.65 18.9471 128.339 18.6521 128.929C18.3571 129.519 17.9428 129.978 17.4092 130.306C16.8756 130.635 16.2508 130.799 15.5349 130.799ZM15.5399 129.551C16.0039 129.551 16.3883 129.428 16.6933 129.183C16.9982 128.938 17.2236 128.611 17.3694 128.203C17.5186 127.796 17.5931 127.347 17.5931 126.856C17.5931 126.369 17.5186 125.922 17.3694 125.514C17.2236 125.103 16.9982 124.773 16.6933 124.525C16.3883 124.276 16.0039 124.152 15.5399 124.152C15.0725 124.152 14.6848 124.276 14.3765 124.525C14.0716 124.773 13.8446 125.103 13.6954 125.514C13.5496 125.922 13.4767 126.369 13.4767 126.856C13.4767 127.347 13.5496 127.796 13.6954 128.203C13.8446 128.611 14.0716 128.938 14.3765 129.183C14.6848 129.428 15.0725 129.551 15.5399 129.551ZM27.7435 123.008V124.201H23.5724V123.008H27.7435ZM24.691 121.179H26.1775V128.402C26.1775 128.691 26.2206 128.908 26.3067 129.054C26.3929 129.196 26.5039 129.294 26.6398 129.347C26.779 129.397 26.9298 129.422 27.0923 129.422C27.2116 129.422 27.316 129.413 27.4055 129.397C27.495 129.38 27.5646 129.367 27.6143 129.357L27.8827 130.585C27.7966 130.618 27.6739 130.651 27.5148 130.684C27.3557 130.721 27.1569 130.741 26.9182 130.744C26.5271 130.751 26.1626 130.681 25.8245 130.535C25.4864 130.389 25.213 130.164 25.0042 129.859C24.7954 129.554 24.691 129.171 24.691 128.711V121.179ZM29.2479 130.645V123.008H30.6847V124.221H30.7642C30.9034 123.81 31.1487 123.487 31.5 123.252C31.8547 123.013 32.2557 122.894 32.7031 122.894C32.7959 122.894 32.9053 122.897 33.0313 122.904C33.1605 122.91 33.2616 122.919 33.3345 122.929V124.35C33.2749 124.334 33.1688 124.316 33.0164 124.296C32.8639 124.273 32.7114 124.261 32.559 124.261C32.2076 124.261 31.8944 124.336 31.6193 124.485C31.3476 124.631 31.1321 124.834 30.973 125.096C30.8139 125.355 30.7344 125.65 30.7344 125.981V130.645H29.2479ZM36.6349 130.814C36.151 130.814 35.7135 130.724 35.3224 130.545C34.9313 130.363 34.6214 130.099 34.3927 129.755C34.1673 129.41 34.0546 128.987 34.0546 128.487C34.0546 128.056 34.1375 127.701 34.3032 127.423C34.4689 127.145 34.6926 126.924 34.9744 126.762C35.2561 126.599 35.571 126.477 35.919 126.394C36.267 126.311 36.6216 126.248 36.9829 126.205C37.4403 126.152 37.8115 126.109 38.0965 126.076C38.3816 126.039 38.5887 125.981 38.718 125.902C38.8472 125.822 38.9119 125.693 38.9119 125.514V125.479C38.9119 125.045 38.7892 124.708 38.544 124.47C38.302 124.231 37.9407 124.112 37.4602 124.112C36.9597 124.112 36.5653 124.223 36.2769 124.445C35.9919 124.664 35.7947 124.907 35.6853 125.176L34.2883 124.858C34.454 124.394 34.696 124.019 35.0141 123.734C35.3356 123.446 35.7052 123.237 36.1228 123.108C36.5404 122.975 36.9796 122.909 37.4403 122.909C37.7452 122.909 38.0683 122.945 38.4097 123.018C38.7544 123.088 39.0759 123.217 39.3742 123.406C39.6758 123.595 39.9228 123.865 40.115 124.216C40.3072 124.564 40.4033 125.017 40.4033 125.574V130.645H38.9516V129.6H38.892C38.7959 129.793 38.6517 129.982 38.4594 130.167C38.2672 130.353 38.0203 130.507 37.7187 130.63C37.4171 130.752 37.0558 130.814 36.6349 130.814ZM36.958 129.62C37.369 129.62 37.7203 129.539 38.012 129.377C38.307 129.214 38.5307 129.002 38.6832 128.74C38.8389 128.475 38.9168 128.192 38.9168 127.89V126.906C38.8638 126.959 38.7611 127.009 38.6086 127.055C38.4594 127.098 38.2888 127.136 38.0965 127.169C37.9043 127.199 37.717 127.227 37.5347 127.254C37.3524 127.277 37.2 127.297 37.0773 127.314C36.789 127.35 36.5255 127.411 36.2869 127.498C36.0515 127.584 35.8626 127.708 35.7201 127.87C35.5809 128.029 35.5113 128.242 35.5113 128.507C35.5113 128.875 35.6472 129.153 35.919 129.342C36.1907 129.528 36.5371 129.62 36.958 129.62ZM43.7298 126.11V130.645H42.2433V123.008H43.6701V124.251H43.7646C43.9402 123.847 44.2153 123.522 44.5899 123.277C44.9677 123.031 45.4433 122.909 46.0167 122.909C46.5371 122.909 46.9928 123.018 47.3839 123.237C47.775 123.452 48.0783 123.774 48.2937 124.201C48.5091 124.629 48.6169 125.158 48.6169 125.787V130.645H47.1303V125.966C47.1303 125.413 46.9862 124.98 46.6978 124.669C46.4095 124.354 46.0134 124.196 45.5096 124.196C45.1649 124.196 44.8583 124.271 44.5899 124.42C44.3247 124.569 44.1142 124.788 43.9585 125.076C43.806 125.361 43.7298 125.706 43.7298 126.11ZM56.1928 124.873L54.8455 125.111C54.7891 124.939 54.6996 124.775 54.577 124.619C54.4577 124.463 54.2953 124.336 54.0898 124.236C53.8843 124.137 53.6274 124.087 53.3192 124.087C52.8983 124.087 52.5469 124.181 52.2652 124.37C51.9835 124.556 51.8426 124.796 51.8426 125.091C51.8426 125.346 51.9371 125.552 52.126 125.708C52.3149 125.864 52.6198 125.991 53.0408 126.091L54.2538 126.369C54.9565 126.531 55.4802 126.782 55.8249 127.12C56.1696 127.458 56.3419 127.897 56.3419 128.437C56.3419 128.895 56.2093 129.302 55.9442 129.66C55.6823 130.015 55.3161 130.293 54.8455 130.495C54.3781 130.698 53.8362 130.799 53.2198 130.799C52.3646 130.799 51.667 130.616 51.1267 130.252C50.5865 129.884 50.255 129.362 50.1324 128.686L51.5692 128.467C51.6587 128.842 51.8426 129.125 52.121 129.317C52.3994 129.506 52.7624 129.6 53.2098 129.6C53.697 129.6 54.0865 129.499 54.3781 129.297C54.6698 129.092 54.8156 128.842 54.8156 128.547C54.8156 128.308 54.7261 128.107 54.5472 127.945C54.3715 127.783 54.1014 127.66 53.7368 127.577L52.4442 127.294C51.7316 127.131 51.2046 126.873 50.8632 126.518C50.5251 126.163 50.3561 125.714 50.3561 125.171C50.3561 124.72 50.4821 124.326 50.734 123.988C50.9859 123.65 51.3339 123.386 51.778 123.197C52.2221 123.005 52.7309 122.909 53.3043 122.909C54.1296 122.909 54.7792 123.088 55.2531 123.446C55.7271 123.8 56.0403 124.276 56.1928 124.873ZM60.0586 130.814C59.5747 130.814 59.1372 130.724 58.7461 130.545C58.355 130.363 58.0451 130.099 57.8164 129.755C57.5911 129.41 57.4784 128.987 57.4784 128.487C57.4784 128.056 57.5612 127.701 57.7269 127.423C57.8927 127.145 58.1164 126.924 58.3981 126.762C58.6798 126.599 58.9947 126.477 59.3427 126.394C59.6907 126.311 60.0454 126.248 60.4066 126.205C60.864 126.152 61.2352 126.109 61.5203 126.076C61.8053 126.039 62.0125 125.981 62.1417 125.902C62.271 125.822 62.3356 125.693 62.3356 125.514V125.479C62.3356 125.045 62.213 124.708 61.9677 124.47C61.7258 124.231 61.3645 124.112 60.8839 124.112C60.3834 124.112 59.989 124.223 59.7007 124.445C59.4156 124.664 59.2184 124.907 59.109 125.176L57.712 124.858C57.8778 124.394 58.1197 124.019 58.4379 123.734C58.7594 123.446 59.1289 123.237 59.5465 123.108C59.9642 122.975 60.4033 122.909 60.864 122.909C61.1689 122.909 61.4921 122.945 61.8335 123.018C62.1782 123.088 62.4997 123.217 62.798 123.406C63.0996 123.595 63.3465 123.865 63.5387 124.216C63.731 124.564 63.8271 125.017 63.8271 125.574V130.645H62.3754V129.6H62.3157C62.2196 129.793 62.0754 129.982 61.8832 130.167C61.691 130.353 61.444 130.507 61.1424 130.63C60.8408 130.752 60.4796 130.814 60.0586 130.814ZM60.3818 129.62C60.7928 129.62 61.1441 129.539 61.4358 129.377C61.7307 129.214 61.9545 129.002 62.1069 128.74C62.2627 128.475 62.3406 128.192 62.3406 127.89V126.906C62.2876 126.959 62.1848 127.009 62.0323 127.055C61.8832 127.098 61.7125 127.136 61.5203 127.169C61.328 127.199 61.1408 127.227 60.9585 127.254C60.7762 127.277 60.6237 127.297 60.5011 127.314C60.2127 127.35 59.9492 127.411 59.7106 127.498C59.4753 127.584 59.2864 127.708 59.1439 127.87C59.0046 128.029 58.935 128.242 58.935 128.507C58.935 128.875 59.0709 129.153 59.3427 129.342C59.6145 129.528 59.9608 129.62 60.3818 129.62ZM68.8836 130.799C68.1445 130.799 67.5082 130.631 66.9746 130.297C66.4443 129.958 66.0366 129.493 65.7515 128.9C65.4665 128.306 65.324 127.627 65.324 126.861C65.324 126.086 65.4698 125.401 65.7615 124.808C66.0532 124.211 66.4641 123.746 66.9944 123.411C67.5247 123.076 68.1495 122.909 68.8687 122.909C69.4487 122.909 69.9658 123.016 70.4199 123.232C70.8739 123.444 71.2402 123.742 71.5186 124.127C71.8003 124.511 71.9677 124.96 72.0207 125.474H70.574C70.4944 125.116 70.3121 124.808 70.0271 124.549C69.7454 124.291 69.3675 124.162 68.8936 124.162C68.4793 124.162 68.1164 124.271 67.8048 124.49C67.4966 124.705 67.2563 125.013 67.0839 125.414C66.9116 125.812 66.8254 126.283 66.8254 126.826C66.8254 127.383 66.9099 127.864 67.079 128.268C67.248 128.672 67.4866 128.986 67.7949 129.208C68.1064 129.43 68.4727 129.541 68.8936 129.541C69.1753 129.541 69.4305 129.489 69.6592 129.387C69.8912 129.281 70.0851 129.13 70.2409 128.934C70.4 128.739 70.511 128.503 70.574 128.228H72.0207C71.9677 128.722 71.8069 129.163 71.5385 129.551C71.27 129.939 70.9104 130.243 70.4596 130.466C70.0122 130.688 69.4869 130.799 68.8836 130.799ZM77.035 123.008V124.201H72.8638V123.008H77.035ZM73.9825 121.179H75.469V128.402C75.469 128.691 75.512 128.908 75.5982 129.054C75.6844 129.196 75.7954 129.294 75.9313 129.347C76.0705 129.397 76.2213 129.422 76.3837 129.422C76.5031 129.422 76.6075 129.413 76.6969 129.397C76.7864 129.38 76.856 129.367 76.9058 129.357L77.1742 130.585C77.088 130.618 76.9654 130.651 76.8063 130.684C76.6472 130.721 76.4484 130.741 76.2097 130.744C75.8186 130.751 75.454 130.681 75.116 130.535C74.7779 130.389 74.5045 130.164 74.2957 129.859C74.0869 129.554 73.9825 129.171 73.9825 128.711V121.179ZM78.5394 130.645V123.008H80.0259V130.645H78.5394ZM79.2901 121.83C79.0316 121.83 78.8095 121.744 78.6239 121.571C78.4416 121.396 78.3504 121.187 78.3504 120.945C78.3504 120.7 78.4416 120.491 78.6239 120.319C78.8095 120.143 79.0316 120.055 79.2901 120.055C79.5486 120.055 79.769 120.143 79.9513 120.319C80.1369 120.491 80.2297 120.7 80.2297 120.945C80.2297 121.187 80.1369 121.396 79.9513 121.571C79.769 121.744 79.5486 121.83 79.2901 121.83ZM85.1023 130.799C84.3864 130.799 83.7616 130.635 83.228 130.306C82.6944 129.978 82.2801 129.519 81.9851 128.929C81.6901 128.339 81.5427 127.65 81.5427 126.861C81.5427 126.069 81.6901 125.376 81.9851 124.783C82.2801 124.19 82.6944 123.729 83.228 123.401C83.7616 123.073 84.3864 122.909 85.1023 122.909C85.8182 122.909 86.443 123.073 86.9766 123.401C87.5102 123.729 87.9245 124.19 88.2195 124.783C88.5145 125.376 88.662 126.069 88.662 126.861C88.662 127.65 88.5145 128.339 88.2195 128.929C87.9245 129.519 87.5102 129.978 86.9766 130.306C86.443 130.635 85.8182 130.799 85.1023 130.799ZM85.1073 129.551C85.5713 129.551 85.9558 129.428 86.2607 129.183C86.5656 128.938 86.791 128.611 86.9368 128.203C87.086 127.796 87.1606 127.347 87.1606 126.856C87.1606 126.369 87.086 125.922 86.9368 125.514C86.791 125.103 86.5656 124.773 86.2607 124.525C85.9558 124.276 85.5713 124.152 85.1073 124.152C84.64 124.152 84.2522 124.276 83.9439 124.525C83.639 124.773 83.412 125.103 83.2628 125.514C83.117 125.922 83.0441 126.369 83.0441 126.856C83.0441 127.347 83.117 127.796 83.2628 128.203C83.412 128.611 83.639 128.938 83.9439 129.183C84.2522 129.428 84.64 129.551 85.1073 129.551ZM91.6677 126.11V130.645H90.1812V123.008H91.6081V124.251H91.7026C91.8782 123.847 92.1533 123.522 92.5278 123.277C92.9057 123.031 93.3813 122.909 93.9547 122.909C94.475 122.909 94.9308 123.018 95.3219 123.237C95.713 123.452 96.0162 123.774 96.2317 124.201C96.4471 124.629 96.5548 125.158 96.5548 125.787V130.645H95.0683V125.966C95.0683 125.413 94.9241 124.98 94.6358 124.669C94.3474 124.354 93.9514 124.196 93.4476 124.196C93.1029 124.196 92.7963 124.271 92.5278 124.42C92.2627 124.569 92.0522 124.788 91.8964 125.076C91.744 125.361 91.6677 125.706 91.6677 126.11ZM102.913 133.508C102.691 133.508 102.489 133.49 102.307 133.453C102.124 133.42 101.988 133.384 101.899 133.344L102.257 132.126C102.529 132.199 102.771 132.23 102.983 132.221C103.195 132.211 103.382 132.131 103.545 131.982C103.71 131.833 103.856 131.589 103.982 131.251L104.166 130.744L101.372 123.008H102.963L104.897 128.934H104.976L106.91 123.008H108.506L105.359 131.664C105.213 132.061 105.028 132.398 104.802 132.673C104.577 132.951 104.309 133.16 103.997 133.299C103.685 133.439 103.324 133.508 102.913 133.508ZM112.795 130.799C112.042 130.799 111.394 130.638 110.851 130.316C110.31 129.992 109.893 129.536 109.598 128.949C109.306 128.359 109.16 127.668 109.16 126.876C109.16 126.094 109.306 125.404 109.598 124.808C109.893 124.211 110.304 123.746 110.831 123.411C111.361 123.076 111.981 122.909 112.69 122.909C113.121 122.909 113.539 122.98 113.943 123.123C114.347 123.265 114.71 123.489 115.032 123.794C115.353 124.099 115.607 124.495 115.792 124.982C115.978 125.466 116.071 126.054 116.071 126.747V127.274H110.001V126.16H114.614C114.614 125.769 114.535 125.423 114.376 125.121C114.217 124.816 113.993 124.576 113.704 124.4C113.419 124.225 113.085 124.137 112.7 124.137C112.283 124.137 111.918 124.239 111.606 124.445C111.298 124.647 111.06 124.912 110.891 125.24C110.725 125.565 110.642 125.918 110.642 126.299V127.169C110.642 127.68 110.731 128.114 110.91 128.472C111.093 128.83 111.346 129.103 111.671 129.292C111.996 129.478 112.375 129.571 112.81 129.571C113.091 129.571 113.348 129.531 113.58 129.451C113.812 129.368 114.013 129.246 114.182 129.083C114.351 128.921 114.48 128.721 114.569 128.482L115.976 128.735C115.864 129.15 115.662 129.513 115.37 129.824C115.082 130.132 114.719 130.373 114.281 130.545C113.847 130.714 113.351 130.799 112.795 130.799ZM121.145 123.008V124.201H116.974V123.008H121.145ZM118.092 121.179H119.579V128.402C119.579 128.691 119.622 128.908 119.708 129.054C119.794 129.196 119.905 129.294 120.041 129.347C120.18 129.397 120.331 129.422 120.494 129.422C120.613 129.422 120.717 129.413 120.807 129.397C120.896 129.38 120.966 129.367 121.016 129.357L121.284 130.585C121.198 130.618 121.075 130.651 120.916 130.684C120.757 130.721 120.558 130.741 120.32 130.744C119.928 130.751 119.564 130.681 119.226 130.535C118.888 130.389 118.614 130.164 118.406 129.859C118.197 129.554 118.092 129.171 118.092 128.711V121.179Z" fill="#999999"/>
</svg>
